<svg width="158" height="158" viewBox="0 0 158 158" fill="none" xmlns="http://www.w3.org/2000/svg">
<g style="mix-blend-mode:overlay" filter="url(#filter0_f_43_684)">
<circle cx="79" cy="69" r="39" fill="#FFF201"/>
</g>
<g style="mix-blend-mode:overlay">
<path fill-rule="evenodd" clip-rule="evenodd" d="M89.3452 0H68.6548L77.6802 75.8139L30.4537 15.8234L15.8233 30.4538L75.8136 77.6802L0 68.6548V89.3452L75.8138 80.3198L15.8235 127.546L30.4538 142.177L77.6802 82.1864L68.6548 158H89.3452L80.3198 82.1864L127.546 142.177L142.177 127.546L82.1861 80.3198L158 89.3452V68.6548L82.1864 77.6802L142.177 30.4538L127.546 15.8234L80.3198 75.8139L89.3452 0Z" fill="url(#paint0_radial_43_684)"/>
</g>
<path d="M58.9969 22.9L32.2762 18C28.399 17.3 25.5698 21.4 27.7703 24.5L43.0693 46.1L58.9969 22.9Z" fill="url(#paint1_linear_43_684)"/>
<path d="M32.1714 18.5001L58.6826 23.3001L58.997 22.9001L32.2762 18.0001C29.2374 17.4001 26.8273 19.9001 27.0369 22.5001C27.0369 20.1001 29.3422 17.9001 32.1714 18.5001Z" fill="url(#paint2_linear_43_684)"/>
<path d="M58.997 22.9L45.8986 20.5C45.8986 20.5 42.8597 22.1 39.6113 24C35.9438 26.1 36.1534 29.4 36.1534 29.4C33.5337 28.1 31.9619 27 27.7704 24.5L43.0693 46.1L58.997 22.9Z" fill="url(#paint3_linear_43_684)"/>
<path d="M46.7368 38.3L30.0756 27.4C28.5038 26.4 26.6177 27.9 27.3512 29.6L40.24 58.6L46.7368 38.3Z" fill="url(#paint4_linear_43_684)"/>
<path d="M30.0756 27.8L46.632 38.7L46.7368 38.3L30.0756 27.4C28.7133 26.5 26.932 27.7 27.1415 29.1C27.3511 27.9 28.9229 27 30.0756 27.8Z" fill="url(#paint5_linear_43_684)"/>
<path d="M46.7368 38.3L36.4677 31.6V41L29.6565 34.8L40.24 58.5L46.7368 38.3Z" fill="url(#paint6_linear_43_684)"/>
<path d="M45.8985 50.4001C45.3746 50.3001 36.8868 42.1001 31.0187 36.5001C29.7613 35.2001 27.5607 36.5001 28.0847 38.2001L39.8209 71.2001L45.8985 50.4001Z" fill="url(#paint7_linear_43_684)"/>
<path d="M31.0188 36.6C29.9709 35.6 28.3991 36.2 28.0847 37.4C28.6087 36.5 29.9709 36.2 30.8092 37C36.5725 42.6 45.1651 50.8 45.689 50.9L39.8209 71.2V71.3L45.7938 50.5C45.3746 50.3 36.8869 42.2 31.0188 36.6Z" fill="url(#paint8_linear_43_684)"/>
<path d="M45.8985 50.3999C45.5841 50.2999 41.0782 46.1 36.3628 41.7C36.3628 45 36.2581 61.0999 36.2581 61.0999L39.9256 71.3L45.8985 50.3999Z" fill="url(#paint9_linear_43_684)"/>
<path d="M49.4613 24L49.0421 16.5C48.8326 13.8 51.2427 11.6 53.9672 11.8L67.7991 12.8L49.4613 24Z" fill="url(#paint10_linear_43_684)"/>
<path d="M49.147 17C48.9374 14.3 51.3475 12.1 54.072 12.3L67.0656 13.2L67.7991 12.7L53.9672 11.7C51.1379 11.5 48.8326 13.7 49.0422 16.4L49.4613 23.9L49.147 17Z" fill="url(#paint11_linear_43_684)"/>
<path d="M49.4613 24L49.147 18.8L61.0927 12.4L67.7991 12.8L49.4613 24Z" fill="#FF8A00"/>
<path d="M103.846 22.9L130.567 18C134.444 17.3 137.273 21.4 135.072 24.5L119.773 46.1L103.846 22.9Z" fill="url(#paint12_linear_43_684)"/>
<path d="M130.567 18.5001L104.055 23.3001L103.741 22.9001L130.462 18.0001C133.501 17.4001 135.911 19.9001 135.701 22.5001C135.701 20.1001 133.396 17.9001 130.567 18.5001Z" fill="url(#paint13_linear_43_684)"/>
<path d="M103.846 22.9L116.944 20.5C116.944 20.5 119.983 22.1 123.231 24C126.899 26.1 126.689 29.4 126.689 29.4C129.309 28.1 130.881 27 135.072 24.5L119.773 46.1L103.846 22.9Z" fill="url(#paint14_linear_43_684)"/>
<path d="M116.001 38.3L132.662 27.4C134.234 26.4 136.12 27.9 135.387 29.6L122.498 58.6L116.001 38.3Z" fill="url(#paint15_linear_43_684)"/>
<path d="M132.662 27.8L116.106 38.7L116.001 38.3L132.662 27.4C134.025 26.5 135.806 27.7 135.596 29.1C135.387 27.9 133.92 27 132.662 27.8Z" fill="url(#paint16_linear_43_684)"/>
<path d="M116.001 38.3L126.27 31.6V41L133.082 34.8L122.498 58.5L116.001 38.3Z" fill="url(#paint17_linear_43_684)"/>
<path d="M116.839 50.4001C117.363 50.3001 125.851 42.1001 131.719 36.5001C132.977 35.2001 135.177 36.5001 134.653 38.2001L122.917 71.2001L116.839 50.4001Z" fill="url(#paint18_linear_43_684)"/>
<path d="M131.719 36.6C132.767 35.6 134.339 36.2 134.653 37.4C134.129 36.5 132.767 36.2 131.929 37C126.166 42.6 117.573 50.8 117.049 50.9L122.917 71.2V71.3L116.944 50.5C117.363 50.3 125.956 42.2 131.719 36.6Z" fill="url(#paint19_linear_43_684)"/>
<path d="M116.839 50.3999C117.154 50.2999 121.66 46.1 126.375 41.7C126.375 45 126.48 61.0999 126.48 61.0999L122.812 71.3L116.839 50.3999Z" fill="url(#paint20_linear_43_684)"/>
<path d="M113.277 24L113.696 16.5C113.905 13.8 111.495 11.6 108.771 11.8L94.939 12.8L113.277 24Z" fill="url(#paint21_linear_43_684)"/>
<path d="M113.696 17C113.905 14.3 111.495 12.1 108.771 12.3L95.7772 13.2L95.0437 12.7L108.876 11.7C111.705 11.5 114.01 13.7 113.801 16.4L113.381 23.9L113.696 17Z" fill="url(#paint22_linear_43_684)"/>
<path d="M113.277 24L113.591 18.8L101.645 12.4L94.939 12.8L113.277 24Z" fill="#FF8A00"/>
<path d="M81.4214 99.4C80.164 99.4 79.0113 99.1 77.8587 98.5L40.6592 78C38.4587 76.8 37.0964 74.6 37.0964 72.2V31.2C37.0964 28.8 38.4587 26.6 40.6592 25.4L77.8587 4.89999C78.9065 4.29999 80.164 4 81.4214 4C82.6789 4 83.8316 4.29999 84.9842 4.89999L122.184 25.4C124.384 26.6 125.746 28.8 125.746 31.2V72.2C125.746 74.6 124.384 76.8 122.184 78L84.9842 98.5C83.8316 99.1 82.5741 99.4 81.4214 99.4Z" fill="url(#paint23_linear_43_684)"/>
<path d="M81.4215 98.8C80.2688 98.8 79.221 98.5 78.1731 98L40.9736 77.5C38.9827 76.4 37.7252 74.4 37.7252 72.2V31.2C37.7252 29 38.9827 27 40.9736 25.9L78.1731 5.39997C79.1162 4.89997 80.2688 4.59998 81.4215 4.59998C82.5741 4.59998 83.622 4.89997 84.6699 5.39997L121.869 25.9C123.86 27 125.118 29 125.118 31.2V72.2C125.118 74.4 123.86 76.4 121.869 77.5L84.6699 98C83.622 98.5 82.4693 98.8 81.4215 98.8Z" fill="url(#paint24_linear_43_684)"/>
<path d="M81.4214 96.9C80.6879 96.9 79.8497 96.7001 79.2209 96.3001L42.0215 75.8001C40.6592 75.0001 39.8209 73.6 39.8209 72.1V31.1C39.8209 29.6 40.6592 28.2 42.0215 27.4L79.2209 6.90005C79.8497 6.50005 80.6879 6.30005 81.4214 6.30005C82.1549 6.30005 82.9932 6.50005 83.622 6.90005L120.821 27.4C122.184 28.2 123.022 29.6 123.022 31.1V72.1C123.022 73.6 122.184 75.0001 120.821 75.8001L83.622 96.3001C82.8885 96.7001 82.1549 96.9 81.4214 96.9Z" fill="#C0561A"/>
<path d="M120.507 28L83.3076 7.49998C82.155 6.79998 80.6879 6.79998 79.4305 7.49998L42.231 28C41.0783 28.7 40.3448 29.9 40.3448 31.2V72.2C40.3448 73.5 41.0783 74.7 42.231 75.4L79.4305 95.9C80.5831 96.6 82.0502 96.6 83.3076 95.9L120.507 75.4C121.66 74.7 122.393 73.5 122.393 72.2V31.2C122.393 29.8 121.765 28.6 120.507 28Z" fill="url(#paint25_linear_43_684)"/>
<path d="M81.4214 93.8999C81.2119 93.8999 81.0023 93.7999 80.7927 93.6999L43.4885 73.1999C43.0693 72.9999 42.8597 72.5999 42.8597 72.0999V31.0999C42.8597 30.6999 43.0693 30.2999 43.4885 29.9999L80.6879 9.49992C80.8975 9.39992 81.1071 9.29993 81.3167 9.29993C81.5262 9.29993 81.7358 9.39992 81.9454 9.49992L119.145 29.9999C119.564 30.1999 119.774 30.5999 119.774 31.0999V72.0999C119.774 72.4999 119.564 72.8999 119.145 73.1999L81.9454 93.6999C81.8406 93.7999 81.631 93.8999 81.4214 93.8999Z" fill="url(#paint26_linear_43_684)"/>
<path d="M118.935 30.6L81.7358 10.1C81.631 9.99999 81.5262 10 81.4214 10C81.3166 10 81.2119 9.99999 81.1071 10.1L43.9076 30.6C43.8028 30.7 43.698 30.7 43.698 30.8C43.5932 30.9 43.5933 31 43.5933 31.1V72.1C43.5933 72.2 43.5932 72.3 43.698 72.4C43.8028 72.5 43.8028 72.6 43.9076 72.6L81.1071 93.1C81.2119 93.2 81.3166 93.2 81.4214 93.2C81.5262 93.2 81.631 93.2 81.7358 93.1L118.935 72.6C119.04 72.6 119.145 72.5 119.145 72.4C119.25 72.3 119.25 72.2 119.25 72.1V31.1C119.25 31 119.25 30.9 119.145 30.8C119.145 30.7 119.04 30.7 118.935 30.6ZM116.106 70.8L81.4214 89.9L46.7369 70.8V32.6L81.4214 13.5L116.106 32.6V70.8Z" fill="url(#paint27_linear_43_684)"/>
<path d="M46.7369 70.8V32.6C46.7369 32.6 43.6981 30.8 43.5933 30.9C43.4885 31 43.4885 31.1 43.4885 31.2V72.2C43.4885 72.3 43.4885 72.4 43.5933 72.5C43.6981 72.6 46.7369 70.8 46.7369 70.8Z" fill="url(#paint28_linear_43_684)"/>
<path d="M81.4214 89.8999L46.7369 70.7999C46.7369 70.7999 43.5933 72.3999 43.5933 72.4999C43.698 72.5999 43.698 72.6999 43.8028 72.6999L81.0023 93.1999C81.1071 93.2999 81.2119 93.2999 81.3167 93.2999C81.4215 93.2999 81.4214 89.8999 81.4214 89.8999Z" fill="url(#paint29_linear_43_684)"/>
<path d="M116.106 70.7999L81.4215 89.8999C81.4215 89.8999 81.3167 93.2999 81.4215 93.2999C81.5262 93.2999 81.631 93.2999 81.7358 93.1999L118.935 72.6999C119.04 72.6999 119.145 72.5999 119.145 72.4999C119.25 72.3999 116.106 70.7999 116.106 70.7999Z" fill="url(#paint30_linear_43_684)"/>
<path d="M119.145 72.5C119.25 72.4 119.25 72.3 119.25 72.2V31.2C119.25 31.1 119.25 31 119.145 30.9C119.04 30.8 116.001 32.6 116.001 32.6V70.8C116.106 70.8 119.04 72.6 119.145 72.5Z" fill="url(#paint31_linear_43_684)"/>
<path d="M81.4214 13.4L116.106 32.5C116.106 32.5 119.25 30.9 119.25 30.8C119.145 30.7 119.145 30.6 119.04 30.6L81.8406 10.1C81.7358 9.99999 81.631 10 81.5262 10C81.4214 10 81.4214 13.4 81.4214 13.4Z" fill="url(#paint32_linear_43_684)"/>
<path d="M46.7369 32.5L81.4215 13.4C81.4215 13.4 81.5263 10 81.4215 10C81.3167 10 81.2119 9.99999 81.1071 10.1L43.9077 30.6C43.8029 30.7 43.6981 30.7 43.6981 30.8C43.4885 30.9 46.7369 32.5 46.7369 32.5Z" fill="url(#paint33_linear_43_684)"/>
<path d="M50.5092 68.5999V34.7L81.4214 17.7L112.229 34.7V68.5999L81.4214 85.5999L50.5092 68.5999Z" fill="url(#paint34_linear_43_684)"/>
<path d="M50.5092 67.9V68.6L81.4214 85.6L112.229 68.6V67.9L81.4214 84.9L50.5092 67.9Z" fill="url(#paint35_linear_43_684)"/>
<path d="M81.4214 13.4L46.7368 32.5V70.7L81.4214 89.8L116.106 70.7V32.5L81.4214 13.4ZM112.229 68.6L81.4214 85.6L50.6139 68.6V34.6L81.4214 17.6L112.229 34.6V68.6Z" fill="#9B3A17"/>
<path d="M47.4703 70.3V32.8999L81.4214 14.2L115.372 32.8999V70.3L81.4214 89L47.4703 70.3ZM49.7757 34.2V69L81.4214 86.3999L113.067 69V34.2L81.4214 16.8L49.7757 34.2Z" fill="url(#paint36_linear_43_684)"/>
<path d="M81.4214 17.7L50.5092 34.7V35.5L81.4214 18.5L112.229 35.5V34.7L81.4214 17.7Z" fill="url(#paint37_linear_43_684)"/>
<path d="M93.4719 69C93.1576 69 92.8432 68.9 92.5289 68.8L81.3166 63.9L70.1044 68.8C69.79 68.9 69.4757 69 69.1613 69C68.5326 69 67.9039 68.7 67.4847 68.3C67.0656 67.9 66.856 67.3 66.9608 66.7L68.4278 55.1L60.1496 46.5C59.6257 46 59.4161 45.2 59.7305 44.5C59.94 43.8 60.5688 43.3 61.4071 43.1L73.4576 40.8L79.4305 30.6C79.8496 29.9 80.5831 29.5 81.3166 29.5C82.0502 29.5 82.7837 29.9 83.2028 30.6L89.1757 40.8L101.226 43.1C101.96 43.2 102.588 43.8 102.903 44.5C103.112 45.2 103.008 46 102.484 46.5L94.2055 55.1L95.6725 66.7C95.7773 67.3 95.5677 67.9 95.1485 68.3C94.7294 68.8 94.1007 69 93.4719 69Z" fill="#9B3A17"/>
<path d="M93.472 68.3C93.2624 68.3 93.0529 68.3 92.8433 68.2L81.3167 63.2L69.7901 68.2C69.5805 68.3 69.3709 68.3 69.1614 68.3C68.7422 68.3 68.4279 68.1 68.1135 67.8C67.7991 67.5 67.6943 67.1 67.7991 66.8L69.2662 54.8L60.6736 45.9C60.3592 45.5 60.2545 45 60.3592 44.6C60.5688 44.1 60.8832 43.8 61.4071 43.7L73.772 41.3L79.9544 30.8C80.164 30.4 80.688 30.1 81.2119 30.1C81.7358 30.1 82.155 30.4 82.4693 30.8L88.6518 41.3L101.017 43.7C101.541 43.8 101.96 44.1 102.065 44.6C102.169 45.1 102.065 45.6 101.75 45.9L93.1576 54.8L94.6246 66.8C94.6246 67.2 94.5199 67.6 94.3103 67.8C94.3103 68.1 93.8911 68.3 93.472 68.3Z" fill="url(#paint38_linear_43_684)"/>
<path d="M71.0475 54.2999C70.9427 53.9999 70.8379 53.6999 70.5235 53.4999L62.5597 45.1999L74.0863 42.9999C74.4006 42.8999 74.715 42.7999 74.9246 42.5999C75.1342 42.3999 81.3166 50.8999 81.3166 50.8999C81.3166 50.8999 71.1523 54.4999 71.0475 54.2999Z" fill="url(#paint39_linear_43_684)"/>
<path d="M62.6644 45.1999L74.191 42.9999C74.5054 42.8999 74.8198 42.7999 75.0293 42.5999C75.2389 42.3999 81.4213 50.8999 81.4213 50.8999L62.6644 45.1999Z" fill="url(#paint40_linear_43_684)"/>
<path d="M81.4214 61.4C81.107 61.4 80.7927 61.5 80.4783 61.6L69.79 66.3L71.1523 55.1C71.1523 54.8 71.1523 54.5 71.0475 54.3C70.9427 54 81.4214 51 81.4214 51C81.4214 51 81.7358 61.4 81.4214 61.4Z" fill="url(#paint41_linear_43_684)"/>
<path d="M69.79 66.3L71.1523 55.1C71.1523 54.8 71.1523 54.5 71.0475 54.3C70.9427 54 81.4214 51 81.4214 51L69.79 66.3Z" fill="url(#paint42_linear_43_684)"/>
<path d="M82.3646 61.6C82.0502 61.5 81.7358 61.4 81.4215 61.4C81.1071 61.4 81.4215 50.9 81.4215 50.9C81.4215 50.9 91.9002 53.9 91.7954 54.2C91.6906 54.5 91.6906 54.8 91.6906 55.1L93.0528 66.3L82.3646 61.6Z" fill="url(#paint43_linear_43_684)"/>
<path d="M81.4214 50.9C81.4214 50.9 91.9001 53.9 91.7953 54.2C91.6906 54.5 91.6906 54.8 91.6906 55.1L93.0528 66.3L81.4214 50.9Z" fill="url(#paint44_linear_43_684)"/>
<path d="M81.4214 50.8999C81.4214 50.8999 87.6038 42.3999 87.8134 42.5999C88.023 42.7999 88.3374 42.8999 88.6517 42.9999L100.178 45.1999L92.2145 53.4999C92.0049 53.6999 91.7953 53.9999 91.7953 54.2999C91.6906 54.4999 81.4214 50.8999 81.4214 50.8999Z" fill="url(#paint45_linear_43_684)"/>
<path d="M81.4214 50.8999C81.4214 50.8999 87.6038 42.3999 87.8134 42.5999C88.023 42.7999 88.3374 42.8999 88.6517 42.9999L100.178 45.1999L81.4214 50.8999Z" fill="url(#paint46_linear_43_684)"/>
<path d="M81.4214 50.9C81.4214 50.9 74.8198 42.8 75.0294 42.6C75.239 42.4 75.4485 42.2 75.6581 41.9L81.4214 32.1L87.1847 41.9C87.2895 42.2 87.4991 42.4 87.8134 42.6C88.023 42.8 81.4214 50.9 81.4214 50.9Z" fill="url(#paint47_linear_43_684)"/>
<path d="M81.4214 50.9C81.4214 50.9 74.8198 42.8 75.0294 42.6C75.239 42.4 75.4485 42.2 75.6581 41.9L81.4214 32.1V50.9Z" fill="url(#paint48_linear_43_684)"/>
<path d="M81.4213 32.2L81.3166 50.8L62.6644 45.2L81.3166 51L69.79 66.3L81.4213 51.0999L93.0527 66.3L81.5261 51L100.178 45.2L81.5261 50.8L81.4213 32.2Z" fill="url(#paint49_linear_43_684)"/>
<g style="mix-blend-mode:screen">
<path d="M120.507 28L83.3076 7.49998C82.155 6.79998 80.6879 6.79998 79.4305 7.49998L42.231 28C41.0783 28.7 40.3448 29.9 40.3448 31.2V72.2C40.3448 73.5 41.0783 74.7 42.231 75.4L79.4305 95.9C80.5831 96.6 82.0502 96.6 83.3076 95.9L120.507 75.4C121.66 74.7 122.393 73.5 122.393 72.2V31.2C122.393 29.8 121.765 28.6 120.507 28Z" fill="url(#paint50_linear_43_684)"/>
</g>
<defs>
<filter id="filter0_f_43_684" x="16" y="6" width="126" height="126" filterUnits="userSpaceOnUse" color-interpolation-filters="sRGB">
<feFlood flood-opacity="0" result="BackgroundImageFix"/>
<feBlend mode="normal" in="SourceGraphic" in2="BackgroundImageFix" result="shape"/>
<feGaussianBlur stdDeviation="12" result="effect1_foregroundBlur_43_684"/>
</filter>
<radialGradient id="paint0_radial_43_684" cx="0" cy="0" r="1" gradientUnits="userSpaceOnUse" gradientTransform="translate(79 79) rotate(90) scale(79)">
<stop stop-color="white"/>
<stop offset="1" stop-color="white" stop-opacity="0"/>
</radialGradient>
<linearGradient id="paint1_linear_43_684" x1="28.7248" y1="19.5535" x2="43.3956" y2="30.3613" gradientUnits="userSpaceOnUse">
<stop stop-color="#FFF200"/>
<stop offset="0.7389" stop-color="#FF9900"/>
<stop offset="0.824" stop-color="#FC8D00"/>
<stop offset="0.9759" stop-color="#F36F00"/>
<stop offset="1" stop-color="#F26900"/>
</linearGradient>
<linearGradient id="paint2_linear_43_684" x1="29.2277" y1="18.2519" x2="49.5431" y2="25.4238" gradientUnits="userSpaceOnUse">
<stop stop-color="#FFFF56"/>
<stop offset="0.1288" stop-color="#FFF200"/>
<stop offset="0.3904" stop-color="#FFEF00"/>
<stop offset="0.5577" stop-color="#FFE700"/>
<stop offset="0.6985" stop-color="#FFD800"/>
<stop offset="0.8246" stop-color="#FFC300"/>
<stop offset="0.9398" stop-color="#FFA800"/>
<stop offset="0.9937" stop-color="#FF9900"/>
</linearGradient>
<linearGradient id="paint3_linear_43_684" x1="30.9857" y1="21.0703" x2="44.1889" y2="30.7969" gradientUnits="userSpaceOnUse">
<stop stop-color="#FFC400"/>
<stop offset="0.7068" stop-color="#FF7700"/>
</linearGradient>
<linearGradient id="paint4_linear_43_684" x1="27.0211" y1="28.6221" x2="41.1128" y2="47.1746" gradientUnits="userSpaceOnUse">
<stop stop-color="#FFF200"/>
<stop offset="0.7389" stop-color="#FF9900"/>
<stop offset="0.824" stop-color="#FC8D00"/>
<stop offset="0.9759" stop-color="#F36F00"/>
<stop offset="1" stop-color="#F26900"/>
</linearGradient>
<linearGradient id="paint5_linear_43_684" x1="30.445" y1="25.8392" x2="37.8827" y2="35.6314" gradientUnits="userSpaceOnUse">
<stop stop-color="#FFFF56"/>
<stop offset="0.1288" stop-color="#FFF200"/>
<stop offset="0.3904" stop-color="#FFEF00"/>
<stop offset="0.5577" stop-color="#FFE700"/>
<stop offset="0.6985" stop-color="#FFD800"/>
<stop offset="0.8246" stop-color="#FFC300"/>
<stop offset="0.9398" stop-color="#FFA800"/>
<stop offset="0.9937" stop-color="#FF9900"/>
</linearGradient>
<linearGradient id="paint6_linear_43_684" x1="27.8109" y1="34.8343" x2="41.1736" y2="47.5073" gradientUnits="userSpaceOnUse">
<stop stop-color="#FFC400"/>
<stop offset="0.7068" stop-color="#FF7700"/>
</linearGradient>
<linearGradient id="paint7_linear_43_684" x1="22.2749" y1="41.938" x2="42.409" y2="61.9872" gradientUnits="userSpaceOnUse">
<stop offset="0.084759" stop-color="#FFF200"/>
<stop offset="0.7389" stop-color="#FF9900"/>
<stop offset="0.824" stop-color="#FC8D00"/>
<stop offset="0.9759" stop-color="#F36F00"/>
<stop offset="1" stop-color="#F26900"/>
</linearGradient>
<linearGradient id="paint8_linear_43_684" x1="30.9214" y1="35.8319" x2="36.041" y2="47.5771" gradientUnits="userSpaceOnUse">
<stop stop-color="#FFFF56"/>
<stop offset="0.2459" stop-color="#FFF200"/>
<stop offset="0.4721" stop-color="#FFEF00"/>
<stop offset="0.6167" stop-color="#FFE700"/>
<stop offset="0.7385" stop-color="#FFD800"/>
<stop offset="0.8475" stop-color="#FFC300"/>
<stop offset="0.9471" stop-color="#FFA800"/>
<stop offset="0.9937" stop-color="#FF9900"/>
</linearGradient>
<linearGradient id="paint9_linear_43_684" x1="31.7047" y1="40.6852" x2="37.8881" y2="52.9182" gradientUnits="userSpaceOnUse">
<stop stop-color="#FFC400"/>
<stop offset="0.7068" stop-color="#FF7700"/>
</linearGradient>
<linearGradient id="paint10_linear_43_684" x1="53.3966" y1="10.6833" x2="57.4869" y2="17.3166" gradientUnits="userSpaceOnUse">
<stop stop-color="#FFF200"/>
<stop offset="0.7389" stop-color="#FF9900"/>
<stop offset="0.824" stop-color="#FC8D00"/>
<stop offset="0.9759" stop-color="#F36F00"/>
<stop offset="1" stop-color="#F26900"/>
</linearGradient>
<linearGradient id="paint11_linear_43_684" x1="53.3965" y1="10.6832" x2="57.4869" y2="17.3167" gradientUnits="userSpaceOnUse">
<stop stop-color="#FFFF56"/>
<stop offset="0.1288" stop-color="#FFF200"/>
<stop offset="0.3904" stop-color="#FFEF00"/>
<stop offset="0.5577" stop-color="#FFE700"/>
<stop offset="0.6985" stop-color="#FFD800"/>
<stop offset="0.8246" stop-color="#FFC300"/>
<stop offset="0.9398" stop-color="#FFA800"/>
<stop offset="0.9937" stop-color="#FF9900"/>
</linearGradient>
<linearGradient id="paint12_linear_43_684" x1="134.032" y1="19.5535" x2="119.361" y2="30.3613" gradientUnits="userSpaceOnUse">
<stop stop-color="#FFF200"/>
<stop offset="0.7389" stop-color="#FF9900"/>
<stop offset="0.824" stop-color="#FC8D00"/>
<stop offset="0.9759" stop-color="#F36F00"/>
<stop offset="1" stop-color="#F26900"/>
</linearGradient>
<linearGradient id="paint13_linear_43_684" x1="133.529" y1="18.2519" x2="113.213" y2="25.4238" gradientUnits="userSpaceOnUse">
<stop stop-color="#FFFF56"/>
<stop offset="0.1288" stop-color="#FFF200"/>
<stop offset="0.3904" stop-color="#FFEF00"/>
<stop offset="0.5577" stop-color="#FFE700"/>
<stop offset="0.6985" stop-color="#FFD800"/>
<stop offset="0.8246" stop-color="#FFC300"/>
<stop offset="0.9398" stop-color="#FFA800"/>
<stop offset="0.9937" stop-color="#FF9900"/>
</linearGradient>
<linearGradient id="paint14_linear_43_684" x1="131.771" y1="21.0703" x2="118.568" y2="30.7969" gradientUnits="userSpaceOnUse">
<stop stop-color="#FFC400"/>
<stop offset="0.7068" stop-color="#FF7700"/>
</linearGradient>
<linearGradient id="paint15_linear_43_684" x1="135.735" y1="28.6221" x2="121.644" y2="47.1746" gradientUnits="userSpaceOnUse">
<stop stop-color="#FFF200"/>
<stop offset="0.7389" stop-color="#FF9900"/>
<stop offset="0.824" stop-color="#FC8D00"/>
<stop offset="0.9759" stop-color="#F36F00"/>
<stop offset="1" stop-color="#F26900"/>
</linearGradient>
<linearGradient id="paint16_linear_43_684" x1="132.311" y1="25.8392" x2="124.874" y2="35.6314" gradientUnits="userSpaceOnUse">
<stop stop-color="#FFFF56"/>
<stop offset="0.1288" stop-color="#FFF200"/>
<stop offset="0.3904" stop-color="#FFEF00"/>
<stop offset="0.5577" stop-color="#FFE700"/>
<stop offset="0.6985" stop-color="#FFD800"/>
<stop offset="0.8246" stop-color="#FFC300"/>
<stop offset="0.9398" stop-color="#FFA800"/>
<stop offset="0.9937" stop-color="#FF9900"/>
</linearGradient>
<linearGradient id="paint17_linear_43_684" x1="134.946" y1="34.8343" x2="121.583" y2="47.5073" gradientUnits="userSpaceOnUse">
<stop stop-color="#FFC400"/>
<stop offset="0.7068" stop-color="#FF7700"/>
</linearGradient>
<linearGradient id="paint18_linear_43_684" x1="140.482" y1="41.938" x2="120.347" y2="61.9872" gradientUnits="userSpaceOnUse">
<stop offset="0.084759" stop-color="#FFF200"/>
<stop offset="0.7389" stop-color="#FF9900"/>
<stop offset="0.824" stop-color="#FC8D00"/>
<stop offset="0.9759" stop-color="#F36F00"/>
<stop offset="1" stop-color="#F26900"/>
</linearGradient>
<linearGradient id="paint19_linear_43_684" x1="131.835" y1="35.8319" x2="126.715" y2="47.5771" gradientUnits="userSpaceOnUse">
<stop stop-color="#FFFF56"/>
<stop offset="0.2459" stop-color="#FFF200"/>
<stop offset="0.4721" stop-color="#FFEF00"/>
<stop offset="0.6167" stop-color="#FFE700"/>
<stop offset="0.7385" stop-color="#FFD800"/>
<stop offset="0.8475" stop-color="#FFC300"/>
<stop offset="0.9471" stop-color="#FFA800"/>
<stop offset="0.9937" stop-color="#FF9900"/>
</linearGradient>
<linearGradient id="paint20_linear_43_684" x1="131.052" y1="40.6852" x2="124.868" y2="52.9182" gradientUnits="userSpaceOnUse">
<stop stop-color="#FFC400"/>
<stop offset="0.7068" stop-color="#FF7700"/>
</linearGradient>
<linearGradient id="paint21_linear_43_684" x1="109.36" y1="10.6833" x2="105.27" y2="17.3166" gradientUnits="userSpaceOnUse">
<stop stop-color="#FFF200"/>
<stop offset="0.7389" stop-color="#FF9900"/>
<stop offset="0.824" stop-color="#FC8D00"/>
<stop offset="0.9759" stop-color="#F36F00"/>
<stop offset="1" stop-color="#F26900"/>
</linearGradient>
<linearGradient id="paint22_linear_43_684" x1="109.36" y1="10.6833" x2="105.27" y2="17.3167" gradientUnits="userSpaceOnUse">
<stop stop-color="#FFFF56"/>
<stop offset="0.1288" stop-color="#FFF200"/>
<stop offset="0.3904" stop-color="#FFEF00"/>
<stop offset="0.5577" stop-color="#FFE700"/>
<stop offset="0.6985" stop-color="#FFD800"/>
<stop offset="0.8246" stop-color="#FFC300"/>
<stop offset="0.9398" stop-color="#FFA800"/>
<stop offset="0.9937" stop-color="#FF9900"/>
</linearGradient>
<linearGradient id="paint23_linear_43_684" x1="74.397" y1="7.5886" x2="87.3731" y2="97.5061" gradientUnits="userSpaceOnUse">
<stop stop-color="#FFF985"/>
<stop offset="0.5031" stop-color="#EF8818"/>
<stop offset="1" stop-color="#D85F1B"/>
</linearGradient>
<linearGradient id="paint24_linear_43_684" x1="74.4871" y1="8.15698" x2="87.2958" y2="96.9144" gradientUnits="userSpaceOnUse">
<stop stop-color="#FFDE59"/>
<stop offset="0.1629" stop-color="#FFBA45"/>
<stop offset="0.7062" stop-color="#F29218"/>
<stop offset="1" stop-color="#FF8400"/>
</linearGradient>
<linearGradient id="paint25_linear_43_684" x1="74.9667" y1="11.1836" x2="87.0185" y2="94.6965" gradientUnits="userSpaceOnUse">
<stop stop-color="#FFCF57"/>
<stop offset="0.7062" stop-color="#FFAB17"/>
<stop offset="1" stop-color="#FFCD17"/>
</linearGradient>
<linearGradient id="paint26_linear_43_684" x1="75.3203" y1="13.4155" x2="86.7074" y2="92.3216" gradientUnits="userSpaceOnUse">
<stop stop-color="#FFD917"/>
<stop offset="1" stop-color="#FFEC17"/>
</linearGradient>
<linearGradient id="paint27_linear_43_684" x1="75.4088" y1="13.9736" x2="86.6296" y2="91.7281" gradientUnits="userSpaceOnUse">
<stop stop-color="#FFBD17"/>
<stop offset="0.7047" stop-color="#FF9617"/>
<stop offset="1" stop-color="#FFB217"/>
</linearGradient>
<linearGradient id="paint28_linear_43_684" x1="44.4479" y1="31.7635" x2="45.6119" y2="71.8137" gradientUnits="userSpaceOnUse">
<stop stop-color="#FF7717"/>
<stop offset="0.703" stop-color="#FF9027"/>
<stop offset="1" stop-color="#FFC927"/>
</linearGradient>
<linearGradient id="paint29_linear_43_684" x1="60.6794" y1="69.7617" x2="64.3892" y2="95.4684" gradientUnits="userSpaceOnUse">
<stop stop-color="#FFE417"/>
<stop offset="1" stop-color="#FFB217"/>
</linearGradient>
<linearGradient id="paint30_linear_43_684" x1="80.9413" y1="91.6279" x2="116.733" y2="70.4767" gradientUnits="userSpaceOnUse">
<stop stop-color="#FFF99F"/>
<stop offset="0.242" stop-color="#FFE417"/>
<stop offset="1" stop-color="#FFC117"/>
</linearGradient>
<linearGradient id="paint31_linear_43_684" x1="114.813" y1="33.0063" x2="120.427" y2="71.9087" gradientUnits="userSpaceOnUse">
<stop stop-color="#FF9B17"/>
<stop offset="0.7653" stop-color="#FF9F17"/>
<stop offset="1" stop-color="#FFDC17"/>
</linearGradient>
<linearGradient id="paint32_linear_43_684" x1="98.1298" y1="8.6199" x2="101.84" y2="34.3266" gradientUnits="userSpaceOnUse">
<stop stop-color="#FF8B17"/>
<stop offset="0.2163" stop-color="#FF6617"/>
<stop offset="1" stop-color="#FF9027"/>
</linearGradient>
<linearGradient id="paint33_linear_43_684" x1="43.5978" y1="21.2751" x2="81.4282" y2="21.2751" gradientUnits="userSpaceOnUse">
<stop stop-color="#FF9027"/>
<stop offset="1" stop-color="#F66317"/>
</linearGradient>
<linearGradient id="paint34_linear_43_684" x1="76.9555" y1="19.4877" x2="85.1156" y2="84.6368" gradientUnits="userSpaceOnUse">
<stop stop-color="#FFEB77"/>
<stop offset="0.7267" stop-color="#FFAB17"/>
<stop offset="0.841" stop-color="#FFB617"/>
<stop offset="1" stop-color="#FFCD17"/>
</linearGradient>
<linearGradient id="paint35_linear_43_684" x1="80.8625" y1="64.5321" x2="83.4517" y2="85.2046" gradientUnits="userSpaceOnUse">
<stop offset="0.2605" stop-color="#FF9F17"/>
<stop offset="1" stop-color="#FF6417"/>
</linearGradient>
<linearGradient id="paint36_linear_43_684" x1="74.6202" y1="15.5604" x2="86.8758" y2="87.4163" gradientUnits="userSpaceOnUse">
<stop stop-color="#A94E2F"/>
<stop offset="0.667" stop-color="#B15A17"/>
<stop offset="1" stop-color="#A94B2A"/>
</linearGradient>
<linearGradient id="paint37_linear_43_684" x1="79.0786" y1="18.355" x2="81.6839" y2="39.1552" gradientUnits="userSpaceOnUse">
<stop stop-color="#FFFFB5"/>
<stop offset="1" stop-color="#FFE049"/>
</linearGradient>
<linearGradient id="paint38_linear_43_684" x1="60.465" y1="49.2097" x2="102.35" y2="49.2097" gradientUnits="userSpaceOnUse">
<stop stop-color="#A94E2F"/>
<stop offset="0.667" stop-color="#B15A17"/>
<stop offset="1" stop-color="#A94B2A"/>
</linearGradient>
<linearGradient id="paint39_linear_43_684" x1="62.6145" y1="48.4413" x2="81.4077" y2="48.4413" gradientUnits="userSpaceOnUse">
<stop stop-color="#FFAB17"/>
<stop offset="1" stop-color="#FFEB77"/>
</linearGradient>
<linearGradient id="paint40_linear_43_684" x1="62.7951" y1="45.1805" x2="81.458" y2="47.2974" gradientUnits="userSpaceOnUse">
<stop stop-color="#FFE049"/>
<stop offset="1" stop-color="#FFFFB5"/>
</linearGradient>
<linearGradient id="paint41_linear_43_684" x1="68.9901" y1="65.3573" x2="80.3164" y2="52.4291" gradientUnits="userSpaceOnUse">
<stop stop-color="#FF9C27"/>
<stop offset="1" stop-color="#FF6617"/>
</linearGradient>
<linearGradient id="paint42_linear_43_684" x1="76.1613" y1="52.7983" x2="71.2593" y2="66.77" gradientUnits="userSpaceOnUse">
<stop stop-color="#FFAB17"/>
<stop offset="1" stop-color="#FFFF77"/>
</linearGradient>
<linearGradient id="paint43_linear_43_684" x1="81.8409" y1="53.4538" x2="93.035" y2="64.7204" gradientUnits="userSpaceOnUse">
<stop stop-color="#FF9027"/>
<stop offset="1" stop-color="#FF6617"/>
</linearGradient>
<linearGradient id="paint44_linear_43_684" x1="85.4789" y1="50.8338" x2="94.0255" y2="65.6212" gradientUnits="userSpaceOnUse">
<stop stop-color="#FFA417"/>
<stop offset="0.6579" stop-color="#FFBF30"/>
<stop offset="1" stop-color="#FFE630"/>
</linearGradient>
<linearGradient id="paint45_linear_43_684" x1="80.8498" y1="50.6107" x2="101.387" y2="45.0642" gradientUnits="userSpaceOnUse">
<stop stop-color="#FF6617"/>
<stop offset="1" stop-color="#FF8027"/>
</linearGradient>
<linearGradient id="paint46_linear_43_684" x1="82.9754" y1="47.1084" x2="98.5328" y2="43.5663" gradientUnits="userSpaceOnUse">
<stop stop-color="#FFFF77"/>
<stop offset="1" stop-color="#FFAB17"/>
</linearGradient>
<linearGradient id="paint47_linear_43_684" x1="80.1282" y1="32.757" x2="82.0707" y2="49.2451" gradientUnits="userSpaceOnUse">
<stop stop-color="#FFAB17"/>
<stop offset="1" stop-color="#FFCF57"/>
</linearGradient>
<linearGradient id="paint48_linear_43_684" x1="79.608" y1="31.0593" x2="78.055" y2="50.1802" gradientUnits="userSpaceOnUse">
<stop offset="0.2087" stop-color="#FFFFA1"/>
<stop offset="1" stop-color="#FFAB17"/>
</linearGradient>
<linearGradient id="paint49_linear_43_684" x1="79.3897" y1="38.7664" x2="86.2768" y2="62.8123" gradientUnits="userSpaceOnUse">
<stop stop-color="white"/>
<stop offset="0.6895" stop-color="#FFEF17"/>
<stop offset="1" stop-color="#FFD217"/>
</linearGradient>
<linearGradient id="paint50_linear_43_684" x1="74.6671" y1="9.29318" x2="79.82" y2="44.9997" gradientUnits="userSpaceOnUse">
<stop stop-color="#FFA65E"/>
<stop offset="0.1695" stop-color="#C68149"/>
<stop offset="0.3964" stop-color="#81542F"/>
<stop offset="0.6013" stop-color="#49301B"/>
<stop offset="0.7765" stop-color="#21160C"/>
<stop offset="0.9151" stop-color="#090603"/>
<stop offset="1"/>
</linearGradient>
</defs>
</svg>
