<svg width="158" height="158" viewBox="0 0 158 158" fill="none" xmlns="http://www.w3.org/2000/svg">
<g style="mix-blend-mode:overlay" filter="url(#filter0_f_43_905)">
<circle cx="80" cy="69" r="39" fill="#FF8501"/>
</g>
<g style="mix-blend-mode:overlay">
<path fill-rule="evenodd" clip-rule="evenodd" d="M89.3452 0H68.6548L77.6802 75.8139L30.4537 15.8234L15.8233 30.4538L75.8136 77.6802L0 68.6548V89.3452L75.8138 80.3198L15.8235 127.546L30.4538 142.177L77.6802 82.1864L68.6548 158H89.3452L80.3198 82.1864L127.546 142.177L142.177 127.546L82.1861 80.3198L158 89.3452V68.6548L82.1864 77.6802L142.177 30.4538L127.546 15.8234L80.3198 75.8139L89.3452 0Z" fill="url(#paint0_radial_43_905)"/>
</g>
<path d="M56.9969 19.9L30.2762 15C26.3991 14.3 23.5698 18.4 25.7703 21.5L41.0693 43.1L56.9969 19.9Z" fill="url(#paint1_linear_43_905)"/>
<path d="M30.2762 15.5001L56.7874 20.3001L57.1017 19.9001L30.381 15.0001C27.3421 14.4001 24.932 16.9001 25.1416 19.5001C25.1416 17.1001 27.4469 14.9001 30.2762 15.5001Z" fill="url(#paint2_linear_43_905)"/>
<path d="M56.9969 19.9L43.8985 17.5C43.8985 17.5 40.8596 19.1 37.6112 21C33.9437 23.1 34.1532 26.4 34.1532 26.4C31.5336 25.1 29.9618 24 25.7703 21.5L41.0692 43.1L56.9969 19.9Z" fill="url(#paint3_linear_43_905)"/>
<path d="M44.8416 35.3L28.1804 24.4C26.6086 23.4 24.7224 24.9 25.4559 26.6L38.3448 55.6L44.8416 35.3Z" fill="url(#paint4_linear_43_905)"/>
<path d="M28.1805 24.8L44.7368 35.7L44.8416 35.3L28.1805 24.4C26.8182 23.5 25.0368 24.7 25.2464 26.1C25.456 24.9 26.923 24 28.1805 24.8Z" fill="url(#paint5_linear_43_905)"/>
<path d="M44.8415 35.3L34.5724 28.6V38L27.7612 31.8L38.3447 55.5L44.8415 35.3Z" fill="url(#paint6_linear_43_905)"/>
<path d="M44.0034 47.4001C43.4794 47.3001 34.9917 39.1001 29.1236 33.5001C27.8661 32.2001 25.6656 33.5001 26.1895 35.2001L37.9257 68.2001L44.0034 47.4001Z" fill="url(#paint7_linear_43_905)"/>
<path d="M29.1235 33.6C28.0756 32.6 26.5038 33.2 26.1895 34.4C26.7134 33.5 28.0756 33.2 28.9139 34C34.6772 39.6 43.2698 47.8 43.7937 47.9L37.9256 68.2V68.3L43.8985 47.5C43.4793 47.3 34.8868 39.2 29.1235 33.6Z" fill="url(#paint8_linear_43_905)"/>
<path d="M44.0032 47.3999C43.6889 47.2999 39.183 43.1 34.4676 38.7C34.4676 42 34.3628 58.0999 34.3628 58.0999L38.0303 68.3L44.0032 47.3999Z" fill="url(#paint9_linear_43_905)"/>
<path d="M47.5662 21L47.147 13.5C46.9374 10.8 49.3475 8.59999 52.072 8.79999L65.9039 9.79999L47.5662 21Z" fill="url(#paint10_linear_43_905)"/>
<path d="M47.1468 14C46.9373 11.3 49.3474 9.10002 52.0718 9.30002L65.0655 10.2L65.799 9.70002L51.9671 8.70002C49.1378 8.50002 46.8325 10.7 47.0421 13.4L47.4612 20.9L47.1468 14Z" fill="url(#paint11_linear_43_905)"/>
<path d="M47.5661 21L47.2517 15.8L59.1975 9.40002L65.9038 9.80003L47.5661 21Z" fill="#FF8A00"/>
<path d="M101.846 19.9L128.567 15C132.444 14.3 135.273 18.4 133.073 21.5L117.774 43.1L101.846 19.9Z" fill="url(#paint12_linear_43_905)"/>
<path d="M128.671 15.5001L102.16 20.3001L101.846 19.9001L128.567 15.0001C131.606 14.4001 134.016 16.9001 133.806 19.5001C133.806 17.1001 131.501 14.9001 128.671 15.5001Z" fill="url(#paint13_linear_43_905)"/>
<path d="M101.846 19.9L114.944 17.5C114.944 17.5 117.983 19.1 121.232 21C124.899 23.1 124.69 26.4 124.69 26.4C127.309 25.1 128.881 24 133.073 21.5L117.774 43.1L101.846 19.9Z" fill="url(#paint14_linear_43_905)"/>
<path d="M114.106 35.3L130.767 24.4C132.339 23.4 134.225 24.9 133.492 26.6L120.603 55.6L114.106 35.3Z" fill="url(#paint15_linear_43_905)"/>
<path d="M130.767 24.8L114.211 35.7L114.106 35.3L130.767 24.4C132.129 23.5 133.911 24.7 133.701 26.1C133.492 24.9 131.92 24 130.767 24.8Z" fill="url(#paint16_linear_43_905)"/>
<path d="M114.106 35.3L124.375 28.6V38L131.186 31.8L120.603 55.5L114.106 35.3Z" fill="url(#paint17_linear_43_905)"/>
<path d="M114.944 47.4001C115.468 47.3001 123.956 39.1001 129.824 33.5001C131.082 32.2001 133.282 33.5001 132.758 35.2001L121.022 68.2001L114.944 47.4001Z" fill="url(#paint18_linear_43_905)"/>
<path d="M129.824 33.6C130.872 32.6 132.444 33.2 132.758 34.4C132.234 33.5 130.872 33.2 130.034 34C124.27 39.6 115.678 47.8 115.154 47.9L121.022 68.2V68.3L115.049 47.5C115.468 47.3 123.956 39.2 129.824 33.6Z" fill="url(#paint19_linear_43_905)"/>
<path d="M114.944 47.3999C115.259 47.2999 119.765 43.1 124.48 38.7C124.48 42 124.585 58.0999 124.585 58.0999L120.917 68.3L114.944 47.3999Z" fill="url(#paint20_linear_43_905)"/>
<path d="M111.381 21L111.801 13.5C112.01 10.8 109.6 8.59999 106.876 8.79999L93.0437 9.79999L111.381 21Z" fill="url(#paint21_linear_43_905)"/>
<path d="M111.696 14C111.905 11.3 109.495 9.10002 106.771 9.30002L93.7772 10.2L93.0437 9.70002L106.876 8.70002C109.705 8.50002 112.01 10.7 111.801 13.4L111.381 20.9L111.696 14Z" fill="url(#paint22_linear_43_905)"/>
<path d="M111.381 21L111.696 15.8L99.7501 9.40002L93.0437 9.80003L111.381 21Z" fill="#FF8A00"/>
<path d="M79.4214 96.4C78.164 96.4 77.0113 96.1 75.8587 95.5L38.6592 75C36.4587 73.8 35.0964 71.6 35.0964 69.2V28.2C35.0964 25.8 36.4587 23.6 38.6592 22.4L75.8587 1.89999C76.9065 1.29999 78.164 1 79.4214 1C80.6789 1 81.8316 1.29999 82.9842 1.89999L120.184 22.4C122.384 23.6 123.746 25.8 123.746 28.2V69.2C123.746 71.6 122.384 73.8 120.184 75L82.9842 95.5C81.9363 96.1 80.6789 96.4 79.4214 96.4Z" fill="url(#paint23_linear_43_905)"/>
<path d="M79.4214 95.8C78.2687 95.8 77.2208 95.5 76.173 95L38.9735 74.5C36.9825 73.4 35.7251 71.4 35.7251 69.2V28.2C35.7251 26 36.9825 24 38.9735 22.9L76.173 2.39997C77.1161 1.89997 78.2687 1.59998 79.4214 1.59998C80.574 1.59998 81.6219 1.89997 82.6698 2.39997L119.869 22.9C121.86 24 123.118 26 123.118 28.2V69.2C123.118 71.4 121.86 73.4 119.869 74.5L82.6698 95C81.7267 95.5 80.574 95.8 79.4214 95.8Z" fill="url(#paint24_linear_43_905)"/>
<path d="M79.4213 93.9C78.6878 93.9 77.8495 93.7001 77.2208 93.3001L40.0213 72.8001C38.6591 72.0001 37.8208 70.6 37.8208 69.1V28.1C37.8208 26.6 38.6591 25.2 40.0213 24.4L77.2208 3.90005C77.8495 3.50005 78.6878 3.30005 79.4213 3.30005C80.1548 3.30005 80.9931 3.50005 81.6219 3.90005L118.821 24.4C120.184 25.2 121.022 26.6 121.022 28.1V69.1C121.022 70.6 120.184 72.0001 118.821 72.8001L81.6219 93.3001C80.9931 93.7001 80.2596 93.9 79.4213 93.9Z" fill="#C0561A"/>
<path d="M118.612 25L81.4122 4.49998C80.2596 3.79998 78.7925 3.79998 77.5351 4.49998L40.3356 25C39.183 25.7 38.4495 26.9 38.4495 28.2V69.2C38.4495 70.5 39.183 71.7 40.3356 72.4L77.5351 92.9C78.6878 93.6 80.1548 93.6 81.4122 92.9L118.612 72.4C119.764 71.7 120.498 70.5 120.498 69.2V28.2C120.498 26.8 119.764 25.6 118.612 25Z" fill="url(#paint25_linear_43_905)"/>
<path d="M79.4213 90.8999C79.2117 90.8999 79.0021 90.7999 78.7926 90.6999L41.5931 70.1999C41.1739 69.9999 40.9644 69.5999 40.9644 69.0999V28.0999C40.9644 27.6999 41.1739 27.2999 41.5931 26.9999L78.7926 6.49992C79.0021 6.39992 79.2117 6.29993 79.4213 6.29993C79.6308 6.29993 79.8404 6.39992 80.05 6.49992L117.249 26.9999C117.669 27.1999 117.878 27.5999 117.878 28.0999V69.0999C117.878 69.4999 117.669 69.8999 117.249 70.1999L80.05 90.6999C79.9452 90.7999 79.7356 90.8999 79.4213 90.8999Z" fill="url(#paint26_linear_43_905)"/>
<path d="M117.04 27.6L79.8403 7.09999C79.7355 6.99999 79.6307 7 79.526 7C79.4212 7 79.3164 6.99999 79.2116 7.09999L42.0121 27.6C41.9073 27.7 41.8025 27.7 41.8025 27.8C41.6978 27.9 41.6978 28 41.6978 28.1V69.1C41.6978 69.2 41.6978 69.3 41.8025 69.4C41.9073 69.5 41.9073 69.6 42.0121 69.6L79.2116 90.1C79.3164 90.2 79.4212 90.2 79.526 90.2C79.6307 90.2 79.7355 90.2 79.8403 90.1L117.04 69.6C117.145 69.6 117.249 69.5 117.249 69.4C117.354 69.3 117.354 69.2 117.354 69.1V28.1C117.354 28 117.354 27.9 117.249 27.8C117.145 27.7 117.145 27.7 117.04 27.6ZM114.106 67.8L79.4212 86.9L44.7366 67.8V29.6L79.4212 10.5L114.106 29.6V67.8Z" fill="url(#paint27_linear_43_905)"/>
<path d="M44.7367 67.8V29.6C44.7367 29.6 41.6979 27.8 41.5931 27.9C41.4883 28 41.4883 28.1 41.4883 28.2V69.2C41.4883 69.3 41.4883 69.4 41.5931 69.5C41.6979 69.6 44.7367 67.8 44.7367 67.8Z" fill="url(#paint28_linear_43_905)"/>
<path d="M79.4212 86.8999L44.7366 67.7999C44.7366 67.7999 41.593 69.3999 41.593 69.4999C41.6978 69.5999 41.6978 69.6999 41.8026 69.6999L79.0021 90.1999C79.1068 90.2999 79.2116 90.2999 79.3164 90.2999C79.526 90.2999 79.4212 86.8999 79.4212 86.8999Z" fill="url(#paint29_linear_43_905)"/>
<path d="M114.106 67.7999L79.4213 86.8999C79.4213 86.8999 79.3165 90.2999 79.4213 90.2999C79.5261 90.2999 79.6309 90.2999 79.7357 90.1999L116.935 69.6999C117.04 69.6999 117.145 69.5999 117.145 69.4999C117.25 69.3999 114.106 67.7999 114.106 67.7999Z" fill="url(#paint30_linear_43_905)"/>
<path d="M117.25 69.5C117.354 69.4 117.354 69.3 117.354 69.2V28.2C117.354 28.1 117.354 28 117.25 27.9C117.145 27.8 114.106 29.6 114.106 29.6V67.8C114.106 67.8 117.145 69.6 117.25 69.5Z" fill="url(#paint31_linear_43_905)"/>
<path d="M79.4212 10.4L114.106 29.5C114.106 29.5 117.249 27.9 117.249 27.8C117.145 27.7 117.145 27.6 117.04 27.6L79.8404 7.09999C79.7356 6.99999 79.6308 7 79.526 7C79.3164 7 79.4212 10.4 79.4212 10.4Z" fill="url(#paint32_linear_43_905)"/>
<path d="M44.7367 29.5L79.4213 10.4C79.4213 10.4 79.5261 7 79.4213 7C79.3165 7 79.2117 6.99999 79.1069 7.09999L41.9075 27.6C41.8027 27.7 41.6979 27.7 41.6979 27.8C41.5931 27.9 44.7367 29.5 44.7367 29.5Z" fill="url(#paint33_linear_43_905)"/>
<path d="M48.6138 65.5999V31.7L79.4212 14.7L110.333 31.7V65.5999L79.4212 82.5999L48.6138 65.5999Z" fill="url(#paint34_linear_43_905)"/>
<path d="M48.6138 64.9V65.6L79.4212 82.6L110.333 65.6V64.9L79.4212 81.9L48.6138 64.9Z" fill="url(#paint35_linear_43_905)"/>
<path d="M79.4214 10.4L44.7368 29.5V67.7L79.4214 86.8L114.106 67.7V29.5L79.4214 10.4ZM110.334 65.6L79.5262 82.6L48.7187 65.6V31.6L79.5262 14.6L110.334 31.6V65.6Z" fill="#613437"/>
<path d="M45.575 67.3V29.8999L79.526 11.2L113.477 29.8999V67.3L79.526 86L45.575 67.3ZM47.8803 31.2V66L79.526 83.3999L111.172 66V31.2L79.526 13.8L47.8803 31.2Z" fill="url(#paint36_linear_43_905)"/>
<path d="M79.4212 14.7L48.6138 31.7V32.5L79.4212 15.5L110.333 32.5V31.7L79.4212 14.7Z" fill="url(#paint37_linear_43_905)"/>
<path d="M91.5767 66C91.2623 66 90.948 65.9 90.6336 65.8L79.4214 60.9L68.2091 65.8C67.8948 65.9 67.5804 66 67.2661 66C66.6373 66 66.0086 65.7 65.5895 65.3C65.1703 64.9 64.9607 64.3 65.0655 63.7L66.5325 52.1L58.2544 43.5C57.7304 43 57.5208 42.2 57.8352 41.5C58.0448 40.8 58.6735 40.3 59.5118 40.1L71.5623 37.8L77.5352 27.6C77.9543 26.9 78.6879 26.5 79.4214 26.5C80.1549 26.5 80.8884 26.9 81.3075 27.6L87.2804 37.8L99.3309 40.1C100.064 40.2 100.693 40.8 101.008 41.5C101.217 42.2 101.112 43 100.588 43.5L92.3102 52.1L93.7772 63.7C93.882 64.3 93.6724 64.9 93.2533 65.3C92.7293 65.8 92.2054 66 91.5767 66Z" fill="#613437"/>
<path d="M91.5766 65.3C91.3671 65.3 91.1575 65.3 90.9479 65.2L79.4213 60.2L67.8947 65.2C67.6851 65.3 67.4756 65.3 67.266 65.3C66.8468 65.3 66.5325 65.1 66.2181 64.8C65.9037 64.5 65.799 64.1 65.9038 63.8L67.3708 51.8L58.7782 42.9C58.4639 42.5 58.3591 42 58.4639 41.6C58.6734 41.1 58.9878 40.8 59.5117 40.7L71.8766 38.3L78.0591 27.8C78.2686 27.4 78.7926 27.1 79.3165 27.1C79.8405 27.1 80.2596 27.4 80.574 27.8L86.7564 38.3L99.1213 40.7C99.6452 40.8 100.064 41.1 100.169 41.6C100.274 42.1 100.169 42.6 99.8548 42.9L91.2623 51.8L92.7293 63.8C92.7293 64.2 92.6245 64.6 92.4149 64.8C92.3101 65.1 91.9958 65.3 91.5766 65.3Z" fill="url(#paint38_linear_43_905)"/>
<path d="M69.1521 51.2999C69.0473 50.9999 68.9425 50.6999 68.6281 50.4999L60.6643 42.1999L72.1909 39.9999C72.5053 39.8999 72.8196 39.7999 73.0292 39.5999C73.2388 39.3999 79.4212 47.8999 79.4212 47.8999C79.4212 47.8999 69.2569 51.4999 69.1521 51.2999Z" fill="url(#paint39_linear_43_905)"/>
<path d="M60.6643 42.1999L72.1909 39.9999C72.5053 39.8999 72.8196 39.7999 73.0292 39.5999C73.2388 39.3999 79.4212 47.8999 79.4212 47.8999L60.6643 42.1999Z" fill="url(#paint40_linear_43_905)"/>
<path d="M79.5259 58.4C79.2116 58.4 78.8972 58.5 78.5828 58.6L67.8945 63.3L69.2568 52.1C69.2568 51.8 69.2568 51.5 69.152 51.3C69.0472 51 79.5259 48 79.5259 48C79.5259 48 79.8403 58.4 79.5259 58.4Z" fill="url(#paint41_linear_43_905)"/>
<path d="M67.8945 63.3L69.2568 52.1C69.2568 51.8 69.2568 51.5 69.152 51.3C69.0472 51 79.5259 48 79.5259 48L67.8945 63.3Z" fill="url(#paint42_linear_43_905)"/>
<path d="M80.3643 58.6C80.0499 58.5 79.7356 58.4 79.4212 58.4C79.1068 58.4 79.4212 47.9 79.4212 47.9C79.4212 47.9 89.8999 50.9 89.7952 51.2C89.6904 51.5 89.6904 51.8 89.6904 52.1L91.0526 63.3L80.3643 58.6Z" fill="url(#paint43_linear_43_905)"/>
<path d="M79.5261 47.9C79.5261 47.9 90.0048 50.9 89.9001 51.2C89.7953 51.5 89.7953 51.8 89.7953 52.1L91.1575 63.3L79.5261 47.9Z" fill="url(#paint44_linear_43_905)"/>
<path d="M79.5261 47.8999C79.5261 47.8999 85.7086 39.3999 85.9181 39.5999C86.1277 39.7999 86.4421 39.8999 86.7564 39.9999L98.283 42.1999L90.3192 50.4999C90.1096 50.6999 89.9001 50.9999 89.9001 51.2999C89.7953 51.4999 79.5261 47.8999 79.5261 47.8999Z" fill="url(#paint45_linear_43_905)"/>
<path d="M79.5261 47.8999C79.5261 47.8999 85.7086 39.3999 85.9181 39.5999C86.1277 39.7999 86.4421 39.8999 86.7564 39.9999L98.283 42.1999L79.5261 47.8999Z" fill="url(#paint46_linear_43_905)"/>
<path d="M79.5261 47.9C79.5261 47.9 72.9245 39.8 73.134 39.6C73.3436 39.4 73.5532 39.2 73.7628 38.9L79.5261 29.1L85.2894 38.9C85.3941 39.2 85.6037 39.4 85.9181 39.6C86.1277 39.8 79.5261 47.9 79.5261 47.9Z" fill="url(#paint47_linear_43_905)"/>
<path d="M79.5261 47.9C79.5261 47.9 72.9245 39.8 73.134 39.6C73.3436 39.4 73.5532 39.2 73.7628 38.9L79.5261 29.1V47.9Z" fill="url(#paint48_linear_43_905)"/>
<path d="M79.526 29.2L79.4212 47.8L60.6643 42.2L79.3164 48L67.8946 63.3L79.526 48.0999L91.1574 63.3L79.6308 48L98.2829 42.2L79.6308 47.8L79.526 29.2Z" fill="url(#paint49_linear_43_905)"/>
<g style="mix-blend-mode:screen">
<path d="M118.612 25L81.4122 4.49998C80.2596 3.79998 78.7925 3.79998 77.5351 4.49998L40.3356 25C39.183 25.7 38.4495 26.9 38.4495 28.2V69.2C38.4495 70.5 39.183 71.7 40.3356 72.4L77.5351 92.9C78.6878 93.6 80.1548 93.6 81.4122 92.9L118.612 72.4C119.764 71.7 120.498 70.5 120.498 69.2V28.2C120.498 26.8 119.764 25.6 118.612 25Z" fill="url(#paint50_linear_43_905)"/>
</g>
<defs>
<filter id="filter0_f_43_905" x="17" y="6" width="126" height="126" filterUnits="userSpaceOnUse" color-interpolation-filters="sRGB">
<feFlood flood-opacity="0" result="BackgroundImageFix"/>
<feBlend mode="normal" in="SourceGraphic" in2="BackgroundImageFix" result="shape"/>
<feGaussianBlur stdDeviation="12" result="effect1_foregroundBlur_43_905"/>
</filter>
<radialGradient id="paint0_radial_43_905" cx="0" cy="0" r="1" gradientUnits="userSpaceOnUse" gradientTransform="translate(79 79) rotate(90) scale(79)">
<stop stop-color="white"/>
<stop offset="1" stop-color="white" stop-opacity="0"/>
</radialGradient>
<linearGradient id="paint1_linear_43_905" x1="26.8112" y1="16.5535" x2="41.4819" y2="27.3613" gradientUnits="userSpaceOnUse">
<stop stop-color="#FFF200"/>
<stop offset="0.7389" stop-color="#FF9900"/>
<stop offset="0.824" stop-color="#FC8D00"/>
<stop offset="0.9759" stop-color="#F36F00"/>
<stop offset="1" stop-color="#F26900"/>
</linearGradient>
<linearGradient id="paint2_linear_43_905" x1="27.314" y1="15.2519" x2="47.6294" y2="22.4238" gradientUnits="userSpaceOnUse">
<stop stop-color="#FFFF56"/>
<stop offset="0.1288" stop-color="#FFF200"/>
<stop offset="0.3904" stop-color="#FFEF00"/>
<stop offset="0.5577" stop-color="#FFE700"/>
<stop offset="0.6985" stop-color="#FFD800"/>
<stop offset="0.8246" stop-color="#FFC300"/>
<stop offset="0.9398" stop-color="#FFA800"/>
<stop offset="0.9937" stop-color="#FF9900"/>
</linearGradient>
<linearGradient id="paint3_linear_43_905" x1="29.0719" y1="18.0703" x2="42.2751" y2="27.7969" gradientUnits="userSpaceOnUse">
<stop stop-color="#FFC400"/>
<stop offset="0.7068" stop-color="#FF7700"/>
</linearGradient>
<linearGradient id="paint4_linear_43_905" x1="25.1074" y1="25.6221" x2="39.1991" y2="44.1746" gradientUnits="userSpaceOnUse">
<stop stop-color="#FFF200"/>
<stop offset="0.7389" stop-color="#FF9900"/>
<stop offset="0.824" stop-color="#FC8D00"/>
<stop offset="0.9759" stop-color="#F36F00"/>
<stop offset="1" stop-color="#F26900"/>
</linearGradient>
<linearGradient id="paint5_linear_43_905" x1="28.5314" y1="22.8392" x2="35.9691" y2="32.6314" gradientUnits="userSpaceOnUse">
<stop stop-color="#FFFF56"/>
<stop offset="0.1288" stop-color="#FFF200"/>
<stop offset="0.3904" stop-color="#FFEF00"/>
<stop offset="0.5577" stop-color="#FFE700"/>
<stop offset="0.6985" stop-color="#FFD800"/>
<stop offset="0.8246" stop-color="#FFC300"/>
<stop offset="0.9398" stop-color="#FFA800"/>
<stop offset="0.9937" stop-color="#FF9900"/>
</linearGradient>
<linearGradient id="paint6_linear_43_905" x1="25.8972" y1="31.8343" x2="39.2599" y2="44.5073" gradientUnits="userSpaceOnUse">
<stop stop-color="#FFC400"/>
<stop offset="0.7068" stop-color="#FF7700"/>
</linearGradient>
<linearGradient id="paint7_linear_43_905" x1="20.3613" y1="38.938" x2="40.4954" y2="58.9872" gradientUnits="userSpaceOnUse">
<stop offset="0.084759" stop-color="#FFF200"/>
<stop offset="0.7389" stop-color="#FF9900"/>
<stop offset="0.824" stop-color="#FC8D00"/>
<stop offset="0.9759" stop-color="#F36F00"/>
<stop offset="1" stop-color="#F26900"/>
</linearGradient>
<linearGradient id="paint8_linear_43_905" x1="29.0077" y1="32.8319" x2="34.1273" y2="44.5771" gradientUnits="userSpaceOnUse">
<stop stop-color="#FFFF56"/>
<stop offset="0.2459" stop-color="#FFF200"/>
<stop offset="0.4721" stop-color="#FFEF00"/>
<stop offset="0.6167" stop-color="#FFE700"/>
<stop offset="0.7385" stop-color="#FFD800"/>
<stop offset="0.8475" stop-color="#FFC300"/>
<stop offset="0.9471" stop-color="#FFA800"/>
<stop offset="0.9937" stop-color="#FF9900"/>
</linearGradient>
<linearGradient id="paint9_linear_43_905" x1="29.791" y1="37.6852" x2="35.9744" y2="49.9182" gradientUnits="userSpaceOnUse">
<stop stop-color="#FFC400"/>
<stop offset="0.7068" stop-color="#FF7700"/>
</linearGradient>
<linearGradient id="paint10_linear_43_905" x1="51.4829" y1="7.68329" x2="55.5733" y2="14.3166" gradientUnits="userSpaceOnUse">
<stop stop-color="#FFF200"/>
<stop offset="0.7389" stop-color="#FF9900"/>
<stop offset="0.824" stop-color="#FC8D00"/>
<stop offset="0.9759" stop-color="#F36F00"/>
<stop offset="1" stop-color="#F26900"/>
</linearGradient>
<linearGradient id="paint11_linear_43_905" x1="51.4827" y1="7.68332" x2="55.5731" y2="14.3167" gradientUnits="userSpaceOnUse">
<stop stop-color="#FFFF56"/>
<stop offset="0.1288" stop-color="#FFF200"/>
<stop offset="0.3904" stop-color="#FFEF00"/>
<stop offset="0.5577" stop-color="#FFE700"/>
<stop offset="0.6985" stop-color="#FFD800"/>
<stop offset="0.8246" stop-color="#FFC300"/>
<stop offset="0.9398" stop-color="#FFA800"/>
<stop offset="0.9937" stop-color="#FF9900"/>
</linearGradient>
<linearGradient id="paint12_linear_43_905" x1="132.118" y1="16.5535" x2="117.447" y2="27.3613" gradientUnits="userSpaceOnUse">
<stop stop-color="#FFF200"/>
<stop offset="0.7389" stop-color="#FF9900"/>
<stop offset="0.824" stop-color="#FC8D00"/>
<stop offset="0.9759" stop-color="#F36F00"/>
<stop offset="1" stop-color="#F26900"/>
</linearGradient>
<linearGradient id="paint13_linear_43_905" x1="131.615" y1="15.2519" x2="111.3" y2="22.4238" gradientUnits="userSpaceOnUse">
<stop stop-color="#FFFF56"/>
<stop offset="0.1288" stop-color="#FFF200"/>
<stop offset="0.3904" stop-color="#FFEF00"/>
<stop offset="0.5577" stop-color="#FFE700"/>
<stop offset="0.6985" stop-color="#FFD800"/>
<stop offset="0.8246" stop-color="#FFC300"/>
<stop offset="0.9398" stop-color="#FFA800"/>
<stop offset="0.9937" stop-color="#FF9900"/>
</linearGradient>
<linearGradient id="paint14_linear_43_905" x1="129.857" y1="18.0703" x2="116.654" y2="27.7969" gradientUnits="userSpaceOnUse">
<stop stop-color="#FFC400"/>
<stop offset="0.7068" stop-color="#FF7700"/>
</linearGradient>
<linearGradient id="paint15_linear_43_905" x1="133.822" y1="25.6221" x2="119.73" y2="44.1746" gradientUnits="userSpaceOnUse">
<stop stop-color="#FFF200"/>
<stop offset="0.7389" stop-color="#FF9900"/>
<stop offset="0.824" stop-color="#FC8D00"/>
<stop offset="0.9759" stop-color="#F36F00"/>
<stop offset="1" stop-color="#F26900"/>
</linearGradient>
<linearGradient id="paint16_linear_43_905" x1="130.398" y1="22.8392" x2="122.96" y2="32.6314" gradientUnits="userSpaceOnUse">
<stop stop-color="#FFFF56"/>
<stop offset="0.1288" stop-color="#FFF200"/>
<stop offset="0.3904" stop-color="#FFEF00"/>
<stop offset="0.5577" stop-color="#FFE700"/>
<stop offset="0.6985" stop-color="#FFD800"/>
<stop offset="0.8246" stop-color="#FFC300"/>
<stop offset="0.9398" stop-color="#FFA800"/>
<stop offset="0.9937" stop-color="#FF9900"/>
</linearGradient>
<linearGradient id="paint17_linear_43_905" x1="133.032" y1="31.8343" x2="119.669" y2="44.5073" gradientUnits="userSpaceOnUse">
<stop stop-color="#FFC400"/>
<stop offset="0.7068" stop-color="#FF7700"/>
</linearGradient>
<linearGradient id="paint18_linear_43_905" x1="138.568" y1="38.938" x2="118.434" y2="58.9872" gradientUnits="userSpaceOnUse">
<stop offset="0.084759" stop-color="#FFF200"/>
<stop offset="0.7389" stop-color="#FF9900"/>
<stop offset="0.824" stop-color="#FC8D00"/>
<stop offset="0.9759" stop-color="#F36F00"/>
<stop offset="1" stop-color="#F26900"/>
</linearGradient>
<linearGradient id="paint19_linear_43_905" x1="129.921" y1="32.8319" x2="124.802" y2="44.5771" gradientUnits="userSpaceOnUse">
<stop stop-color="#FFFF56"/>
<stop offset="0.2459" stop-color="#FFF200"/>
<stop offset="0.4721" stop-color="#FFEF00"/>
<stop offset="0.6167" stop-color="#FFE700"/>
<stop offset="0.7385" stop-color="#FFD800"/>
<stop offset="0.8475" stop-color="#FFC300"/>
<stop offset="0.9471" stop-color="#FFA800"/>
<stop offset="0.9937" stop-color="#FF9900"/>
</linearGradient>
<linearGradient id="paint20_linear_43_905" x1="129.138" y1="37.6852" x2="122.955" y2="49.9182" gradientUnits="userSpaceOnUse">
<stop stop-color="#FFC400"/>
<stop offset="0.7068" stop-color="#FF7700"/>
</linearGradient>
<linearGradient id="paint21_linear_43_905" x1="107.446" y1="7.68329" x2="103.356" y2="14.3166" gradientUnits="userSpaceOnUse">
<stop stop-color="#FFF200"/>
<stop offset="0.7389" stop-color="#FF9900"/>
<stop offset="0.824" stop-color="#FC8D00"/>
<stop offset="0.9759" stop-color="#F36F00"/>
<stop offset="1" stop-color="#F26900"/>
</linearGradient>
<linearGradient id="paint22_linear_43_905" x1="107.446" y1="7.68322" x2="103.356" y2="14.3167" gradientUnits="userSpaceOnUse">
<stop stop-color="#FFFF56"/>
<stop offset="0.1288" stop-color="#FFF200"/>
<stop offset="0.3904" stop-color="#FFEF00"/>
<stop offset="0.5577" stop-color="#FFE700"/>
<stop offset="0.6985" stop-color="#FFD800"/>
<stop offset="0.8246" stop-color="#FFC300"/>
<stop offset="0.9398" stop-color="#FFA800"/>
<stop offset="0.9937" stop-color="#FF9900"/>
</linearGradient>
<linearGradient id="paint23_linear_43_905" x1="72.4834" y1="4.5886" x2="85.4594" y2="94.5061" gradientUnits="userSpaceOnUse">
<stop stop-color="#FFF985"/>
<stop offset="0.5031" stop-color="#EF8818"/>
<stop offset="1" stop-color="#D85F1B"/>
</linearGradient>
<linearGradient id="paint24_linear_43_905" x1="72.5733" y1="5.15698" x2="85.382" y2="93.9144" gradientUnits="userSpaceOnUse">
<stop stop-color="#FFDE59"/>
<stop offset="0.1629" stop-color="#FFBA45"/>
<stop offset="0.7062" stop-color="#F29218"/>
<stop offset="1" stop-color="#FF8400"/>
</linearGradient>
<linearGradient id="paint25_linear_43_905" x1="73.0528" y1="8.18358" x2="85.1047" y2="91.6965" gradientUnits="userSpaceOnUse">
<stop stop-color="#CF9A84"/>
<stop offset="0.7062" stop-color="#AD5E37"/>
<stop offset="1" stop-color="#7D423F"/>
</linearGradient>
<linearGradient id="paint26_linear_43_905" x1="73.4065" y1="10.4155" x2="84.7936" y2="89.3216" gradientUnits="userSpaceOnUse">
<stop stop-color="#BF8661"/>
<stop offset="1" stop-color="#BD846B"/>
</linearGradient>
<linearGradient id="paint27_linear_43_905" x1="73.4948" y1="10.9736" x2="84.7156" y2="88.7281" gradientUnits="userSpaceOnUse">
<stop stop-color="#B36135"/>
<stop offset="0.7047" stop-color="#A05839"/>
<stop offset="1" stop-color="#B06036"/>
</linearGradient>
<linearGradient id="paint28_linear_43_905" x1="42.534" y1="28.7635" x2="43.698" y2="68.8137" gradientUnits="userSpaceOnUse">
<stop stop-color="#8E483D"/>
<stop offset="0.703" stop-color="#9E583C"/>
<stop offset="1" stop-color="#B76436"/>
</linearGradient>
<linearGradient id="paint29_linear_43_905" x1="58.7656" y1="66.7617" x2="62.4753" y2="92.4684" gradientUnits="userSpaceOnUse">
<stop stop-color="#CC8A60"/>
<stop offset="1" stop-color="#B06036"/>
</linearGradient>
<linearGradient id="paint30_linear_43_905" x1="79.0275" y1="88.6279" x2="114.819" y2="67.4767" gradientUnits="userSpaceOnUse">
<stop stop-color="#CBA395"/>
<stop offset="0.242" stop-color="#CB8F80"/>
<stop offset="1" stop-color="#B37153"/>
</linearGradient>
<linearGradient id="paint31_linear_43_905" x1="112.899" y1="30.0063" x2="118.513" y2="68.9087" gradientUnits="userSpaceOnUse">
<stop stop-color="#A75A38"/>
<stop offset="0.7653" stop-color="#A95B38"/>
<stop offset="1" stop-color="#C46B2F"/>
</linearGradient>
<linearGradient id="paint32_linear_43_905" x1="96.216" y1="5.6199" x2="99.9258" y2="31.3266" gradientUnits="userSpaceOnUse">
<stop stop-color="#98543B"/>
<stop offset="0.2163" stop-color="#8C383C"/>
<stop offset="1" stop-color="#9E583C"/>
</linearGradient>
<linearGradient id="paint33_linear_43_905" x1="41.6839" y1="18.2751" x2="79.5143" y2="18.2751" gradientUnits="userSpaceOnUse">
<stop stop-color="#9E583C"/>
<stop offset="1" stop-color="#8C383C"/>
</linearGradient>
<linearGradient id="paint34_linear_43_905" x1="75.0416" y1="16.4877" x2="83.2017" y2="81.6368" gradientUnits="userSpaceOnUse">
<stop stop-color="#D0AFA5"/>
<stop offset="0.7267" stop-color="#AD5E37"/>
<stop offset="0.985" stop-color="#B86433"/>
<stop offset="1" stop-color="#B96433"/>
</linearGradient>
<linearGradient id="paint35_linear_43_905" x1="78.9486" y1="61.5321" x2="81.5379" y2="82.2046" gradientUnits="userSpaceOnUse">
<stop offset="0.2605" stop-color="#A95B38"/>
<stop offset="1" stop-color="#8C383C"/>
</linearGradient>
<linearGradient id="paint36_linear_43_905" x1="72.7064" y1="12.5604" x2="84.9619" y2="84.4163" gradientUnits="userSpaceOnUse">
<stop stop-color="#70363A"/>
<stop offset="0.667" stop-color="#753639"/>
<stop offset="1" stop-color="#703639"/>
</linearGradient>
<linearGradient id="paint37_linear_43_905" x1="77.1647" y1="15.355" x2="79.77" y2="36.1552" gradientUnits="userSpaceOnUse">
<stop stop-color="#FFE8FF"/>
<stop offset="1" stop-color="#C87944"/>
</linearGradient>
<linearGradient id="paint38_linear_43_905" x1="58.5511" y1="46.2097" x2="100.436" y2="46.2097" gradientUnits="userSpaceOnUse">
<stop stop-color="#70363A"/>
<stop offset="0.667" stop-color="#753639"/>
<stop offset="1" stop-color="#703639"/>
</linearGradient>
<linearGradient id="paint39_linear_43_905" x1="60.7007" y1="45.4413" x2="79.4938" y2="45.4413" gradientUnits="userSpaceOnUse">
<stop stop-color="#AD5E37"/>
<stop offset="1" stop-color="#D0AFA5"/>
</linearGradient>
<linearGradient id="paint40_linear_43_905" x1="60.8813" y1="42.1805" x2="79.5442" y2="44.2974" gradientUnits="userSpaceOnUse">
<stop stop-color="#C87944"/>
<stop offset="1" stop-color="#FFE8FF"/>
</linearGradient>
<linearGradient id="paint41_linear_43_905" x1="67.0761" y1="62.3573" x2="78.4025" y2="49.4291" gradientUnits="userSpaceOnUse">
<stop stop-color="#A75B3A"/>
<stop offset="1" stop-color="#8C383C"/>
</linearGradient>
<linearGradient id="paint42_linear_43_905" x1="74.2474" y1="49.7983" x2="69.3453" y2="63.77" gradientUnits="userSpaceOnUse">
<stop stop-color="#AD5E37"/>
<stop offset="1" stop-color="#F5C599"/>
</linearGradient>
<linearGradient id="paint43_linear_43_905" x1="79.927" y1="50.4538" x2="91.1211" y2="61.7204" gradientUnits="userSpaceOnUse">
<stop stop-color="#9E583C"/>
<stop offset="1" stop-color="#8C383C"/>
</linearGradient>
<linearGradient id="paint44_linear_43_905" x1="83.5652" y1="47.8338" x2="92.1118" y2="62.6212" gradientUnits="userSpaceOnUse">
<stop stop-color="#AB5D37"/>
<stop offset="0.6579" stop-color="#B3633A"/>
<stop offset="1" stop-color="#D27630"/>
</linearGradient>
<linearGradient id="paint45_linear_43_905" x1="78.9361" y1="47.6107" x2="99.4731" y2="42.0643" gradientUnits="userSpaceOnUse">
<stop stop-color="#8C383C"/>
<stop offset="1" stop-color="#8F5040"/>
</linearGradient>
<linearGradient id="paint46_linear_43_905" x1="81.0617" y1="44.1084" x2="96.619" y2="40.5663" gradientUnits="userSpaceOnUse">
<stop stop-color="#F5C599"/>
<stop offset="1" stop-color="#AD5E37"/>
</linearGradient>
<linearGradient id="paint47_linear_43_905" x1="78.2143" y1="29.757" x2="80.157" y2="46.2451" gradientUnits="userSpaceOnUse">
<stop stop-color="#AD5E37"/>
<stop offset="1" stop-color="#B57960"/>
</linearGradient>
<linearGradient id="paint48_linear_43_905" x1="77.6942" y1="28.0593" x2="76.1412" y2="47.1802" gradientUnits="userSpaceOnUse">
<stop offset="0.2087" stop-color="#FFE5FF"/>
<stop offset="1" stop-color="#AD5E37"/>
</linearGradient>
<linearGradient id="paint49_linear_43_905" x1="77.4759" y1="35.7664" x2="84.363" y2="59.8123" gradientUnits="userSpaceOnUse">
<stop stop-color="#FFF5FA"/>
<stop offset="0.6895" stop-color="#DF7D26"/>
<stop offset="1" stop-color="#BA6433"/>
</linearGradient>
<linearGradient id="paint50_linear_43_905" x1="72.7532" y1="6.29318" x2="77.9061" y2="41.9997" gradientUnits="userSpaceOnUse">
<stop stop-color="#FF752B"/>
<stop offset="0.1695" stop-color="#C65B21"/>
<stop offset="0.3964" stop-color="#813B16"/>
<stop offset="0.6013" stop-color="#49220C"/>
<stop offset="0.7765" stop-color="#210F06"/>
<stop offset="0.9151" stop-color="#090402"/>
<stop offset="1"/>
</linearGradient>
</defs>
</svg>
