<svg width="109" height="96" viewBox="0 0 109 96" fill="none" xmlns="http://www.w3.org/2000/svg">
<path d="M31.9969 18.9L5.27618 14C1.39905 13.3 -1.43021 17.4 0.770326 20.5L16.0693 42.1L31.9969 18.9Z" fill="url(#paint0_linear_43_268)"/>
<path d="M5.27619 14.5001L31.7874 19.3001L32.1017 18.9001L5.38097 14.0001C2.34214 13.4001 -0.0679633 15.9001 0.141611 18.5001C0.141611 16.1001 2.44693 13.9001 5.27619 14.5001Z" fill="url(#paint1_linear_43_268)"/>
<path d="M31.9969 18.9L18.8985 16.5C18.8985 16.5 15.8596 18.1 12.6112 20C8.94367 22.1 9.15324 25.4 9.15324 25.4C6.53356 24.1 4.96175 23 0.770264 20.5L16.0692 42.1L31.9969 18.9Z" fill="url(#paint2_linear_43_268)"/>
<path d="M19.8416 34.3L3.18042 23.4C1.60861 22.4 -0.277569 23.9 0.455942 25.6L13.3448 54.6L19.8416 34.3Z" fill="url(#paint3_linear_43_268)"/>
<path d="M3.18045 23.8L19.7368 34.7L19.8416 34.3L3.18045 23.4C1.81822 22.5 0.0368324 23.7 0.246407 25.1C0.455981 23.9 1.92301 23 3.18045 23.8Z" fill="url(#paint4_linear_43_268)"/>
<path d="M19.8415 34.3L9.5724 27.6V37L2.76123 30.8L13.3447 54.5L19.8415 34.3Z" fill="url(#paint5_linear_43_268)"/>
<path d="M19.0034 46.4001C18.4794 46.3001 9.99167 38.1001 4.12358 32.5001C2.86614 31.2001 0.665609 32.5001 1.18954 34.2001L12.9257 67.2001L19.0034 46.4001Z" fill="url(#paint6_linear_43_268)"/>
<path d="M4.12349 32.6C3.07562 31.6 1.50381 32.2 1.18945 33.4C1.71339 32.5 3.07562 32.2 3.91392 33C9.67722 38.6 18.2698 46.8 18.7937 46.9L12.9256 67.2V67.3L18.8985 46.5C18.4793 46.3 9.88679 38.2 4.12349 32.6Z" fill="url(#paint7_linear_43_268)"/>
<path d="M19.0032 46.3999C18.6889 46.2999 14.183 42.1 9.46759 37.7C9.46759 41 9.36279 57.0999 9.36279 57.0999L13.0303 67.3L19.0032 46.3999Z" fill="url(#paint8_linear_43_268)"/>
<path d="M22.5662 20L22.147 12.5C21.9374 9.79999 24.3475 7.59999 27.072 7.79999L40.9039 8.79999L22.5662 20Z" fill="url(#paint9_linear_43_268)"/>
<path d="M22.1468 13C21.9373 10.3 24.3474 8.10002 27.0718 8.30002L40.0655 9.20002L40.799 8.70002L26.9671 7.70002C24.1378 7.50002 21.8325 9.70002 22.0421 12.4L22.4612 19.9L22.1468 13Z" fill="url(#paint10_linear_43_268)"/>
<path d="M22.5661 20L22.2517 14.8L34.1975 8.40002L40.9038 8.80003L22.5661 20Z" fill="#FF8A00"/>
<path d="M76.8459 18.9L103.567 14C107.444 13.3 110.273 17.4 108.073 20.5L92.7736 42.1L76.8459 18.9Z" fill="url(#paint11_linear_43_268)"/>
<path d="M103.671 14.5001L77.1603 19.3001L76.8459 18.9001L103.567 14.0001C106.606 13.4001 109.016 15.9001 108.806 18.5001C108.806 16.1001 106.501 13.9001 103.671 14.5001Z" fill="url(#paint12_linear_43_268)"/>
<path d="M76.8459 18.9L89.9444 16.5C89.9444 16.5 92.9832 18.1 96.2316 20C99.8991 22.1 99.6896 25.4 99.6896 25.4C102.309 24.1 103.881 23 108.073 20.5L92.7736 42.1L76.8459 18.9Z" fill="url(#paint13_linear_43_268)"/>
<path d="M89.106 34.3L105.767 23.4C107.339 22.4 109.225 23.9 108.492 25.6L95.6028 54.6L89.106 34.3Z" fill="url(#paint14_linear_43_268)"/>
<path d="M105.767 23.8L89.2107 34.7L89.106 34.3L105.767 23.4C107.129 22.5 108.911 23.7 108.701 25.1C108.492 23.9 106.92 23 105.767 23.8Z" fill="url(#paint15_linear_43_268)"/>
<path d="M89.106 34.3L99.3751 27.6V37L106.186 30.8L95.6028 54.5L89.106 34.3Z" fill="url(#paint16_linear_43_268)"/>
<path d="M89.9443 46.4001C90.4683 46.3001 98.956 38.1001 104.824 32.5001C106.082 31.2001 108.282 32.5001 107.758 34.2001L96.022 67.2001L89.9443 46.4001Z" fill="url(#paint17_linear_43_268)"/>
<path d="M104.824 32.6C105.872 31.6 107.444 32.2 107.758 33.4C107.234 32.5 105.872 32.2 105.034 33C99.2704 38.6 90.6778 46.8 90.1539 46.9L96.0219 67.2V67.3L90.0491 46.5C90.4682 46.3 98.956 38.2 104.824 32.6Z" fill="url(#paint18_linear_43_268)"/>
<path d="M89.9443 46.3999C90.2587 46.2999 94.7645 42.1 99.48 37.7C99.48 41 99.5848 57.0999 99.5848 57.0999L95.9172 67.3L89.9443 46.3999Z" fill="url(#paint19_linear_43_268)"/>
<path d="M86.3815 20L86.8006 12.5C87.0102 9.79999 84.6001 7.59999 81.8756 7.79999L68.0437 8.79999L86.3815 20Z" fill="url(#paint20_linear_43_268)"/>
<path d="M86.6958 13C86.9054 10.3 84.4953 8.10002 81.7708 8.30002L68.7772 9.20002L68.0437 8.70002L81.8756 7.70002C84.7049 7.50002 87.0102 9.70002 86.8006 12.4L86.3815 19.9L86.6958 13Z" fill="url(#paint21_linear_43_268)"/>
<path d="M86.3815 20L86.6958 14.8L74.7501 8.40002L68.0437 8.80003L86.3815 20Z" fill="#FF8A00"/>
<path d="M54.4214 95.4C53.164 95.4 52.0113 95.1 50.8587 94.5L13.6592 74C11.4587 72.8 10.0964 70.6 10.0964 68.2V27.2C10.0964 24.8 11.4587 22.6 13.6592 21.4L50.8587 0.899994C51.9065 0.299994 53.164 0 54.4214 0C55.6789 0 56.8316 0.299994 57.9842 0.899994L95.1837 21.4C97.3842 22.6 98.7464 24.8 98.7464 27.2V68.2C98.7464 70.6 97.3842 72.8 95.1837 74L57.9842 94.5C56.9363 95.1 55.6789 95.4 54.4214 95.4Z" fill="url(#paint22_linear_43_268)"/>
<path d="M54.4214 94.8C53.2687 94.8 52.2208 94.5 51.173 94L13.9735 73.5C11.9825 72.4 10.7251 70.4 10.7251 68.2V27.2C10.7251 25 11.9825 23 13.9735 21.9L51.173 1.39997C52.1161 0.899971 53.2687 0.599976 54.4214 0.599976C55.574 0.599976 56.6219 0.899971 57.6698 1.39997L94.8692 21.9C96.8602 23 98.1176 25 98.1176 27.2V68.2C98.1176 70.4 96.8602 72.4 94.8692 73.5L57.6698 94C56.7267 94.5 55.574 94.8 54.4214 94.8Z" fill="url(#paint23_linear_43_268)"/>
<path d="M54.4213 92.9C53.6878 92.9 52.8495 92.7001 52.2208 92.3001L15.0213 71.8001C13.6591 71.0001 12.8208 69.6 12.8208 68.1V27.1C12.8208 25.6 13.6591 24.2 15.0213 23.4L52.2208 2.90005C52.8495 2.50005 53.6878 2.30005 54.4213 2.30005C55.1548 2.30005 55.9931 2.50005 56.6219 2.90005L93.8213 23.4C95.1836 24.2 96.0219 25.6 96.0219 27.1V68.1C96.0219 69.6 95.1836 71.0001 93.8213 71.8001L56.6219 92.3001C55.9931 92.7001 55.2596 92.9 54.4213 92.9Z" fill="#C0561A"/>
<path d="M93.6117 24L56.4122 3.49998C55.2596 2.79998 53.7925 2.79998 52.5351 3.49998L15.3356 24C14.183 24.7 13.4495 25.9 13.4495 27.2V68.2C13.4495 69.5 14.183 70.7 15.3356 71.4L52.5351 91.9C53.6878 92.6 55.1548 92.6 56.4122 91.9L93.6117 71.4C94.7644 70.7 95.4979 69.5 95.4979 68.2V27.2C95.4979 25.8 94.7644 24.6 93.6117 24Z" fill="url(#paint24_linear_43_268)"/>
<path d="M54.4213 89.8999C54.2117 89.8999 54.0021 89.7999 53.7926 89.6999L16.5931 69.1999C16.1739 68.9999 15.9644 68.5999 15.9644 68.0999V27.0999C15.9644 26.6999 16.1739 26.2999 16.5931 25.9999L53.7926 5.49992C54.0021 5.39992 54.2117 5.29993 54.4213 5.29993C54.6308 5.29993 54.8404 5.39992 55.05 5.49992L92.2495 25.9999C92.6686 26.1999 92.8782 26.5999 92.8782 27.0999V68.0999C92.8782 68.4999 92.6686 68.8999 92.2495 69.1999L55.05 89.6999C54.9452 89.7999 54.7356 89.8999 54.4213 89.8999Z" fill="url(#paint25_linear_43_268)"/>
<path d="M92.0398 26.6L54.8403 6.09999C54.7355 5.99999 54.6307 6 54.526 6C54.4212 6 54.3164 5.99999 54.2116 6.09999L17.0121 26.6C16.9073 26.7 16.8025 26.7 16.8025 26.8C16.6978 26.9 16.6978 27 16.6978 27.1V68.1C16.6978 68.2 16.6978 68.3 16.8025 68.4C16.9073 68.5 16.9073 68.6 17.0121 68.6L54.2116 89.1C54.3164 89.2 54.4212 89.2 54.526 89.2C54.6307 89.2 54.7355 89.2 54.8403 89.1L92.0398 68.6C92.1446 68.6 92.2494 68.5 92.2494 68.4C92.3541 68.3 92.3541 68.2 92.3541 68.1V27.1C92.3541 27 92.3541 26.9 92.2494 26.8C92.1446 26.7 92.1446 26.7 92.0398 26.6ZM89.1057 66.8L54.4212 85.9L19.7366 66.8V28.6L54.4212 9.5L89.1057 28.6V66.8Z" fill="url(#paint26_linear_43_268)"/>
<path d="M19.7367 66.8V28.6C19.7367 28.6 16.6979 26.8 16.5931 26.9C16.4883 27 16.4883 27.1 16.4883 27.2V68.2C16.4883 68.3 16.4883 68.4 16.5931 68.5C16.6979 68.6 19.7367 66.8 19.7367 66.8Z" fill="url(#paint27_linear_43_268)"/>
<path d="M54.4212 85.8999L19.7366 66.7999C19.7366 66.7999 16.593 68.3999 16.593 68.4999C16.6978 68.5999 16.6978 68.6999 16.8026 68.6999L54.0021 89.1999C54.1068 89.2999 54.2116 89.2999 54.3164 89.2999C54.526 89.2999 54.4212 85.8999 54.4212 85.8999Z" fill="url(#paint28_linear_43_268)"/>
<path d="M89.1059 66.7999L54.4213 85.8999C54.4213 85.8999 54.3165 89.2999 54.4213 89.2999C54.5261 89.2999 54.6309 89.2999 54.7357 89.1999L91.9352 68.6999C92.04 68.6999 92.1447 68.5999 92.1447 68.4999C92.2495 68.3999 89.1059 66.7999 89.1059 66.7999Z" fill="url(#paint29_linear_43_268)"/>
<path d="M92.2496 68.5C92.3544 68.4 92.3544 68.3 92.3544 68.2V27.2C92.3544 27.1 92.3544 27 92.2496 26.9C92.1448 26.8 89.106 28.6 89.106 28.6V66.8C89.106 66.8 92.1448 68.6 92.2496 68.5Z" fill="url(#paint30_linear_43_268)"/>
<path d="M54.4212 9.39999L89.1058 28.5C89.1058 28.5 92.2494 26.9 92.2494 26.8C92.1446 26.7 92.1446 26.6 92.0398 26.6L54.8404 6.09999C54.7356 5.99999 54.6308 6 54.526 6C54.3164 6 54.4212 9.39999 54.4212 9.39999Z" fill="url(#paint31_linear_43_268)"/>
<path d="M19.7367 28.5L54.4213 9.39999C54.4213 9.39999 54.5261 6 54.4213 6C54.3165 6 54.2117 5.99999 54.1069 6.09999L16.9075 26.6C16.8027 26.7 16.6979 26.7 16.6979 26.8C16.5931 26.9 19.7367 28.5 19.7367 28.5Z" fill="url(#paint32_linear_43_268)"/>
<path d="M23.6138 64.5999V30.7L54.4212 13.7L85.3334 30.7V64.5999L54.4212 81.5999L23.6138 64.5999Z" fill="url(#paint33_linear_43_268)"/>
<path d="M23.6138 63.9V64.6L54.4212 81.6L85.3334 64.6V63.9L54.4212 80.9L23.6138 63.9Z" fill="url(#paint34_linear_43_268)"/>
<path d="M54.4214 9.40002L19.7368 28.5V66.7L54.4214 85.8L89.106 66.7V28.5L54.4214 9.40002ZM85.3336 64.6L54.5262 81.6L23.7187 64.6V30.6L54.5262 13.6L85.3336 30.6V64.6Z" fill="#613437"/>
<path d="M20.575 66.3V28.8999L54.526 10.2L88.4771 28.8999V66.3L54.526 85L20.575 66.3ZM22.8803 30.2V65L54.526 82.3999L86.1718 65V30.2L54.526 12.8L22.8803 30.2Z" fill="url(#paint35_linear_43_268)"/>
<path d="M54.4212 13.7L23.6138 30.7V31.5L54.4212 14.5L85.3334 31.5V30.7L54.4212 13.7Z" fill="url(#paint36_linear_43_268)"/>
<path d="M66.5767 65C66.2623 65 65.948 64.9 65.6336 64.8L54.4214 59.9L43.2091 64.8C42.8948 64.9 42.5804 65 42.2661 65C41.6373 65 41.0086 64.7 40.5895 64.3C40.1703 63.9 39.9607 63.3 40.0655 62.7L41.5325 51.1L33.2544 42.5C32.7304 42 32.5208 41.2 32.8352 40.5C33.0448 39.8 33.6735 39.3 34.5118 39.1L46.5623 36.8L52.5352 26.6C52.9543 25.9 53.6879 25.5 54.4214 25.5C55.1549 25.5 55.8884 25.9 56.3075 26.6L62.2804 36.8L74.3309 39.1C75.0645 39.2 75.6932 39.8 76.0075 40.5C76.2171 41.2 76.1123 42 75.5884 42.5L67.3102 51.1L68.7772 62.7C68.882 63.3 68.6724 63.9 68.2533 64.3C67.7293 64.8 67.2054 65 66.5767 65Z" fill="#613437"/>
<path d="M66.5766 64.3C66.3671 64.3 66.1575 64.3 65.9479 64.2L54.4213 59.2L42.8947 64.2C42.6851 64.3 42.4756 64.3 42.266 64.3C41.8468 64.3 41.5325 64.1 41.2181 63.8C40.9037 63.5 40.799 63.1 40.9038 62.8L42.3708 50.8L33.7782 41.9C33.4639 41.5 33.3591 41 33.4639 40.6C33.6734 40.1 33.9878 39.8 34.5117 39.7L46.8766 37.3L53.0591 26.8C53.2686 26.4 53.7926 26.1 54.3165 26.1C54.8405 26.1 55.2596 26.4 55.574 26.8L61.7564 37.3L74.1213 39.7C74.6452 39.8 75.0644 40.1 75.1692 40.6C75.274 41.1 75.1692 41.6 74.8548 41.9L66.2623 50.8L67.7293 62.8C67.7293 63.2 67.6245 63.6 67.4149 63.8C67.3101 64.1 66.9958 64.3 66.5766 64.3Z" fill="url(#paint37_linear_43_268)"/>
<path d="M44.1521 50.2999C44.0473 49.9999 43.9425 49.6999 43.6281 49.4999L35.6643 41.1999L47.1909 38.9999C47.5053 38.8999 47.8196 38.7999 48.0292 38.5999C48.2388 38.3999 54.4212 46.8999 54.4212 46.8999C54.4212 46.8999 44.2569 50.4999 44.1521 50.2999Z" fill="url(#paint38_linear_43_268)"/>
<path d="M35.6643 41.1999L47.1909 38.9999C47.5053 38.8999 47.8196 38.7999 48.0292 38.5999C48.2388 38.3999 54.4212 46.8999 54.4212 46.8999L35.6643 41.1999Z" fill="url(#paint39_linear_43_268)"/>
<path d="M54.5259 57.4C54.2116 57.4 53.8972 57.5 53.5828 57.6L42.8945 62.3L44.2568 51.1C44.2568 50.8 44.2568 50.5 44.152 50.3C44.0472 50 54.5259 47 54.5259 47C54.5259 47 54.8403 57.4 54.5259 57.4Z" fill="url(#paint40_linear_43_268)"/>
<path d="M42.8945 62.3L44.2568 51.1C44.2568 50.8 44.2568 50.5 44.152 50.3C44.0472 50 54.5259 47 54.5259 47L42.8945 62.3Z" fill="url(#paint41_linear_43_268)"/>
<path d="M55.3643 57.6C55.0499 57.5 54.7356 57.4 54.4212 57.4C54.1068 57.4 54.4212 46.9 54.4212 46.9C54.4212 46.9 64.8999 49.9 64.7952 50.2C64.6904 50.5 64.6904 50.8 64.6904 51.1L66.0526 62.3L55.3643 57.6Z" fill="url(#paint42_linear_43_268)"/>
<path d="M54.5261 46.9C54.5261 46.9 65.0048 49.9 64.9001 50.2C64.7953 50.5 64.7953 50.8 64.7953 51.1L66.1575 62.3L54.5261 46.9Z" fill="url(#paint43_linear_43_268)"/>
<path d="M54.5261 46.8999C54.5261 46.8999 60.7086 38.3999 60.9181 38.5999C61.1277 38.7999 61.4421 38.8999 61.7564 38.9999L73.283 41.1999L65.3192 49.4999C65.1096 49.6999 64.9001 49.9999 64.9001 50.2999C64.7953 50.4999 54.5261 46.8999 54.5261 46.8999Z" fill="url(#paint44_linear_43_268)"/>
<path d="M54.5261 46.8999C54.5261 46.8999 60.7086 38.3999 60.9181 38.5999C61.1277 38.7999 61.4421 38.8999 61.7564 38.9999L73.283 41.1999L54.5261 46.8999Z" fill="url(#paint45_linear_43_268)"/>
<path d="M54.5261 46.9C54.5261 46.9 47.9245 38.8 48.134 38.6C48.3436 38.4 48.5532 38.2 48.7628 37.9L54.5261 28.1L60.2894 37.9C60.3941 38.2 60.6037 38.4 60.9181 38.6C61.1277 38.8 54.5261 46.9 54.5261 46.9Z" fill="url(#paint46_linear_43_268)"/>
<path d="M54.5261 46.9C54.5261 46.9 47.9245 38.8 48.134 38.6C48.3436 38.4 48.5532 38.2 48.7628 37.9L54.5261 28.1V46.9Z" fill="url(#paint47_linear_43_268)"/>
<path d="M54.526 28.2L54.4212 46.8L35.6643 41.2L54.3164 47L42.8946 62.3L54.526 47.0999L66.1574 62.3L54.6308 47L73.2829 41.2L54.6308 46.8L54.526 28.2Z" fill="url(#paint48_linear_43_268)"/>
<g style="mix-blend-mode:screen">
<path d="M93.6117 24L56.4122 3.49998C55.2596 2.79998 53.7925 2.79998 52.5351 3.49998L15.3356 24C14.183 24.7 13.4495 25.9 13.4495 27.2V68.2C13.4495 69.5 14.183 70.7 15.3356 71.4L52.5351 91.9C53.6878 92.6 55.1548 92.6 56.4122 91.9L93.6117 71.4C94.7644 70.7 95.4979 69.5 95.4979 68.2V27.2C95.4979 25.8 94.7644 24.6 93.6117 24Z" fill="url(#paint49_linear_43_268)"/>
</g>
<defs>
<linearGradient id="paint0_linear_43_268" x1="1.81118" y1="15.5535" x2="16.4819" y2="26.3613" gradientUnits="userSpaceOnUse">
<stop stop-color="#FFF200"/>
<stop offset="0.7389" stop-color="#FF9900"/>
<stop offset="0.824" stop-color="#FC8D00"/>
<stop offset="0.9759" stop-color="#F36F00"/>
<stop offset="1" stop-color="#F26900"/>
</linearGradient>
<linearGradient id="paint1_linear_43_268" x1="2.31396" y1="14.2519" x2="22.6294" y2="21.4238" gradientUnits="userSpaceOnUse">
<stop stop-color="#FFFF56"/>
<stop offset="0.1288" stop-color="#FFF200"/>
<stop offset="0.3904" stop-color="#FFEF00"/>
<stop offset="0.5577" stop-color="#FFE700"/>
<stop offset="0.6985" stop-color="#FFD800"/>
<stop offset="0.8246" stop-color="#FFC300"/>
<stop offset="0.9398" stop-color="#FFA800"/>
<stop offset="0.9937" stop-color="#FF9900"/>
</linearGradient>
<linearGradient id="paint2_linear_43_268" x1="4.0719" y1="17.0703" x2="17.2751" y2="26.7969" gradientUnits="userSpaceOnUse">
<stop stop-color="#FFC400"/>
<stop offset="0.7068" stop-color="#FF7700"/>
</linearGradient>
<linearGradient id="paint3_linear_43_268" x1="0.10742" y1="24.6221" x2="14.1991" y2="43.1746" gradientUnits="userSpaceOnUse">
<stop stop-color="#FFF200"/>
<stop offset="0.7389" stop-color="#FF9900"/>
<stop offset="0.824" stop-color="#FC8D00"/>
<stop offset="0.9759" stop-color="#F36F00"/>
<stop offset="1" stop-color="#F26900"/>
</linearGradient>
<linearGradient id="paint4_linear_43_268" x1="3.53138" y1="21.8392" x2="10.9691" y2="31.6314" gradientUnits="userSpaceOnUse">
<stop stop-color="#FFFF56"/>
<stop offset="0.1288" stop-color="#FFF200"/>
<stop offset="0.3904" stop-color="#FFEF00"/>
<stop offset="0.5577" stop-color="#FFE700"/>
<stop offset="0.6985" stop-color="#FFD800"/>
<stop offset="0.8246" stop-color="#FFC300"/>
<stop offset="0.9398" stop-color="#FFA800"/>
<stop offset="0.9937" stop-color="#FF9900"/>
</linearGradient>
<linearGradient id="paint5_linear_43_268" x1="0.897171" y1="30.8343" x2="14.2599" y2="43.5073" gradientUnits="userSpaceOnUse">
<stop stop-color="#FFC400"/>
<stop offset="0.7068" stop-color="#FF7700"/>
</linearGradient>
<linearGradient id="paint6_linear_43_268" x1="-4.63872" y1="37.938" x2="15.4954" y2="57.9872" gradientUnits="userSpaceOnUse">
<stop offset="0.084759" stop-color="#FFF200"/>
<stop offset="0.7389" stop-color="#FF9900"/>
<stop offset="0.824" stop-color="#FC8D00"/>
<stop offset="0.9759" stop-color="#F36F00"/>
<stop offset="1" stop-color="#F26900"/>
</linearGradient>
<linearGradient id="paint7_linear_43_268" x1="4.00771" y1="31.8319" x2="9.1273" y2="43.5771" gradientUnits="userSpaceOnUse">
<stop stop-color="#FFFF56"/>
<stop offset="0.2459" stop-color="#FFF200"/>
<stop offset="0.4721" stop-color="#FFEF00"/>
<stop offset="0.6167" stop-color="#FFE700"/>
<stop offset="0.7385" stop-color="#FFD800"/>
<stop offset="0.8475" stop-color="#FFC300"/>
<stop offset="0.9471" stop-color="#FFA800"/>
<stop offset="0.9937" stop-color="#FF9900"/>
</linearGradient>
<linearGradient id="paint8_linear_43_268" x1="4.79103" y1="36.6852" x2="10.9744" y2="48.9182" gradientUnits="userSpaceOnUse">
<stop stop-color="#FFC400"/>
<stop offset="0.7068" stop-color="#FF7700"/>
</linearGradient>
<linearGradient id="paint9_linear_43_268" x1="26.4829" y1="6.68329" x2="30.5733" y2="13.3166" gradientUnits="userSpaceOnUse">
<stop stop-color="#FFF200"/>
<stop offset="0.7389" stop-color="#FF9900"/>
<stop offset="0.824" stop-color="#FC8D00"/>
<stop offset="0.9759" stop-color="#F36F00"/>
<stop offset="1" stop-color="#F26900"/>
</linearGradient>
<linearGradient id="paint10_linear_43_268" x1="26.4827" y1="6.68332" x2="30.5731" y2="13.3167" gradientUnits="userSpaceOnUse">
<stop stop-color="#FFFF56"/>
<stop offset="0.1288" stop-color="#FFF200"/>
<stop offset="0.3904" stop-color="#FFEF00"/>
<stop offset="0.5577" stop-color="#FFE700"/>
<stop offset="0.6985" stop-color="#FFD800"/>
<stop offset="0.8246" stop-color="#FFC300"/>
<stop offset="0.9398" stop-color="#FFA800"/>
<stop offset="0.9937" stop-color="#FF9900"/>
</linearGradient>
<linearGradient id="paint11_linear_43_268" x1="107.118" y1="15.5535" x2="92.4473" y2="26.3613" gradientUnits="userSpaceOnUse">
<stop stop-color="#FFF200"/>
<stop offset="0.7389" stop-color="#FF9900"/>
<stop offset="0.824" stop-color="#FC8D00"/>
<stop offset="0.9759" stop-color="#F36F00"/>
<stop offset="1" stop-color="#F26900"/>
</linearGradient>
<linearGradient id="paint12_linear_43_268" x1="106.615" y1="14.2519" x2="86.2998" y2="21.4238" gradientUnits="userSpaceOnUse">
<stop stop-color="#FFFF56"/>
<stop offset="0.1288" stop-color="#FFF200"/>
<stop offset="0.3904" stop-color="#FFEF00"/>
<stop offset="0.5577" stop-color="#FFE700"/>
<stop offset="0.6985" stop-color="#FFD800"/>
<stop offset="0.8246" stop-color="#FFC300"/>
<stop offset="0.9398" stop-color="#FFA800"/>
<stop offset="0.9937" stop-color="#FF9900"/>
</linearGradient>
<linearGradient id="paint13_linear_43_268" x1="104.857" y1="17.0703" x2="91.654" y2="26.7969" gradientUnits="userSpaceOnUse">
<stop stop-color="#FFC400"/>
<stop offset="0.7068" stop-color="#FF7700"/>
</linearGradient>
<linearGradient id="paint14_linear_43_268" x1="108.822" y1="24.6221" x2="94.73" y2="43.1746" gradientUnits="userSpaceOnUse">
<stop stop-color="#FFF200"/>
<stop offset="0.7389" stop-color="#FF9900"/>
<stop offset="0.824" stop-color="#FC8D00"/>
<stop offset="0.9759" stop-color="#F36F00"/>
<stop offset="1" stop-color="#F26900"/>
</linearGradient>
<linearGradient id="paint15_linear_43_268" x1="105.398" y1="21.8392" x2="97.96" y2="31.6314" gradientUnits="userSpaceOnUse">
<stop stop-color="#FFFF56"/>
<stop offset="0.1288" stop-color="#FFF200"/>
<stop offset="0.3904" stop-color="#FFEF00"/>
<stop offset="0.5577" stop-color="#FFE700"/>
<stop offset="0.6985" stop-color="#FFD800"/>
<stop offset="0.8246" stop-color="#FFC300"/>
<stop offset="0.9398" stop-color="#FFA800"/>
<stop offset="0.9937" stop-color="#FF9900"/>
</linearGradient>
<linearGradient id="paint16_linear_43_268" x1="108.032" y1="30.8343" x2="94.6693" y2="43.5073" gradientUnits="userSpaceOnUse">
<stop stop-color="#FFC400"/>
<stop offset="0.7068" stop-color="#FF7700"/>
</linearGradient>
<linearGradient id="paint17_linear_43_268" x1="113.568" y1="37.938" x2="93.4337" y2="57.9872" gradientUnits="userSpaceOnUse">
<stop offset="0.084759" stop-color="#FFF200"/>
<stop offset="0.7389" stop-color="#FF9900"/>
<stop offset="0.824" stop-color="#FC8D00"/>
<stop offset="0.9759" stop-color="#F36F00"/>
<stop offset="1" stop-color="#F26900"/>
</linearGradient>
<linearGradient id="paint18_linear_43_268" x1="104.921" y1="31.8319" x2="99.8018" y2="43.5771" gradientUnits="userSpaceOnUse">
<stop stop-color="#FFFF56"/>
<stop offset="0.2459" stop-color="#FFF200"/>
<stop offset="0.4721" stop-color="#FFEF00"/>
<stop offset="0.6167" stop-color="#FFE700"/>
<stop offset="0.7385" stop-color="#FFD800"/>
<stop offset="0.8475" stop-color="#FFC300"/>
<stop offset="0.9471" stop-color="#FFA800"/>
<stop offset="0.9937" stop-color="#FF9900"/>
</linearGradient>
<linearGradient id="paint19_linear_43_268" x1="104.138" y1="36.6852" x2="97.9547" y2="48.9182" gradientUnits="userSpaceOnUse">
<stop stop-color="#FFC400"/>
<stop offset="0.7068" stop-color="#FF7700"/>
</linearGradient>
<linearGradient id="paint20_linear_43_268" x1="82.4463" y1="6.68329" x2="78.3559" y2="13.3166" gradientUnits="userSpaceOnUse">
<stop stop-color="#FFF200"/>
<stop offset="0.7389" stop-color="#FF9900"/>
<stop offset="0.824" stop-color="#FC8D00"/>
<stop offset="0.9759" stop-color="#F36F00"/>
<stop offset="1" stop-color="#F26900"/>
</linearGradient>
<linearGradient id="paint21_linear_43_268" x1="82.4463" y1="6.68322" x2="78.3559" y2="13.3167" gradientUnits="userSpaceOnUse">
<stop stop-color="#FFFF56"/>
<stop offset="0.1288" stop-color="#FFF200"/>
<stop offset="0.3904" stop-color="#FFEF00"/>
<stop offset="0.5577" stop-color="#FFE700"/>
<stop offset="0.6985" stop-color="#FFD800"/>
<stop offset="0.8246" stop-color="#FFC300"/>
<stop offset="0.9398" stop-color="#FFA800"/>
<stop offset="0.9937" stop-color="#FF9900"/>
</linearGradient>
<linearGradient id="paint22_linear_43_268" x1="47.4834" y1="3.5886" x2="60.4594" y2="93.5061" gradientUnits="userSpaceOnUse">
<stop stop-color="#FFF985"/>
<stop offset="0.5031" stop-color="#EF8818"/>
<stop offset="1" stop-color="#D85F1B"/>
</linearGradient>
<linearGradient id="paint23_linear_43_268" x1="47.5733" y1="4.15698" x2="60.382" y2="92.9144" gradientUnits="userSpaceOnUse">
<stop stop-color="#FFDE59"/>
<stop offset="0.1629" stop-color="#FFBA45"/>
<stop offset="0.7062" stop-color="#F29218"/>
<stop offset="1" stop-color="#FF8400"/>
</linearGradient>
<linearGradient id="paint24_linear_43_268" x1="48.0528" y1="7.18358" x2="60.1047" y2="90.6965" gradientUnits="userSpaceOnUse">
<stop stop-color="#CF9A84"/>
<stop offset="0.7062" stop-color="#AD5E37"/>
<stop offset="1" stop-color="#7D423F"/>
</linearGradient>
<linearGradient id="paint25_linear_43_268" x1="48.4065" y1="9.41553" x2="59.7936" y2="88.3216" gradientUnits="userSpaceOnUse">
<stop stop-color="#BF8661"/>
<stop offset="1" stop-color="#BD846B"/>
</linearGradient>
<linearGradient id="paint26_linear_43_268" x1="48.4948" y1="9.9736" x2="59.7156" y2="87.7281" gradientUnits="userSpaceOnUse">
<stop stop-color="#B36135"/>
<stop offset="0.7047" stop-color="#A05839"/>
<stop offset="1" stop-color="#B06036"/>
</linearGradient>
<linearGradient id="paint27_linear_43_268" x1="17.534" y1="27.7635" x2="18.698" y2="67.8137" gradientUnits="userSpaceOnUse">
<stop stop-color="#8E483D"/>
<stop offset="0.703" stop-color="#9E583C"/>
<stop offset="1" stop-color="#B76436"/>
</linearGradient>
<linearGradient id="paint28_linear_43_268" x1="33.7656" y1="65.7617" x2="37.4753" y2="91.4684" gradientUnits="userSpaceOnUse">
<stop stop-color="#CC8A60"/>
<stop offset="1" stop-color="#B06036"/>
</linearGradient>
<linearGradient id="paint29_linear_43_268" x1="54.0275" y1="87.6279" x2="89.8194" y2="66.4767" gradientUnits="userSpaceOnUse">
<stop stop-color="#CBA395"/>
<stop offset="0.242" stop-color="#CB8F80"/>
<stop offset="1" stop-color="#B37153"/>
</linearGradient>
<linearGradient id="paint30_linear_43_268" x1="87.8993" y1="29.0063" x2="93.5134" y2="67.9087" gradientUnits="userSpaceOnUse">
<stop stop-color="#A75A38"/>
<stop offset="0.7653" stop-color="#A95B38"/>
<stop offset="1" stop-color="#C46B2F"/>
</linearGradient>
<linearGradient id="paint31_linear_43_268" x1="71.216" y1="4.6199" x2="74.9258" y2="30.3266" gradientUnits="userSpaceOnUse">
<stop stop-color="#98543B"/>
<stop offset="0.2163" stop-color="#8C383C"/>
<stop offset="1" stop-color="#9E583C"/>
</linearGradient>
<linearGradient id="paint32_linear_43_268" x1="16.6839" y1="17.2751" x2="54.5143" y2="17.2751" gradientUnits="userSpaceOnUse">
<stop stop-color="#9E583C"/>
<stop offset="1" stop-color="#8C383C"/>
</linearGradient>
<linearGradient id="paint33_linear_43_268" x1="50.0416" y1="15.4877" x2="58.2017" y2="80.6368" gradientUnits="userSpaceOnUse">
<stop stop-color="#D0AFA5"/>
<stop offset="0.7267" stop-color="#AD5E37"/>
<stop offset="0.985" stop-color="#B86433"/>
<stop offset="1" stop-color="#B96433"/>
</linearGradient>
<linearGradient id="paint34_linear_43_268" x1="53.9486" y1="60.5321" x2="56.5379" y2="81.2046" gradientUnits="userSpaceOnUse">
<stop offset="0.2605" stop-color="#A95B38"/>
<stop offset="1" stop-color="#8C383C"/>
</linearGradient>
<linearGradient id="paint35_linear_43_268" x1="47.7064" y1="11.5604" x2="59.9619" y2="83.4163" gradientUnits="userSpaceOnUse">
<stop stop-color="#70363A"/>
<stop offset="0.667" stop-color="#753639"/>
<stop offset="1" stop-color="#703639"/>
</linearGradient>
<linearGradient id="paint36_linear_43_268" x1="52.1647" y1="14.355" x2="54.77" y2="35.1552" gradientUnits="userSpaceOnUse">
<stop stop-color="#FFE8FF"/>
<stop offset="1" stop-color="#C87944"/>
</linearGradient>
<linearGradient id="paint37_linear_43_268" x1="33.5511" y1="45.2097" x2="75.4365" y2="45.2097" gradientUnits="userSpaceOnUse">
<stop stop-color="#70363A"/>
<stop offset="0.667" stop-color="#753639"/>
<stop offset="1" stop-color="#703639"/>
</linearGradient>
<linearGradient id="paint38_linear_43_268" x1="35.7007" y1="44.4413" x2="54.4938" y2="44.4413" gradientUnits="userSpaceOnUse">
<stop stop-color="#AD5E37"/>
<stop offset="1" stop-color="#D0AFA5"/>
</linearGradient>
<linearGradient id="paint39_linear_43_268" x1="35.8813" y1="41.1805" x2="54.5442" y2="43.2974" gradientUnits="userSpaceOnUse">
<stop stop-color="#C87944"/>
<stop offset="1" stop-color="#FFE8FF"/>
</linearGradient>
<linearGradient id="paint40_linear_43_268" x1="42.0761" y1="61.3573" x2="53.4025" y2="48.4291" gradientUnits="userSpaceOnUse">
<stop stop-color="#A75B3A"/>
<stop offset="1" stop-color="#8C383C"/>
</linearGradient>
<linearGradient id="paint41_linear_43_268" x1="49.2474" y1="48.7983" x2="44.3453" y2="62.77" gradientUnits="userSpaceOnUse">
<stop stop-color="#AD5E37"/>
<stop offset="1" stop-color="#F5C599"/>
</linearGradient>
<linearGradient id="paint42_linear_43_268" x1="54.927" y1="49.4538" x2="66.1211" y2="60.7204" gradientUnits="userSpaceOnUse">
<stop stop-color="#9E583C"/>
<stop offset="1" stop-color="#8C383C"/>
</linearGradient>
<linearGradient id="paint43_linear_43_268" x1="58.5652" y1="46.8338" x2="67.1118" y2="61.6212" gradientUnits="userSpaceOnUse">
<stop stop-color="#AB5D37"/>
<stop offset="0.6579" stop-color="#B3633A"/>
<stop offset="1" stop-color="#D27630"/>
</linearGradient>
<linearGradient id="paint44_linear_43_268" x1="53.9361" y1="46.6107" x2="74.4731" y2="41.0643" gradientUnits="userSpaceOnUse">
<stop stop-color="#8C383C"/>
<stop offset="1" stop-color="#8F5040"/>
</linearGradient>
<linearGradient id="paint45_linear_43_268" x1="56.0617" y1="43.1084" x2="71.619" y2="39.5663" gradientUnits="userSpaceOnUse">
<stop stop-color="#F5C599"/>
<stop offset="1" stop-color="#AD5E37"/>
</linearGradient>
<linearGradient id="paint46_linear_43_268" x1="53.2143" y1="28.757" x2="55.157" y2="45.2451" gradientUnits="userSpaceOnUse">
<stop stop-color="#AD5E37"/>
<stop offset="1" stop-color="#B57960"/>
</linearGradient>
<linearGradient id="paint47_linear_43_268" x1="52.6942" y1="27.0593" x2="51.1412" y2="46.1802" gradientUnits="userSpaceOnUse">
<stop offset="0.2087" stop-color="#FFE5FF"/>
<stop offset="1" stop-color="#AD5E37"/>
</linearGradient>
<linearGradient id="paint48_linear_43_268" x1="52.4759" y1="34.7664" x2="59.363" y2="58.8123" gradientUnits="userSpaceOnUse">
<stop stop-color="#FFF5FA"/>
<stop offset="0.6895" stop-color="#DF7D26"/>
<stop offset="1" stop-color="#BA6433"/>
</linearGradient>
<linearGradient id="paint49_linear_43_268" x1="47.7532" y1="5.29318" x2="52.9061" y2="40.9997" gradientUnits="userSpaceOnUse">
<stop stop-color="#FF752B"/>
<stop offset="0.1695" stop-color="#C65B21"/>
<stop offset="0.3964" stop-color="#813B16"/>
<stop offset="0.6013" stop-color="#49220C"/>
<stop offset="0.7765" stop-color="#210F06"/>
<stop offset="0.9151" stop-color="#090402"/>
<stop offset="1"/>
</linearGradient>
</defs>
</svg>
