<svg width="298" height="298" viewBox="0 0 298 298" fill="none" xmlns="http://www.w3.org/2000/svg">
<g clip-path="url(#clip0_52_129)">
<rect width="298" height="298" rx="48" fill="#080808"/>
<path d="M0.000205631 242.709L50.1444 214.056L256.452 129.527C118.914 191.419 110.317 275.536 123.212 299.892H0L0.000205631 242.709Z" fill="url(#paint0_linear_52_129)"/>
<path d="M201.528 150.31C93.2705 203.973 85.7041 273.264 95.4531 301.201H-26.9189C-17.1408 258.596 75.2275 206.427 120.189 185.668L201.528 150.31Z" fill="url(#paint1_linear_52_129)"/>
<path d="M149.728 177.52C87.101 208.716 61.9378 271.421 57.1846 298.873L-4.94727 301.492C24.1543 251.321 80.1263 209.968 104.475 195.562L149.728 177.52Z" fill="#EC1D35"/>
<path d="M223.487 111.569L216.145 103.089L220.51 100.525L224.479 104.272L229.439 92.8342L227.058 109.794L234.995 117.683L231.225 119.655L226.463 117.091L224.479 123.008L217.137 126.163L223.487 111.569Z" fill="#D80F26"/>
<path d="M210.589 106.442C200.205 111.504 176.461 124.191 176.461 124.191L211.78 128.727L218.526 113.936L210.589 106.442Z" fill="#D80F26"/>
<path d="M234.201 40.1787C232.297 30.2392 234.201 28.8061 235.392 29.332C250.789 40.0603 263.105 71.9297 267.338 86.5234C269.52 86.5891 274.362 86.9967 276.267 88.1011C278.172 89.2055 274.547 94.872 272.497 97.5673C290.156 125.374 299.085 149.434 297.895 155.35C296.704 161.267 293.133 159.295 283.013 144.898C274.918 133.381 269.19 113.016 267.338 104.272L265.354 104.47L256.822 89.2844L258.012 88.1011C250.869 76.2684 236.106 50.1181 234.201 40.1787Z" fill="#D80F26"/>
<path fill-rule="evenodd" clip-rule="evenodd" d="M84.3932 147.067L71.2974 135.235L81.8137 127.741C82.2767 126.952 85.4647 125.414 94.5127 125.571C103.131 125.722 162.839 129.224 195.755 131.203C198.374 131.361 200.349 133.593 200.199 136.196L200.148 137.081C200.105 137.84 200.611 138.522 201.354 138.703L210.392 140.912C211.533 141.191 212.739 141.001 213.738 140.384L249.568 118.262C250.706 117.56 252.164 117.642 253.214 118.468L254.996 119.87C255.719 120.439 256.739 120.446 257.47 119.887C258.243 119.296 258.478 118.24 258.028 117.38L245.264 92.9835C242.761 88.1986 236.854 86.3004 232.006 88.7227L169.458 119.975C168.329 120.539 167.385 121.41 166.735 122.486C165.871 123.917 164.335 124.814 162.656 124.867L141.787 125.52C140.891 125.548 140.15 124.834 140.15 123.943V117.905C140.15 117.395 140.398 116.915 140.817 116.619L166.783 98.2706C171.651 94.831 177.818 93.7534 183.574 95.3369L191.692 97.57C194.945 98.4651 198.402 98.3058 201.558 97.1153L235.392 84.3541C239.36 83.1051 247.932 81.5142 250.472 85.1429C253.647 89.6788 264.362 108.019 265.354 112.555C266.346 117.091 266.743 122.219 262.774 125.571C258.806 128.924 234.598 146.081 158.206 178.424C102.277 202.103 67.2318 215.365 53.6781 220.116C51.7242 220.801 49.5713 220.217 48.1986 218.675L45.8994 216.091L41.931 217.472L36.9705 212.542C39.1531 211.358 45.9391 208.755 55.6221 207.809C67.4278 206.654 169.467 164.067 196.947 149.313C197.606 148.96 197.396 148.031 196.652 147.944C193.008 147.517 187.694 147.228 184.993 148.251C181.659 149.513 140.216 169.812 119.911 179.805L111.577 174.283L54.428 202.872C53.2421 203.465 51.816 202.756 51.5826 201.457L51.3216 200.005C51.1658 199.137 51.6073 198.273 52.4034 197.886L59.9873 194.201L59.3921 192.229L50.4631 193.215L35.9783 186.115C34.6555 185.064 31.494 183.275 29.4304 184.538C27.3669 185.8 35.9783 193.215 35.9783 193.215L45.8994 204.653L42.9231 206.625L19.1125 186.707L8.59619 192.229V184.538L24.4699 175.269L22.6841 174.283L10.1836 180.988L10.9772 175.86L25.462 168.366C26.7848 167.643 30.5416 166.907 34.9862 169.747C39.4309 172.587 52.8442 180.528 58.9953 184.143C61.1117 185.195 66.5352 186.668 71.2974 184.143C75.8868 181.71 102.345 166.261 116.395 158.023C117.126 157.595 117.178 156.567 116.499 156.061L116.138 155.792C115.775 155.522 115.289 155.48 114.885 155.684L91.0377 167.717C90.3704 168.054 89.5596 167.702 89.354 166.987L89.1778 166.374C89.0443 165.909 89.2081 165.411 89.5916 165.115L95.1091 160.849C95.6477 160.433 95.7247 159.653 95.2779 159.14L94.1532 157.851C93.7845 157.428 93.1683 157.319 92.676 157.591L68.8418 170.731C68.5513 170.891 68.2032 170.647 68.2578 170.321L69.8832 160.628C70.0243 159.787 70.5488 159.057 71.304 158.652L92.7634 147.142C93.9324 146.515 94.1634 144.945 93.2241 144.012L93.0111 143.8C92.3755 143.168 91.3919 143.04 90.6139 143.488L84.3932 147.067ZM155.031 109.006C153.178 110.058 151.851 111.567 150.971 112.947C150.128 114.269 151.168 115.774 152.735 115.84L158.189 116.071C158.715 116.093 159.235 115.945 159.669 115.648L171.699 107.428C173.22 106.639 175.786 104.785 173.881 103.681C171.976 102.576 167.135 103.221 164.952 103.681C163.034 104.667 158.365 107.112 155.031 109.006ZM94.5127 128.727L194.914 135.235C195.179 136.549 194.398 139.613 189.16 141.348L94.5127 128.727ZM178.643 97.5673L190.946 102.103C191.739 102.734 190.086 103.944 189.16 104.47L181.223 109.4C180.231 110.123 177.969 111.412 176.858 110.78C175.746 110.149 176.395 109.071 176.858 108.611C178.842 107.362 182.929 104.746 183.406 104.272C184.001 103.681 183.802 102.103 179.437 101.709C175.072 101.314 173.088 99.5394 173.881 98.1589C174.516 97.0545 177.321 97.3043 178.643 97.5673Z" fill="#D80F26"/>
<path d="M233.302 94.2981L231.225 107.967L239.691 115.066L246.927 111.569L238.051 91.9609L233.302 94.2981Z" fill="#D80F26"/>
</g>
<defs>
<linearGradient id="paint0_linear_52_129" x1="202.01" y1="138.123" x2="50.1442" y2="264.2" gradientUnits="userSpaceOnUse">
<stop stop-color="#0F0F0F"/>
<stop offset="1" stop-color="#D80F26"/>
</linearGradient>
<linearGradient id="paint1_linear_52_129" x1="87.3047" y1="150.31" x2="87.3047" y2="301.201" gradientUnits="userSpaceOnUse">
<stop stop-color="#0F0F0F"/>
<stop offset="1" stop-color="#B80F23"/>
</linearGradient>
<clipPath id="clip0_52_129">
<rect width="298" height="298" rx="48" fill="white"/>
</clipPath>
</defs>
</svg>
