<svg width="158" height="158" viewBox="0 0 158 158" fill="none" xmlns="http://www.w3.org/2000/svg">
<g style="mix-blend-mode:overlay" filter="url(#filter0_f_43_473)">
<circle cx="79" cy="69" r="39" fill="#FFF201"/>
</g>
<g style="mix-blend-mode:overlay">
<path fill-rule="evenodd" clip-rule="evenodd" d="M89.3452 0H68.6548L77.6802 75.8139L30.4537 15.8234L15.8233 30.4538L75.8136 77.6802L0 68.6548V89.3452L75.8138 80.3198L15.8235 127.546L30.4538 142.177L77.6802 82.1864L68.6548 158H89.3452L80.3198 82.1864L127.546 142.177L142.177 127.546L82.1861 80.3198L158 89.3452V68.6548L82.1864 77.6802L142.177 30.4538L127.546 15.8234L80.3198 75.8139L89.3452 0Z" fill="url(#paint0_radial_43_473)"/>
</g>
<path d="M57.5351 22.9L32.0351 18C28.3351 17.3 25.6351 21.4 27.7351 24.5L42.3351 46.1L57.5351 22.9Z" fill="url(#paint1_linear_43_473)"/>
<path d="M31.9351 18.5L57.2351 23.3L57.5351 22.9L32.0351 18C29.1351 17.4 26.8351 19.9 27.0351 22.5C27.0351 20.1 29.2351 17.9 31.9351 18.5Z" fill="url(#paint2_linear_43_473)"/>
<path d="M57.5353 22.9L45.0353 20.5C45.0353 20.5 42.1353 22.1 39.0353 24C35.5353 26.1 35.7354 29.4 35.7354 29.4C33.2354 28.1 31.7354 27 27.7354 24.5L42.3354 46.1L57.5353 22.9Z" fill="url(#paint3_linear_43_473)"/>
<path d="M45.835 38.3L29.9349 27.4C28.4349 26.4 26.635 27.9 27.335 29.6L39.6349 58.6L45.835 38.3Z" fill="url(#paint4_linear_43_473)"/>
<path d="M29.9353 27.8L45.7353 38.7L45.8353 38.3L29.9353 27.4C28.6353 26.5 26.9353 27.7 27.1353 29.1C27.3353 27.9 28.8353 27 29.9353 27.8Z" fill="url(#paint5_linear_43_473)"/>
<path d="M45.8352 38.3L36.0352 31.6V41L29.5352 34.8L39.6352 58.5L45.8352 38.3Z" fill="url(#paint6_linear_43_473)"/>
<path d="M45.035 50.4C44.535 50.3 36.4351 42.1 30.8351 36.5C29.6351 35.2 27.535 36.5 28.035 38.2L39.2351 71.2L45.035 50.4Z" fill="url(#paint7_linear_43_473)"/>
<path d="M30.8352 36.6C29.8352 35.6 28.3352 36.2 28.0352 37.4C28.5352 36.5 29.8352 36.2 30.6352 37C36.1352 42.6 44.3352 50.8 44.8352 50.9L39.2352 71.2V71.3L44.9352 50.5C44.5352 50.3 36.4352 42.2 30.8352 36.6Z" fill="url(#paint8_linear_43_473)"/>
<path d="M45.0349 50.4C44.7349 50.3 40.4349 46.1 35.9349 41.7C35.9349 45 35.835 61.1 35.835 61.1L39.335 71.3L45.0349 50.4Z" fill="url(#paint9_linear_43_473)"/>
<path d="M48.4351 24L48.0351 16.5C47.8351 13.8 50.1351 11.6 52.7351 11.8L65.9351 12.8L48.4351 24Z" fill="url(#paint10_linear_43_473)"/>
<path d="M48.1351 17C47.9351 14.3 50.2351 12.1 52.8351 12.3L65.2351 13.2L65.9351 12.7L52.7351 11.7C50.0351 11.5 47.8351 13.7 48.0351 16.4L48.4351 23.9L48.1351 17Z" fill="url(#paint11_linear_43_473)"/>
<path d="M48.4352 24L48.1353 18.8L59.5352 12.4L65.9352 12.8L48.4352 24Z" fill="#FF8A00"/>
<path d="M100.335 22.9L125.835 18C129.535 17.3 132.235 21.4 130.135 24.5L115.535 46.1L100.335 22.9Z" fill="url(#paint12_linear_43_473)"/>
<path d="M125.835 18.5L100.535 23.3L100.235 22.9L125.735 18C128.635 17.4 130.935 19.9 130.735 22.5C130.735 20.1 128.535 17.9 125.835 18.5Z" fill="url(#paint13_linear_43_473)"/>
<path d="M100.335 22.9L112.835 20.5C112.835 20.5 115.735 22.1 118.835 24C122.335 26.1 122.135 29.4 122.135 29.4C124.635 28.1 126.135 27 130.135 24.5L115.535 46.1L100.335 22.9Z" fill="url(#paint14_linear_43_473)"/>
<path d="M111.935 38.3L127.835 27.4C129.335 26.4 131.135 27.9 130.435 29.6L118.135 58.6L111.935 38.3Z" fill="url(#paint15_linear_43_473)"/>
<path d="M127.835 27.8L112.035 38.7L111.935 38.3L127.835 27.4C129.135 26.5 130.835 27.7 130.635 29.1C130.435 27.9 129.035 27 127.835 27.8Z" fill="url(#paint16_linear_43_473)"/>
<path d="M111.935 38.3L121.735 31.6V41L128.235 34.8L118.135 58.5L111.935 38.3Z" fill="url(#paint17_linear_43_473)"/>
<path d="M112.735 50.4C113.235 50.3 121.335 42.1 126.935 36.5C128.135 35.2 130.235 36.5 129.735 38.2L118.535 71.2L112.735 50.4Z" fill="url(#paint18_linear_43_473)"/>
<path d="M126.935 36.6C127.935 35.6 129.435 36.2 129.735 37.4C129.235 36.5 127.935 36.2 127.135 37C121.635 42.6 113.435 50.8 112.935 50.9L118.535 71.2V71.3L112.835 50.5C113.235 50.3 121.435 42.2 126.935 36.6Z" fill="url(#paint19_linear_43_473)"/>
<path d="M112.735 50.4C113.035 50.3 117.335 46.1 121.835 41.7C121.835 45 121.935 61.1 121.935 61.1L118.435 71.3L112.735 50.4Z" fill="url(#paint20_linear_43_473)"/>
<path d="M109.335 24L109.735 16.5C109.935 13.8 107.635 11.6 105.035 11.8L91.835 12.8L109.335 24Z" fill="url(#paint21_linear_43_473)"/>
<path d="M109.735 17C109.935 14.3 107.635 12.1 105.035 12.3L92.6351 13.2L91.9351 12.7L105.135 11.7C107.835 11.5 110.035 13.7 109.835 16.4L109.435 23.9L109.735 17Z" fill="url(#paint22_linear_43_473)"/>
<path d="M109.335 24L109.635 18.8L98.235 12.4L91.835 12.8L109.335 24Z" fill="#FF8A00"/>
<path d="M78.9352 99.4C77.7352 99.4 76.6352 99.1 75.5352 98.5L40.0352 78C37.9352 76.8 36.6353 74.6 36.6353 72.2V31.2C36.6353 28.8 37.9352 26.6 40.0352 25.4L75.5352 4.89999C76.5352 4.29999 77.7352 4 78.9352 4C80.1352 4 81.2353 4.29999 82.3353 4.89999L117.835 25.4C119.935 26.6 121.235 28.8 121.235 31.2V72.2C121.235 74.6 119.935 76.8 117.835 78L82.3353 98.5C81.2353 99.1 80.0352 99.4 78.9352 99.4Z" fill="url(#paint23_linear_43_473)"/>
<path d="M78.9353 98.8C77.8353 98.8 76.8354 98.5 75.8354 98L40.3354 77.5C38.4354 76.4 37.2354 74.4 37.2354 72.2V31.2C37.2354 29 38.4354 27 40.3354 25.9L75.8354 5.4C76.7354 4.9 77.8353 4.60001 78.9353 4.60001C80.0353 4.60001 81.0353 4.9 82.0353 5.4L117.535 25.9C119.435 27 120.635 29 120.635 31.2V72.2C120.635 74.4 119.435 76.4 117.535 77.5L82.0353 98C81.0353 98.5 79.9353 98.8 78.9353 98.8Z" fill="url(#paint24_linear_43_473)"/>
<path d="M78.9353 96.9C78.2353 96.9 77.4354 96.7 76.8354 96.3L41.3354 75.8C40.0354 75 39.2354 73.6 39.2354 72.1V31.1C39.2354 29.6 40.0354 28.2 41.3354 27.4L76.8354 6.89999C77.4354 6.49999 78.2353 6.29999 78.9353 6.29999C79.6353 6.29999 80.4353 6.49999 81.0353 6.89999L116.535 27.4C117.835 28.2 118.635 29.6 118.635 31.1V72.1C118.635 73.6 117.835 75 116.535 75.8L81.0353 96.3C80.3353 96.7 79.6353 96.9 78.9353 96.9Z" fill="#C0561A"/>
<path d="M116.235 28L80.7354 7.50001C79.6354 6.80001 78.2353 6.80001 77.0353 7.50001L41.5353 28C40.4353 28.7 39.7354 29.9 39.7354 31.2V72.2C39.7354 73.5 40.4353 74.7 41.5353 75.4L77.0353 95.9C78.1353 96.6 79.5354 96.6 80.7354 95.9L116.235 75.4C117.335 74.7 118.035 73.5 118.035 72.2V31.2C118.035 29.8 117.435 28.6 116.235 28Z" fill="url(#paint25_linear_43_473)"/>
<path d="M78.9352 93.9C78.7352 93.9 78.5353 93.8 78.3353 93.7L42.7353 73.2C42.3353 73 42.1353 72.6 42.1353 72.1V31.1C42.1353 30.7 42.3353 30.3 42.7353 30L78.2353 9.50002C78.4353 9.40002 78.6353 9.30002 78.8353 9.30002C79.0353 9.30002 79.2352 9.40002 79.4352 9.50002L114.935 30C115.335 30.2 115.535 30.6 115.535 31.1V72.1C115.535 72.5 115.335 72.9 114.935 73.2L79.4352 93.7C79.3352 93.8 79.1352 93.9 78.9352 93.9Z" fill="url(#paint26_linear_43_473)"/>
<path d="M114.735 30.6L79.2354 10.1C79.1354 9.99999 79.0354 10 78.9354 10C78.8354 10 78.7354 9.99999 78.6354 10.1L43.1354 30.6C43.0354 30.7 42.9354 30.7 42.9354 30.8C42.8354 30.9 42.8354 31 42.8354 31.1V72.1C42.8354 72.2 42.8354 72.3 42.9354 72.4C43.0354 72.5 43.0354 72.6 43.1354 72.6L78.6354 93.1C78.7354 93.2 78.8354 93.2 78.9354 93.2C79.0354 93.2 79.1354 93.2 79.2354 93.1L114.735 72.6C114.835 72.6 114.935 72.5 114.935 72.4C115.035 72.3 115.035 72.2 115.035 72.1V31.1C115.035 31 115.035 30.9 114.935 30.8C114.935 30.7 114.835 30.7 114.735 30.6ZM112.035 70.8L78.9354 89.9L45.8354 70.8V32.6L78.9354 13.5L112.035 32.6V70.8Z" fill="url(#paint27_linear_43_473)"/>
<path d="M45.8354 70.8V32.6C45.8354 32.6 42.9354 30.8 42.8354 30.9C42.7354 31 42.7354 31.1 42.7354 31.2V72.2C42.7354 72.3 42.7354 72.4 42.8354 72.5C42.9354 72.6 45.8354 70.8 45.8354 70.8Z" fill="url(#paint28_linear_43_473)"/>
<path d="M78.9354 89.9L45.8354 70.8C45.8354 70.8 42.8354 72.4 42.8354 72.5C42.9354 72.6 42.9354 72.7 43.0354 72.7L78.5354 93.2C78.6354 93.3 78.7355 93.3 78.8354 93.3C78.9354 93.3 78.9354 89.9 78.9354 89.9Z" fill="url(#paint29_linear_43_473)"/>
<path d="M112.036 70.8L78.9356 89.9C78.9356 89.9 78.8356 93.3 78.9356 93.3C79.0356 93.3 79.1356 93.3 79.2356 93.2L114.736 72.7C114.836 72.7 114.936 72.6 114.936 72.5C115.036 72.4 112.036 70.8 112.036 70.8Z" fill="url(#paint30_linear_43_473)"/>
<path d="M114.936 72.5C115.036 72.4 115.036 72.3 115.036 72.2V31.2C115.036 31.1 115.036 31 114.936 30.9C114.836 30.8 111.936 32.6 111.936 32.6V70.8C112.036 70.8 114.836 72.6 114.936 72.5Z" fill="url(#paint31_linear_43_473)"/>
<path d="M78.9355 13.4L112.036 32.5C112.036 32.5 115.036 30.9 115.036 30.8C114.936 30.7 114.936 30.6 114.836 30.6L79.3356 10.1C79.2356 9.99999 79.1356 10 79.0356 10C78.9356 10 78.9355 13.4 78.9355 13.4Z" fill="url(#paint32_linear_43_473)"/>
<path d="M45.8356 32.5L78.9355 13.4C78.9355 13.4 79.0355 10 78.9355 10C78.8355 10 78.7356 9.99999 78.6356 10.1L43.1356 30.6C43.0356 30.7 42.9355 30.7 42.9355 30.8C42.7355 30.9 45.8356 32.5 45.8356 32.5Z" fill="url(#paint33_linear_43_473)"/>
<path d="M49.4355 68.6V34.7L78.9355 17.7L108.336 34.7V68.6L78.9355 85.6L49.4355 68.6Z" fill="url(#paint34_linear_43_473)"/>
<path d="M49.4355 67.9V68.6L78.9355 85.6L108.336 68.6V67.9L78.9355 84.9L49.4355 67.9Z" fill="url(#paint35_linear_43_473)"/>
<path d="M78.9354 13.4L45.8354 32.5V70.7L78.9354 89.8L112.035 70.7V32.5L78.9354 13.4ZM108.335 68.6L78.9354 85.6L49.5354 68.6V34.6L78.9354 17.6L108.335 34.6V68.6Z" fill="#9B3A17"/>
<path d="M46.5352 70.3V32.9L78.9352 14.2L111.335 32.9V70.3L78.9352 89L46.5352 70.3ZM48.7352 34.2V69L78.9352 86.4L109.135 69V34.2L78.9352 16.8L48.7352 34.2Z" fill="url(#paint36_linear_43_473)"/>
<path d="M78.9355 17.7L49.4355 34.7V35.5L78.9355 18.5L108.336 35.5V34.7L78.9355 17.7Z" fill="url(#paint37_linear_43_473)"/>
<path d="M90.4352 69C90.1352 69 89.8352 68.9 89.5352 68.8L78.8352 63.9L68.1352 68.8C67.8352 68.9 67.5352 69 67.2352 69C66.6352 69 66.0352 68.7 65.6352 68.3C65.2352 67.9 65.0352 67.3 65.1352 66.7L66.5352 55.1L58.6352 46.5C58.1352 46 57.9352 45.2 58.2352 44.5C58.4352 43.8 59.0352 43.3 59.8352 43.1L71.3352 40.8L77.0352 30.6C77.4352 29.9 78.1352 29.5 78.8352 29.5C79.5352 29.5 80.2352 29.9 80.6352 30.6L86.3352 40.8L97.8352 43.1C98.5352 43.2 99.1352 43.8 99.4352 44.5C99.6352 45.2 99.5352 46 99.0352 46.5L91.1352 55.1L92.5352 66.7C92.6352 67.3 92.4352 67.9 92.0352 68.3C91.6352 68.8 91.0352 69 90.4352 69Z" fill="#9B3A17"/>
<path d="M90.4353 68.3C90.2353 68.3 90.0354 68.3 89.8354 68.2L78.8354 63.2L67.8354 68.2C67.6354 68.3 67.4353 68.3 67.2353 68.3C66.8353 68.3 66.5353 68.1 66.2353 67.8C65.9353 67.5 65.8353 67.1 65.9353 66.8L67.3354 54.8L59.1353 45.9C58.8353 45.5 58.7354 45 58.8354 44.6C59.0354 44.1 59.3354 43.8 59.8354 43.7L71.6353 41.3L77.5353 30.8C77.7353 30.4 78.2353 30.1 78.7353 30.1C79.2353 30.1 79.6353 30.4 79.9353 30.8L85.8354 41.3L97.6353 43.7C98.1353 43.8 98.5353 44.1 98.6353 44.6C98.7353 45.1 98.6354 45.6 98.3354 45.9L90.1353 54.8L91.5353 66.8C91.5353 67.2 91.4353 67.6 91.2353 67.8C91.2353 68.1 90.8353 68.3 90.4353 68.3Z" fill="url(#paint38_linear_43_473)"/>
<path d="M69.0356 54.3C68.9356 54 68.8356 53.7 68.5356 53.5L60.9355 45.2L71.9355 43C72.2355 42.9 72.5356 42.8 72.7356 42.6C72.9356 42.4 78.8356 50.9 78.8356 50.9C78.8356 50.9 69.1356 54.5 69.0356 54.3Z" fill="url(#paint39_linear_43_473)"/>
<path d="M61.0356 45.2L72.0356 43C72.3356 42.9 72.6357 42.8 72.8357 42.6C73.0357 42.4 78.9356 50.9 78.9356 50.9L61.0356 45.2Z" fill="url(#paint40_linear_43_473)"/>
<path d="M78.9354 61.4C78.6354 61.4 78.3354 61.5 78.0354 61.6L67.8354 66.3L69.1354 55.1C69.1354 54.8 69.1354 54.5 69.0354 54.3C68.9354 54 78.9354 51 78.9354 51C78.9354 51 79.2354 61.4 78.9354 61.4Z" fill="url(#paint41_linear_43_473)"/>
<path d="M67.8354 66.3L69.1354 55.1C69.1354 54.8 69.1354 54.5 69.0354 54.3C68.9354 54 78.9354 51 78.9354 51L67.8354 66.3Z" fill="url(#paint42_linear_43_473)"/>
<path d="M79.8356 61.6C79.5356 61.5 79.2356 61.4 78.9356 61.4C78.6356 61.4 78.9356 50.9 78.9356 50.9C78.9356 50.9 88.9356 53.9 88.8356 54.2C88.7356 54.5 88.7356 54.8 88.7356 55.1L90.0356 66.3L79.8356 61.6Z" fill="url(#paint43_linear_43_473)"/>
<path d="M78.9355 50.9C78.9355 50.9 88.9356 53.9 88.8356 54.2C88.7356 54.5 88.7356 54.8 88.7356 55.1L90.0356 66.3L78.9355 50.9Z" fill="url(#paint44_linear_43_473)"/>
<path d="M78.9355 50.9C78.9355 50.9 84.8356 42.4 85.0356 42.6C85.2356 42.8 85.5356 42.9 85.8356 43L96.8356 45.2L89.2356 53.5C89.0356 53.7 88.8356 54 88.8356 54.3C88.7356 54.5 78.9355 50.9 78.9355 50.9Z" fill="url(#paint45_linear_43_473)"/>
<path d="M78.9355 50.9C78.9355 50.9 84.8356 42.4 85.0356 42.6C85.2356 42.8 85.5356 42.9 85.8356 43L96.8356 45.2L78.9355 50.9Z" fill="url(#paint46_linear_43_473)"/>
<path d="M78.9357 50.9C78.9357 50.9 72.6357 42.8 72.8357 42.6C73.0357 42.4 73.2357 42.2 73.4357 41.9L78.9357 32.1L84.4357 41.9C84.5357 42.2 84.7357 42.4 85.0357 42.6C85.2357 42.8 78.9357 50.9 78.9357 50.9Z" fill="url(#paint47_linear_43_473)"/>
<path d="M78.9357 50.9C78.9357 50.9 72.6357 42.8 72.8357 42.6C73.0357 42.4 73.2357 42.2 73.4357 41.9L78.9357 32.1V50.9Z" fill="url(#paint48_linear_43_473)"/>
<path d="M78.9356 32.2L78.8357 50.8L61.0356 45.2L78.8357 51L67.8357 66.3L78.9356 51.1L90.0356 66.3L79.0356 51L96.8357 45.2L79.0356 50.8L78.9356 32.2Z" fill="url(#paint49_linear_43_473)"/>
<g style="mix-blend-mode:screen">
<path d="M116.235 28L80.7354 7.50001C79.6354 6.80001 78.2353 6.80001 77.0353 7.50001L41.5353 28C40.4353 28.7 39.7354 29.9 39.7354 31.2V72.2C39.7354 73.5 40.4353 74.7 41.5353 75.4L77.0353 95.9C78.1353 96.6 79.5354 96.6 80.7354 95.9L116.235 75.4C117.335 74.7 118.035 73.5 118.035 72.2V31.2C118.035 29.8 117.435 28.6 116.235 28Z" fill="url(#paint50_linear_43_473)"/>
</g>
<defs>
<filter id="filter0_f_43_473" x="16" y="6" width="126" height="126" filterUnits="userSpaceOnUse" color-interpolation-filters="sRGB">
<feFlood flood-opacity="0" result="BackgroundImageFix"/>
<feBlend mode="normal" in="SourceGraphic" in2="BackgroundImageFix" result="shape"/>
<feGaussianBlur stdDeviation="12" result="effect1_foregroundBlur_43_473"/>
</filter>
<radialGradient id="paint0_radial_43_473" cx="0" cy="0" r="1" gradientUnits="userSpaceOnUse" gradientTransform="translate(79 79) rotate(90) scale(79)">
<stop stop-color="white"/>
<stop offset="1" stop-color="white" stop-opacity="0"/>
</radialGradient>
<linearGradient id="paint1_linear_43_473" x1="28.646" y1="19.5535" x2="43.1005" y2="29.7155" gradientUnits="userSpaceOnUse">
<stop stop-color="#FFF200"/>
<stop offset="0.7389" stop-color="#FF9900"/>
<stop offset="0.824" stop-color="#FC8D00"/>
<stop offset="0.9759" stop-color="#F36F00"/>
<stop offset="1" stop-color="#F26900"/>
</linearGradient>
<linearGradient id="paint2_linear_43_473" x1="29.1258" y1="18.2518" x2="48.7069" y2="24.8487" gradientUnits="userSpaceOnUse">
<stop stop-color="#FFFF56"/>
<stop offset="0.1288" stop-color="#FFF200"/>
<stop offset="0.3904" stop-color="#FFEF00"/>
<stop offset="0.5577" stop-color="#FFE700"/>
<stop offset="0.6985" stop-color="#FFD800"/>
<stop offset="0.8246" stop-color="#FFC300"/>
<stop offset="0.9398" stop-color="#FFA800"/>
<stop offset="0.9937" stop-color="#FF9900"/>
</linearGradient>
<linearGradient id="paint3_linear_43_473" x1="30.8038" y1="21.0703" x2="43.8123" y2="30.2157" gradientUnits="userSpaceOnUse">
<stop stop-color="#FFC400"/>
<stop offset="0.7068" stop-color="#FF7700"/>
</linearGradient>
<linearGradient id="paint4_linear_43_473" x1="27.02" y1="28.6221" x2="41.275" y2="46.5322" gradientUnits="userSpaceOnUse">
<stop stop-color="#FFF200"/>
<stop offset="0.7389" stop-color="#FF9900"/>
<stop offset="0.824" stop-color="#FC8D00"/>
<stop offset="0.9759" stop-color="#F36F00"/>
<stop offset="1" stop-color="#F26900"/>
</linearGradient>
<linearGradient id="paint5_linear_43_473" x1="30.2878" y1="25.8392" x2="37.8117" y2="35.2923" gradientUnits="userSpaceOnUse">
<stop stop-color="#FFFF56"/>
<stop offset="0.1288" stop-color="#FFF200"/>
<stop offset="0.3904" stop-color="#FFEF00"/>
<stop offset="0.5577" stop-color="#FFE700"/>
<stop offset="0.6985" stop-color="#FFD800"/>
<stop offset="0.8246" stop-color="#FFC300"/>
<stop offset="0.9398" stop-color="#FFA800"/>
<stop offset="0.9937" stop-color="#FF9900"/>
</linearGradient>
<linearGradient id="paint6_linear_43_473" x1="27.7739" y1="34.8343" x2="41.0891" y2="46.8853" gradientUnits="userSpaceOnUse">
<stop stop-color="#FFC400"/>
<stop offset="0.7068" stop-color="#FF7700"/>
</linearGradient>
<linearGradient id="paint7_linear_43_473" x1="22.4906" y1="41.9379" x2="42.5988" y2="61.0465" gradientUnits="userSpaceOnUse">
<stop offset="0.084759" stop-color="#FFF200"/>
<stop offset="0.7389" stop-color="#FF9900"/>
<stop offset="0.824" stop-color="#FC8D00"/>
<stop offset="0.9759" stop-color="#F36F00"/>
<stop offset="1" stop-color="#F26900"/>
</linearGradient>
<linearGradient id="paint8_linear_43_473" x1="30.7423" y1="35.8319" x2="36.0243" y2="47.3961" gradientUnits="userSpaceOnUse">
<stop stop-color="#FFFF56"/>
<stop offset="0.2459" stop-color="#FFF200"/>
<stop offset="0.4721" stop-color="#FFEF00"/>
<stop offset="0.6167" stop-color="#FFE700"/>
<stop offset="0.7385" stop-color="#FFD800"/>
<stop offset="0.8475" stop-color="#FFC300"/>
<stop offset="0.9471" stop-color="#FFA800"/>
<stop offset="0.9937" stop-color="#FF9900"/>
</linearGradient>
<linearGradient id="paint9_linear_43_473" x1="31.4897" y1="40.6852" x2="37.8423" y2="52.679" gradientUnits="userSpaceOnUse">
<stop stop-color="#FFC400"/>
<stop offset="0.7068" stop-color="#FF7700"/>
</linearGradient>
<linearGradient id="paint10_linear_43_473" x1="52.1906" y1="10.6833" x2="56.364" y2="17.1422" gradientUnits="userSpaceOnUse">
<stop stop-color="#FFF200"/>
<stop offset="0.7389" stop-color="#FF9900"/>
<stop offset="0.824" stop-color="#FC8D00"/>
<stop offset="0.9759" stop-color="#F36F00"/>
<stop offset="1" stop-color="#F26900"/>
</linearGradient>
<linearGradient id="paint11_linear_43_473" x1="52.1905" y1="10.6832" x2="56.364" y2="17.1422" gradientUnits="userSpaceOnUse">
<stop stop-color="#FFFF56"/>
<stop offset="0.1288" stop-color="#FFF200"/>
<stop offset="0.3904" stop-color="#FFEF00"/>
<stop offset="0.5577" stop-color="#FFE700"/>
<stop offset="0.6985" stop-color="#FFD800"/>
<stop offset="0.8246" stop-color="#FFC300"/>
<stop offset="0.9398" stop-color="#FFA800"/>
<stop offset="0.9937" stop-color="#FF9900"/>
</linearGradient>
<linearGradient id="paint12_linear_43_473" x1="129.142" y1="19.5535" x2="114.687" y2="29.7155" gradientUnits="userSpaceOnUse">
<stop stop-color="#FFF200"/>
<stop offset="0.7389" stop-color="#FF9900"/>
<stop offset="0.824" stop-color="#FC8D00"/>
<stop offset="0.9759" stop-color="#F36F00"/>
<stop offset="1" stop-color="#F26900"/>
</linearGradient>
<linearGradient id="paint13_linear_43_473" x1="128.662" y1="18.2518" x2="109.081" y2="24.8487" gradientUnits="userSpaceOnUse">
<stop stop-color="#FFFF56"/>
<stop offset="0.1288" stop-color="#FFF200"/>
<stop offset="0.3904" stop-color="#FFEF00"/>
<stop offset="0.5577" stop-color="#FFE700"/>
<stop offset="0.6985" stop-color="#FFD800"/>
<stop offset="0.8246" stop-color="#FFC300"/>
<stop offset="0.9398" stop-color="#FFA800"/>
<stop offset="0.9937" stop-color="#FF9900"/>
</linearGradient>
<linearGradient id="paint14_linear_43_473" x1="126.984" y1="21.0703" x2="113.976" y2="30.2157" gradientUnits="userSpaceOnUse">
<stop stop-color="#FFC400"/>
<stop offset="0.7068" stop-color="#FF7700"/>
</linearGradient>
<linearGradient id="paint15_linear_43_473" x1="130.768" y1="28.6221" x2="116.513" y2="46.5322" gradientUnits="userSpaceOnUse">
<stop stop-color="#FFF200"/>
<stop offset="0.7389" stop-color="#FF9900"/>
<stop offset="0.824" stop-color="#FC8D00"/>
<stop offset="0.9759" stop-color="#F36F00"/>
<stop offset="1" stop-color="#F26900"/>
</linearGradient>
<linearGradient id="paint16_linear_43_473" x1="127.5" y1="25.8392" x2="119.976" y2="35.2923" gradientUnits="userSpaceOnUse">
<stop stop-color="#FFFF56"/>
<stop offset="0.1288" stop-color="#FFF200"/>
<stop offset="0.3904" stop-color="#FFEF00"/>
<stop offset="0.5577" stop-color="#FFE700"/>
<stop offset="0.6985" stop-color="#FFD800"/>
<stop offset="0.8246" stop-color="#FFC300"/>
<stop offset="0.9398" stop-color="#FFA800"/>
<stop offset="0.9937" stop-color="#FF9900"/>
</linearGradient>
<linearGradient id="paint17_linear_43_473" x1="130.014" y1="34.8343" x2="116.699" y2="46.8853" gradientUnits="userSpaceOnUse">
<stop stop-color="#FFC400"/>
<stop offset="0.7068" stop-color="#FF7700"/>
</linearGradient>
<linearGradient id="paint18_linear_43_473" x1="135.297" y1="41.9379" x2="115.189" y2="61.0465" gradientUnits="userSpaceOnUse">
<stop offset="0.084759" stop-color="#FFF200"/>
<stop offset="0.7389" stop-color="#FF9900"/>
<stop offset="0.824" stop-color="#FC8D00"/>
<stop offset="0.9759" stop-color="#F36F00"/>
<stop offset="1" stop-color="#F26900"/>
</linearGradient>
<linearGradient id="paint19_linear_43_473" x1="127.045" y1="35.8319" x2="121.763" y2="47.3961" gradientUnits="userSpaceOnUse">
<stop stop-color="#FFFF56"/>
<stop offset="0.2459" stop-color="#FFF200"/>
<stop offset="0.4721" stop-color="#FFEF00"/>
<stop offset="0.6167" stop-color="#FFE700"/>
<stop offset="0.7385" stop-color="#FFD800"/>
<stop offset="0.8475" stop-color="#FFC300"/>
<stop offset="0.9471" stop-color="#FFA800"/>
<stop offset="0.9937" stop-color="#FF9900"/>
</linearGradient>
<linearGradient id="paint20_linear_43_473" x1="126.298" y1="40.6852" x2="119.945" y2="52.679" gradientUnits="userSpaceOnUse">
<stop stop-color="#FFC400"/>
<stop offset="0.7068" stop-color="#FF7700"/>
</linearGradient>
<linearGradient id="paint21_linear_43_473" x1="105.597" y1="10.6833" x2="101.424" y2="17.1422" gradientUnits="userSpaceOnUse">
<stop stop-color="#FFF200"/>
<stop offset="0.7389" stop-color="#FF9900"/>
<stop offset="0.824" stop-color="#FC8D00"/>
<stop offset="0.9759" stop-color="#F36F00"/>
<stop offset="1" stop-color="#F26900"/>
</linearGradient>
<linearGradient id="paint22_linear_43_473" x1="105.597" y1="10.6833" x2="101.424" y2="17.1422" gradientUnits="userSpaceOnUse">
<stop stop-color="#FFFF56"/>
<stop offset="0.1288" stop-color="#FFF200"/>
<stop offset="0.3904" stop-color="#FFEF00"/>
<stop offset="0.5577" stop-color="#FFE700"/>
<stop offset="0.6985" stop-color="#FFD800"/>
<stop offset="0.8246" stop-color="#FFC300"/>
<stop offset="0.9398" stop-color="#FFA800"/>
<stop offset="0.9937" stop-color="#FF9900"/>
</linearGradient>
<linearGradient id="paint23_linear_43_473" x1="72.2318" y1="7.5886" x2="85.8019" y2="97.3266" gradientUnits="userSpaceOnUse">
<stop stop-color="#FFF985"/>
<stop offset="0.5031" stop-color="#EF8818"/>
<stop offset="1" stop-color="#D85F1B"/>
</linearGradient>
<linearGradient id="paint24_linear_43_473" x1="72.3178" y1="8.15701" x2="85.7129" y2="96.7373" gradientUnits="userSpaceOnUse">
<stop stop-color="#FFDE59"/>
<stop offset="0.1629" stop-color="#FFBA45"/>
<stop offset="0.7062" stop-color="#F29218"/>
<stop offset="1" stop-color="#FF8400"/>
</linearGradient>
<linearGradient id="paint25_linear_43_473" x1="72.7754" y1="11.1836" x2="85.379" y2="94.5298" gradientUnits="userSpaceOnUse">
<stop stop-color="#FFCF57"/>
<stop offset="0.7062" stop-color="#FFAB17"/>
<stop offset="1" stop-color="#FFCD17"/>
</linearGradient>
<linearGradient id="paint26_linear_43_473" x1="73.1129" y1="13.4156" x2="85.0212" y2="92.1642" gradientUnits="userSpaceOnUse">
<stop stop-color="#FFD917"/>
<stop offset="1" stop-color="#FFEC17"/>
</linearGradient>
<linearGradient id="paint27_linear_43_473" x1="73.1974" y1="13.9736" x2="84.9319" y2="91.5729" gradientUnits="userSpaceOnUse">
<stop stop-color="#FFBD17"/>
<stop offset="0.7047" stop-color="#FF9617"/>
<stop offset="1" stop-color="#FFB217"/>
</linearGradient>
<linearGradient id="paint28_linear_43_473" x1="43.6509" y1="31.7635" x2="44.8706" y2="71.8104" gradientUnits="userSpaceOnUse">
<stop stop-color="#FF7717"/>
<stop offset="0.703" stop-color="#FF9027"/>
<stop offset="1" stop-color="#FFC927"/>
</linearGradient>
<linearGradient id="paint29_linear_43_473" x1="59.141" y1="69.7618" x2="63.0206" y2="95.4172" gradientUnits="userSpaceOnUse">
<stop stop-color="#FFE417"/>
<stop offset="1" stop-color="#FFB217"/>
</linearGradient>
<linearGradient id="paint30_linear_43_473" x1="78.4774" y1="91.628" x2="113.442" y2="71.9095" gradientUnits="userSpaceOnUse">
<stop stop-color="#FFF99F"/>
<stop offset="0.242" stop-color="#FFE417"/>
<stop offset="1" stop-color="#FFC117"/>
</linearGradient>
<linearGradient id="paint31_linear_43_473" x1="110.802" y1="33.0063" x2="116.673" y2="71.831" gradientUnits="userSpaceOnUse">
<stop stop-color="#FF9B17"/>
<stop offset="0.7653" stop-color="#FF9F17"/>
<stop offset="1" stop-color="#FFDC17"/>
</linearGradient>
<linearGradient id="paint32_linear_43_473" x1="94.8807" y1="8.6199" x2="98.7602" y2="34.2753" gradientUnits="userSpaceOnUse">
<stop stop-color="#FF8B17"/>
<stop offset="0.2163" stop-color="#FF6617"/>
<stop offset="1" stop-color="#FF9027"/>
</linearGradient>
<linearGradient id="paint33_linear_43_473" x1="42.8398" y1="21.2751" x2="78.9419" y2="21.2751" gradientUnits="userSpaceOnUse">
<stop stop-color="#FF9027"/>
<stop offset="1" stop-color="#F66317"/>
</linearGradient>
<linearGradient id="paint34_linear_43_473" x1="74.6737" y1="19.4877" x2="83.2115" y2="84.5384" gradientUnits="userSpaceOnUse">
<stop stop-color="#FFEB77"/>
<stop offset="0.7267" stop-color="#FFAB17"/>
<stop offset="0.841" stop-color="#FFB617"/>
<stop offset="1" stop-color="#FFCD17"/>
</linearGradient>
<linearGradient id="paint35_linear_43_473" x1="78.4022" y1="64.5321" x2="81.1113" y2="85.1733" gradientUnits="userSpaceOnUse">
<stop offset="0.2605" stop-color="#FF9F17"/>
<stop offset="1" stop-color="#FF6417"/>
</linearGradient>
<linearGradient id="paint36_linear_43_473" x1="72.4447" y1="15.5604" x2="85.2515" y2="87.2178" gradientUnits="userSpaceOnUse">
<stop stop-color="#A94E2F"/>
<stop offset="0.667" stop-color="#B15A17"/>
<stop offset="1" stop-color="#A94B2A"/>
</linearGradient>
<linearGradient id="paint37_linear_43_473" x1="76.6998" y1="18.355" x2="79.4257" y2="39.1238" gradientUnits="userSpaceOnUse">
<stop stop-color="#FFFFB5"/>
<stop offset="1" stop-color="#FFE049"/>
</linearGradient>
<linearGradient id="paint38_linear_43_473" x1="58.9363" y1="49.2097" x2="98.908" y2="49.2097" gradientUnits="userSpaceOnUse">
<stop stop-color="#A94E2F"/>
<stop offset="0.667" stop-color="#B15A17"/>
<stop offset="1" stop-color="#A94B2A"/>
</linearGradient>
<linearGradient id="paint39_linear_43_473" x1="60.9878" y1="48.4414" x2="78.9225" y2="48.4414" gradientUnits="userSpaceOnUse">
<stop stop-color="#FFAB17"/>
<stop offset="1" stop-color="#FFEB77"/>
</linearGradient>
<linearGradient id="paint40_linear_43_473" x1="61.1603" y1="45.1806" x2="78.9908" y2="47.1107" gradientUnits="userSpaceOnUse">
<stop stop-color="#FFE049"/>
<stop offset="1" stop-color="#FFFFB5"/>
</linearGradient>
<linearGradient id="paint41_linear_43_473" x1="67.0721" y1="65.3573" x2="78.456" y2="52.957" gradientUnits="userSpaceOnUse">
<stop stop-color="#FF9C27"/>
<stop offset="1" stop-color="#FF6617"/>
</linearGradient>
<linearGradient id="paint42_linear_43_473" x1="73.9156" y1="52.7983" x2="68.8335" y2="66.6215" gradientUnits="userSpaceOnUse">
<stop stop-color="#FFAB17"/>
<stop offset="1" stop-color="#FFFF77"/>
</linearGradient>
<linearGradient id="paint43_linear_43_473" x1="79.3359" y1="53.4538" x2="90.5211" y2="64.1971" gradientUnits="userSpaceOnUse">
<stop stop-color="#FF9027"/>
<stop offset="1" stop-color="#FF6617"/>
</linearGradient>
<linearGradient id="paint44_linear_43_473" x1="82.8076" y1="50.8338" x2="91.5489" y2="65.2669" gradientUnits="userSpaceOnUse">
<stop stop-color="#FFA417"/>
<stop offset="0.6579" stop-color="#FFBF30"/>
<stop offset="1" stop-color="#FFE630"/>
</linearGradient>
<linearGradient id="paint45_linear_43_473" x1="78.39" y1="50.6108" x2="98.1086" y2="45.5287" gradientUnits="userSpaceOnUse">
<stop stop-color="#FF6617"/>
<stop offset="1" stop-color="#FF8027"/>
</linearGradient>
<linearGradient id="paint46_linear_43_473" x1="80.4185" y1="47.1085" x2="95.3309" y2="43.8684" gradientUnits="userSpaceOnUse">
<stop stop-color="#FFFF77"/>
<stop offset="1" stop-color="#FFAB17"/>
</linearGradient>
<linearGradient id="paint47_linear_43_473" x1="77.7015" y1="32.757" x2="79.7343" y2="49.223" gradientUnits="userSpaceOnUse">
<stop stop-color="#FFAB17"/>
<stop offset="1" stop-color="#FFCF57"/>
</linearGradient>
<linearGradient id="paint48_linear_43_473" x1="77.2051" y1="31.0593" x2="75.5788" y2="50.1679" gradientUnits="userSpaceOnUse">
<stop offset="0.2087" stop-color="#FFFFA1"/>
<stop offset="1" stop-color="#FFAB17"/>
</linearGradient>
<linearGradient id="paint49_linear_43_473" x1="76.9969" y1="38.7664" x2="84.1604" y2="62.6349" gradientUnits="userSpaceOnUse">
<stop stop-color="white"/>
<stop offset="0.6895" stop-color="#FFEF17"/>
<stop offset="1" stop-color="#FFD217"/>
</linearGradient>
<linearGradient id="paint50_linear_43_473" x1="72.4895" y1="9.29321" x2="77.8783" y2="44.9285" gradientUnits="userSpaceOnUse">
<stop stop-color="#FFA65E"/>
<stop offset="0.1695" stop-color="#C68149"/>
<stop offset="0.3964" stop-color="#81542F"/>
<stop offset="0.6013" stop-color="#49301B"/>
<stop offset="0.7765" stop-color="#21160C"/>
<stop offset="0.9151" stop-color="#090603"/>
<stop offset="1"/>
</linearGradient>
</defs>
</svg>
