<svg width="24" height="24" viewBox="0 0 24 24" fill="none" xmlns="http://www.w3.org/2000/svg">
<path d="M3 21H21M14.6389 10.2578L19.4689 8.96376C19.7244 8.88998 19.992 8.86789 20.2561 8.89876C20.5202 8.92964 20.7755 9.01288 21.0071 9.1436C21.2386 9.27432 21.4418 9.4499 21.6047 9.66007C21.7676 9.87025 21.8869 10.1108 21.9557 10.3676C22.0245 10.6245 22.0415 10.8925 22.0055 11.1559C21.9695 11.4194 21.8813 11.673 21.7461 11.902C21.6109 12.131 21.4315 12.3307 21.2182 12.4895C21.0049 12.6483 20.7621 12.7629 20.5039 12.8268L6.01494 16.7098L1.56494 11.6898L4.46194 10.9138L6.91194 12.3278L9.80894 11.5518L6.06594 5.30776L8.96394 4.53076L14.6389 10.2578Z" stroke="#EC1D35" stroke-width="2" stroke-linecap="round" stroke-linejoin="round"/>
</svg>
