<svg width="41" height="40" viewBox="0 0 41 40" fill="none" xmlns="http://www.w3.org/2000/svg">
<rect x="0.5" width="40" height="40" rx="8" fill="white" fill-opacity="0.16"/>
<path d="M22.5 16V14C22.5 13.4696 22.2893 12.9609 21.9142 12.5858C21.5391 12.2107 21.0304 12 20.5 12H13.5C12.9696 12 12.4609 12.2107 12.0858 12.5858C11.7107 12.9609 11.5 13.4696 11.5 14V26C11.5 26.5304 11.7107 27.0391 12.0858 27.4142C12.4609 27.7893 12.9696 28 13.5 28H20.5C21.0304 28 21.5391 27.7893 21.9142 27.4142C22.2893 27.0391 22.5 26.5304 22.5 26V24M17.5 20H29.5M29.5 20L26.5 17M29.5 20L26.5 23" stroke="white" stroke-width="2" stroke-linecap="round" stroke-linejoin="round"/>
</svg>
