<svg width="24" height="24" viewBox="0 0 24 24" fill="none" xmlns="http://www.w3.org/2000/svg">
<path d="M3 21H21M15.1569 11.8098L19.9869 13.1048C20.2442 13.1695 20.4861 13.2847 20.6984 13.4438C20.9107 13.6028 21.0892 13.8025 21.2236 14.0313C21.358 14.26 21.4455 14.5132 21.4811 14.7761C21.5167 15.0389 21.4997 15.3063 21.431 15.5625C21.3623 15.8187 21.2433 16.0587 21.0809 16.2685C20.9185 16.4783 20.716 16.6537 20.4852 16.7845C20.2544 16.9153 19.9999 16.9988 19.7365 17.0303C19.4731 17.0618 19.2061 17.0405 18.9509 16.9678L4.46194 13.0858L3.11694 6.51382L6.01494 7.28982L7.42894 9.73982L10.3269 10.5158L10.2069 3.23682L13.1049 4.01382L15.1569 11.8098Z" stroke="#EC1D35" stroke-width="2" stroke-linecap="round" stroke-linejoin="round"/>
</svg>
