<svg width="101" height="67" viewBox="0 0 101 67" fill="none" xmlns="http://www.w3.org/2000/svg">
<path d="M74.9953 28.733L72.4332 25.7735L73.9566 24.8788L75.3416 26.1864L77.0728 22.1946L76.2418 28.1136L79.0117 30.8666L77.696 31.5548L76.034 30.6601L75.3416 32.7249L72.7794 33.8261L74.9953 28.733Z" fill="#0F0F0F"/>
<path d="M70.4942 26.9435C66.8703 28.71 58.5836 33.1378 58.5836 33.1378L70.9097 34.7208L73.2641 29.5589L70.4942 26.9435Z" fill="#0F0F0F"/>
<path d="M78.7347 3.81814C78.0699 0.349329 78.7347 -0.150803 79.1502 0.0327321C84.5238 3.77684 88.8218 14.8991 90.2991 19.9921C91.0608 20.0151 92.7505 20.1573 93.4152 20.5427C94.08 20.9282 92.8151 22.9058 92.0995 23.8464C98.2626 33.5508 101.379 41.9475 100.963 44.0123C100.548 46.077 99.3013 45.3888 95.7697 40.3645C92.9443 36.3451 90.9454 29.2377 90.2991 26.1864L89.6066 26.2553L86.6289 20.9557L87.0444 20.5427C84.5515 16.4132 79.3995 7.28695 78.7347 3.81814Z" fill="#0F0F0F"/>
<path fill-rule="evenodd" clip-rule="evenodd" d="M26.4526 41.1216L21.8823 36.9921L25.5524 34.3767C25.714 34.1014 26.8266 33.5645 29.9843 33.6196C32.992 33.672 53.8297 34.8943 65.3173 35.5852C66.2311 35.6401 66.9203 36.4191 66.8681 37.3275L66.8503 37.6364C66.8351 37.9012 67.012 38.1392 67.2711 38.2025L70.4254 38.9734C70.8237 39.0708 71.2446 39.0044 71.593 38.7892L84.0976 31.0686C84.4946 30.8235 85.0036 30.8523 85.37 31.1406L85.9917 31.6299C86.2442 31.8285 86.6002 31.831 86.8554 31.6359C87.125 31.4297 87.2071 31.061 87.0502 30.761L82.5955 22.2467C81.7218 20.5768 79.6604 19.9143 77.9685 20.7597L56.1396 31.6665C55.7458 31.8633 55.4163 32.1672 55.1895 32.5429C54.888 33.0424 54.3517 33.3554 53.7659 33.3737L46.4827 33.6017C46.17 33.6115 45.9113 33.3623 45.9113 33.0514V30.9442C45.9113 30.766 45.9981 30.5988 46.1442 30.4955L55.2062 24.0918C56.9049 22.8914 59.0573 22.5154 61.0661 23.068L63.8991 23.8473C65.0346 24.1597 66.2408 24.1041 67.3424 23.6886L79.1502 19.2351C80.5351 18.7992 83.5266 18.244 84.413 19.5104C85.521 21.0934 89.2604 27.4941 89.6066 29.0771C89.9528 30.6601 90.0913 32.4496 88.7064 33.6196C87.3214 34.7896 78.8732 40.7775 52.2128 52.0649C32.694 60.3287 20.4634 64.9571 15.7333 66.615C15.0514 66.854 14.3001 66.6503 13.821 66.1121L13.0186 65.2105L11.6336 65.6923L9.90243 63.9717C10.6642 63.5587 13.0324 62.6502 16.4117 62.3199C20.5318 61.9171 56.1428 47.0544 65.7331 41.9054C65.9632 41.7819 65.8899 41.4578 65.6302 41.4274C64.3586 41.2786 62.5038 41.1777 61.5613 41.5345C60.3979 41.975 45.9343 49.0595 38.848 52.5466L35.9396 50.6195L15.995 60.5971C15.5811 60.8041 15.0834 60.5566 15.002 60.1033L14.9109 59.5963C14.8565 59.2937 15.0106 58.992 15.2884 58.857L17.9352 57.5709L17.7274 56.8826L14.6113 57.2268L9.55619 54.7491C9.09454 54.382 7.99119 53.758 7.27101 54.1984C6.55084 54.6389 9.55619 57.2268 9.55619 57.2268L13.0186 61.2187L11.9799 61.9069L3.67013 54.9555L0 56.8826V54.1984L5.53982 50.9636L4.91659 50.6195L0.553982 52.9596L0.830973 51.1701L5.88606 48.5548C6.34771 48.3024 7.6588 48.0454 9.20995 49.0365C10.7611 50.0276 15.4423 52.799 17.5889 54.0608C18.3276 54.4279 20.2203 54.9418 21.8823 54.0608C23.484 53.2118 32.7178 47.8199 37.621 44.9452C37.8762 44.7955 37.8944 44.437 37.6573 44.2603L37.5314 44.1665C37.4047 44.072 37.2351 44.0574 37.094 44.1286L28.7715 48.3281C28.5386 48.4456 28.2557 48.3229 28.1839 48.0733L28.1224 47.8594C28.0759 47.6973 28.133 47.5234 28.2669 47.42L30.1924 45.9314C30.3804 45.7861 30.4073 45.5139 30.2513 45.335L29.8588 44.8849C29.7301 44.7373 29.5151 44.6995 29.3433 44.7942L21.0253 49.3799C20.9239 49.4358 20.8025 49.3506 20.8215 49.2369L21.3888 45.8542C21.438 45.5606 21.621 45.3061 21.8846 45.1647L29.3738 41.1475C29.7818 40.9287 29.8624 40.381 29.5346 40.0552L29.4602 39.9813C29.2384 39.7608 28.8951 39.7161 28.6236 39.8724L26.4526 41.1216ZM51.1048 27.8383C50.4579 28.2057 49.9951 28.732 49.6879 29.2137C49.3936 29.6752 49.7567 30.2004 50.3035 30.2235L52.207 30.304C52.3906 30.3118 52.5718 30.26 52.7235 30.1563L56.9217 27.2877C57.4526 27.0124 58.3482 26.3654 57.6834 25.98C57.0186 25.5945 55.329 25.8194 54.5672 25.98C53.8978 26.3241 52.2682 27.1775 51.1048 27.8383ZM29.9843 34.7208L65.0236 36.9921C65.116 37.4509 64.8436 38.52 63.0155 39.1256L29.9843 34.7208ZM59.3453 23.8464L63.6387 25.4294C63.9157 25.6496 63.3386 26.0717 63.0155 26.2553L60.2456 27.9759C59.8993 28.2283 59.1099 28.6779 58.7221 28.4577C58.3343 28.2374 58.5605 27.8612 58.7221 27.7006C59.4146 27.2647 60.8411 26.3516 61.0073 26.1864C61.215 25.98 61.1458 25.4294 59.6223 25.2917C58.0989 25.1541 57.4064 24.5346 57.6834 24.0529C57.905 23.6674 58.8837 23.7546 59.3453 23.8464Z" fill="#0F0F0F"/>
</svg>
