<svg width="40" height="40" viewBox="0 0 40 40" fill="none" xmlns="http://www.w3.org/2000/svg">
<rect y="0.000350952" width="40" height="39.9996" rx="8" fill="#EC1D35"/>
<path d="M27.875 14.2699C28.2187 14.4654 28.5041 14.7489 28.7018 15.0913C28.8995 15.4337 29.0025 15.8226 29 16.2179V23.5019C29 24.3109 28.557 25.0569 27.842 25.4499L21.092 29.7199C20.7574 29.9037 20.3818 30 20 30C19.6182 30 19.2426 29.9037 18.908 29.7199L12.158 25.4499C11.8082 25.2588 11.5161 24.9771 11.3124 24.6344C11.1087 24.2917 11.0008 23.9006 11 23.5019V16.2169C11 15.4079 11.443 14.6629 12.158 14.2699L18.908 10.2899C19.2525 10.1 19.6396 10.0004 20.033 10.0004C20.4264 10.0004 20.8135 10.1 21.158 10.2899L27.908 14.2699H27.875Z" stroke="white" stroke-width="2" stroke-linecap="round" stroke-linejoin="round"/>
<path d="M17 19.9999C17 20.7956 17.3161 21.5587 17.8787 22.1213C18.4413 22.6839 19.2044 22.9999 20 22.9999C20.7956 22.9999 21.5587 22.6839 22.1213 22.1213C22.6839 21.5587 23 20.7956 23 19.9999C23 19.2043 22.6839 18.4412 22.1213 17.8786C21.5587 17.316 20.7956 16.9999 20 16.9999C19.2044 16.9999 18.4413 17.316 17.8787 17.8786C17.3161 18.4412 17 19.2043 17 19.9999Z" stroke="white" stroke-width="2" stroke-linecap="round" stroke-linejoin="round"/>
</svg>
