<svg width="158" height="158" viewBox="0 0 158 158" fill="none" xmlns="http://www.w3.org/2000/svg">
<g style="mix-blend-mode:overlay" filter="url(#filter0_f_43_831)">
<circle cx="80" cy="69" r="39" fill="#75CEEF"/>
</g>
<g style="mix-blend-mode:overlay">
<path fill-rule="evenodd" clip-rule="evenodd" d="M89.3452 0H68.6548L77.6802 75.8139L30.4537 15.8234L15.8233 30.4538L75.8136 77.6802L0 68.6548V89.3452L75.8138 80.3198L15.8235 127.546L30.4538 142.177L77.6802 82.1864L68.6548 158H89.3452L80.3198 82.1864L127.546 142.177L142.177 127.546L82.1861 80.3198L158 89.3452V68.6548L82.1864 77.6802L142.177 30.4538L127.546 15.8234L80.3198 75.8139L89.3452 0Z" fill="url(#paint0_radial_43_831)"/>
</g>
<path d="M56.9969 20.9L30.2762 16C26.3991 15.3 23.5698 19.4 25.7703 22.5L41.0693 44.1L56.9969 20.9Z" fill="url(#paint1_linear_43_831)"/>
<path d="M30.2762 16.5001L56.7874 21.3001L57.1017 20.9001L30.381 16.0001C27.3421 15.4001 24.932 17.9001 25.1416 20.5001C25.1416 18.1001 27.4469 15.9001 30.2762 16.5001Z" fill="url(#paint2_linear_43_831)"/>
<path d="M56.997 20.9L43.8986 18.5C43.8986 18.5 40.8597 20.1 37.6113 22C33.9438 24.1 34.1534 27.4 34.1534 27.4C31.5337 26.1 29.9619 25 25.7704 22.5L41.0693 44.1L56.997 20.9Z" fill="url(#paint3_linear_43_831)"/>
<path d="M44.8416 36.3L28.1804 25.4C26.6086 24.4 24.7224 25.9 25.4559 27.6L38.3448 56.6L44.8416 36.3Z" fill="url(#paint4_linear_43_831)"/>
<path d="M28.1805 25.8L44.7368 36.7L44.8416 36.3L28.1805 25.4C26.8182 24.5 25.0368 25.7 25.2464 27.1C25.456 25.9 26.923 25 28.1805 25.8Z" fill="url(#paint5_linear_43_831)"/>
<path d="M44.8416 36.3L34.5724 29.6L34.4676 39L27.7612 32.8L38.3447 56.5L44.8416 36.3Z" fill="url(#paint6_linear_43_831)"/>
<path d="M43.8985 48.4001C43.3746 48.3001 34.8868 40.1001 29.0187 34.5001C27.7613 33.2001 25.5608 34.5001 26.0847 36.2001L37.8209 69.2001L43.8985 48.4001Z" fill="url(#paint7_linear_43_831)"/>
<path d="M29.1235 34.6C28.0756 33.6 26.5038 34.2 26.1895 35.4C26.7134 34.5 28.0756 34.2 28.9139 35C34.6772 40.6 43.2698 48.8 43.7937 48.9L37.9256 69.2V69.3L43.8985 48.5C43.3746 48.3 34.8868 40.2 29.1235 34.6Z" fill="url(#paint8_linear_43_831)"/>
<path d="M43.8985 48.3999C43.5841 48.2999 39.0783 44.1 34.3629 39.7C34.3629 43 34.2581 59.0999 34.2581 59.0999L37.9256 69.3L43.8985 48.3999Z" fill="url(#paint9_linear_43_831)"/>
<path d="M47.566 22L47.1469 14.5C46.9373 11.8 49.3474 9.59999 52.0719 9.79999L65.9038 10.8L47.566 22Z" fill="url(#paint10_linear_43_831)"/>
<path d="M47.147 15C46.9374 12.3 49.3475 10.1 52.072 10.3L65.0656 11.2L65.7991 10.7L51.9672 9.70002C49.1379 9.50002 46.8326 11.7 47.0422 14.4L47.4613 21.9L47.147 15Z" fill="url(#paint11_linear_43_831)"/>
<path d="M47.5661 22L47.2517 16.8L59.1974 10.4L65.799 10.8L47.5661 22Z" fill="#FF8A00"/>
<path d="M101.846 20.9L128.567 16C132.444 15.3 135.273 19.4 133.072 22.5L117.773 44.1L101.846 20.9Z" fill="url(#paint12_linear_43_831)"/>
<path d="M128.567 16.5001L102.055 21.3001L101.741 20.9001L128.462 16.0001C131.501 15.4001 133.911 17.9001 133.701 20.5001C133.701 18.1001 131.396 15.9001 128.567 16.5001Z" fill="url(#paint13_linear_43_831)"/>
<path d="M101.846 20.9L114.944 18.5C114.944 18.5 117.983 20.1 121.231 22C124.899 24.1 124.689 27.4 124.689 27.4C127.309 26.1 128.881 25 133.072 22.5L117.773 44.1L101.846 20.9Z" fill="url(#paint14_linear_43_831)"/>
<path d="M114.001 36.3L130.662 25.4C132.234 24.4 134.12 25.9 133.387 27.6L120.498 56.6L114.001 36.3Z" fill="url(#paint15_linear_43_831)"/>
<path d="M130.662 25.8L114.106 36.7L114.001 36.3L130.662 25.4C132.025 24.5 133.806 25.7 133.596 27.1C133.387 25.9 131.92 25 130.662 25.8Z" fill="url(#paint16_linear_43_831)"/>
<path d="M114.001 36.3L124.27 29.6L124.375 39L131.082 32.8L120.498 56.5L114.001 36.3Z" fill="url(#paint17_linear_43_831)"/>
<path d="M114.944 48.4001C115.468 48.3001 123.956 40.1001 129.824 34.5001C131.082 33.2001 133.282 34.5001 132.758 36.2001L121.022 69.2001L114.944 48.4001Z" fill="url(#paint18_linear_43_831)"/>
<path d="M129.719 34.6C130.767 33.6 132.339 34.2 132.653 35.4C132.129 34.5 130.767 34.2 129.929 35C124.166 40.6 115.573 48.8 115.049 48.9L120.917 69.2V69.3L114.944 48.5C115.468 48.3 123.956 40.2 129.719 34.6Z" fill="url(#paint19_linear_43_831)"/>
<path d="M114.944 48.3999C115.259 48.2999 119.765 44.1 124.48 39.7C124.48 43 124.585 59.0999 124.585 59.0999L120.917 69.3L114.944 48.3999Z" fill="url(#paint20_linear_43_831)"/>
<path d="M111.277 22L111.696 14.5C111.905 11.8 109.495 9.59999 106.771 9.79999L92.939 10.8L111.277 22Z" fill="url(#paint21_linear_43_831)"/>
<path d="M111.696 15C111.905 12.3 109.495 10.1 106.771 10.3L93.7772 11.2L93.0437 10.7L106.876 9.70002C109.705 9.50002 112.01 11.7 111.801 14.4L111.381 21.9L111.696 15Z" fill="url(#paint22_linear_43_831)"/>
<path d="M111.277 22L111.591 16.8L99.6453 10.4L93.0437 10.8L111.277 22Z" fill="#FF8A00"/>
<path d="M79.4214 97.4C78.164 97.4 77.0113 97.1 75.8587 96.5L38.6592 76C36.4587 74.8 35.0964 72.6 35.0964 70.2V29.2C35.0964 26.8 36.4587 24.6 38.6592 23.4L75.8587 2.89999C76.9066 2.29999 78.164 2 79.4214 2C80.6789 2 81.8315 2.29999 82.9842 2.89999L120.184 23.4C122.384 24.6 123.746 26.8 123.746 29.2V70.2C123.746 72.6 122.384 74.8 120.184 76L82.9842 96.5C81.8315 97.1 80.6789 97.4 79.4214 97.4Z" fill="url(#paint23_linear_43_831)"/>
<path d="M79.4215 96.8C78.2688 96.8 77.221 96.5 76.1731 96L38.9736 75.5C36.9827 74.4 35.7252 72.4 35.7252 70.2V29.2C35.7252 27 36.9827 25 38.9736 23.9L76.1731 3.39997C77.1162 2.89997 78.2688 2.59998 79.4215 2.59998C80.5742 2.59998 81.622 2.89997 82.6699 3.39997L119.869 23.9C121.86 25 123.118 27 123.118 29.2V70.2C123.118 72.4 121.86 74.4 119.869 75.5L82.5651 96C81.622 96.5 80.5742 96.8 79.4215 96.8Z" fill="url(#paint24_linear_43_831)"/>
<path d="M79.4215 94.9C78.6879 94.9 77.8496 94.7001 77.2209 94.3001L40.0214 73.8001C38.6592 73.0001 37.8209 71.6 37.8209 70.1V29.1C37.8209 27.6 38.6592 26.2 40.0214 25.4L77.2209 4.90005C77.8496 4.50005 78.6879 4.30005 79.4215 4.30005C80.155 4.30005 80.9933 4.50005 81.622 4.90005L118.821 25.4C120.184 26.2 121.022 27.6 121.022 29.1V70.1C121.022 71.6 120.184 73.0001 118.821 73.8001L81.622 94.3001C80.9933 94.7001 80.155 94.9 79.4215 94.9Z" fill="#C0561A"/>
<path d="M118.612 26L81.4123 5.49998C80.2597 4.79998 78.7927 4.79998 77.5352 5.49998L40.3358 26C39.1831 26.7 38.4496 27.9 38.4496 29.2V70.2C38.4496 71.5 39.1831 72.7 40.3358 73.4L77.5352 93.9C78.6879 94.6 80.1549 94.6 81.4123 93.9L118.612 73.4C119.764 72.7 120.498 71.5 120.498 70.2V29.2C120.498 27.8 119.764 26.6 118.612 26Z" fill="url(#paint25_linear_43_831)"/>
<path d="M79.4214 91.8999C79.2118 91.8999 79.0022 91.7999 78.7927 91.6999L41.5932 71.1999C41.174 70.9999 40.9645 70.5999 40.9645 70.0999V29.0999C40.9645 28.6999 41.174 28.2999 41.5932 27.9999L78.7927 7.49992C79.0022 7.39992 79.2118 7.29993 79.4214 7.29993C79.631 7.29993 79.8405 7.39992 80.0501 7.49992L117.25 27.9999C117.669 28.1999 117.878 28.5999 117.878 29.0999V70.0999C117.878 70.4999 117.669 70.8999 117.25 71.1999L80.0501 91.6999C79.8405 91.7999 79.631 91.8999 79.4214 91.8999Z" fill="url(#paint26_linear_43_831)"/>
<path d="M116.935 28.6L79.7358 8.09999C79.631 7.99999 79.5262 8 79.4215 8C79.3167 8 79.2119 7.99999 79.1071 8.09999L41.9076 28.6C41.8028 28.7 41.6981 28.7 41.6981 28.8C41.5933 28.9 41.5933 29 41.5933 29.1V70.1C41.5933 70.2 41.5933 70.3 41.6981 70.4C41.8028 70.5 41.8028 70.6 41.9076 70.6L79.1071 91.1C79.2119 91.2 79.3167 91.2 79.4215 91.2C79.5262 91.2 79.631 91.2 79.7358 91.1L116.935 70.6C117.04 70.6 117.145 70.5 117.145 70.4C117.25 70.3 117.25 70.2 117.25 70.1V29.1C117.25 29 117.25 28.9 117.145 28.8C117.145 28.7 117.04 28.7 116.935 28.6ZM114.106 68.8L79.4215 87.9L44.7369 68.8V30.6L79.4215 11.5L114.106 30.6V68.8Z" fill="url(#paint27_linear_43_831)"/>
<path d="M44.7368 68.8V30.6C44.7368 30.6 41.698 28.8 41.5932 28.9C41.4884 29 41.4884 29.1 41.4884 29.2V70.2C41.4884 70.3 41.4884 70.4 41.5932 70.5C41.698 70.6 44.7368 68.8 44.7368 68.8Z" fill="url(#paint28_linear_43_831)"/>
<path d="M79.4215 87.8999L44.7369 68.7999C44.7369 68.7999 41.5933 70.3999 41.5933 70.4999C41.698 70.5999 41.6981 70.6999 41.8028 70.6999L79.0023 91.1999C79.1071 91.2999 79.2119 91.2999 79.3167 91.2999C79.5262 91.2999 79.4215 87.8999 79.4215 87.8999Z" fill="url(#paint29_linear_43_831)"/>
<path d="M114.106 68.7999L79.4215 87.8999C79.4215 87.8999 79.3167 91.2999 79.4215 91.2999C79.5262 91.2999 79.631 91.2999 79.7358 91.1999L116.935 70.6999C117.04 70.6999 117.145 70.5999 117.145 70.4999C117.25 70.3999 114.106 68.7999 114.106 68.7999Z" fill="url(#paint30_linear_43_831)"/>
<path d="M117.145 70.5C117.25 70.4 117.25 70.3 117.25 70.2V29.2C117.25 29.1 117.25 29 117.145 28.9C117.04 28.8 114.001 30.6 114.001 30.6V68.8C114.106 68.8 117.145 70.6 117.145 70.5Z" fill="url(#paint31_linear_43_831)"/>
<path d="M79.4215 11.4L114.106 30.5C114.106 30.5 117.25 28.9 117.25 28.8C117.145 28.7 117.145 28.6 117.04 28.6L79.8406 8.09999C79.7358 7.99999 79.631 8 79.5263 8C79.3167 8 79.4215 11.4 79.4215 11.4Z" fill="url(#paint32_linear_43_831)"/>
<path d="M44.7368 30.5L79.4214 11.4C79.4214 11.4 79.5262 8 79.4214 8C79.3166 8 79.2118 7.99999 79.107 8.09999L41.9076 28.6C41.8028 28.7 41.698 28.7 41.698 28.8C41.5932 28.9 44.7368 30.5 44.7368 30.5Z" fill="url(#paint33_linear_43_831)"/>
<path d="M48.614 66.5999V32.7L79.4215 15.7L110.229 32.7V66.5999L79.4215 83.5999L48.614 66.5999Z" fill="url(#paint34_linear_43_831)"/>
<path d="M48.614 65.9V66.6L79.4215 83.6L110.229 66.6V65.9L79.4215 82.9L48.614 65.9Z" fill="url(#paint35_linear_43_831)"/>
<path d="M79.4214 11.4L44.7368 30.5V68.7L79.4214 87.8L114.106 68.7V30.5L79.4214 11.4ZM110.229 66.6L79.4214 83.6L48.614 66.6V32.6L79.4214 15.6L110.229 32.6V66.6Z" fill="#37454E"/>
<path d="M45.4703 68.3V30.8999L79.4214 12.2L113.372 30.8999V68.3L79.4214 87L45.4703 68.3ZM47.7757 32.2V67L79.4214 84.3999L111.067 67V32.2L79.4214 14.8L47.7757 32.2Z" fill="url(#paint36_linear_43_831)"/>
<path d="M79.4215 15.7L48.614 32.7V33.5L79.4215 16.5L110.229 33.5V32.7L79.4215 15.7Z" fill="url(#paint37_linear_43_831)"/>
<path d="M91.5767 67C91.2623 67 90.948 66.9 90.6336 66.8L79.4214 61.9L68.2091 66.8C67.8948 66.9 67.5804 67 67.2661 67C66.6373 67 66.0086 66.7 65.5895 66.3C65.1703 65.9 64.9607 65.3 65.0655 64.7L66.5325 53.1L58.2544 44.5C57.7304 44 57.5208 43.2 57.8352 42.5C58.0448 41.8 58.6735 41.3 59.5118 41.1L71.5623 38.8L77.5352 28.6C77.9543 27.9 78.6879 27.5 79.4214 27.5C80.1549 27.5 80.8884 27.9 81.3075 28.6L87.2804 38.8L99.331 41.1C100.064 41.2 100.693 41.8 101.008 42.5C101.217 43.2 101.112 44 100.588 44.5L92.3102 53.1L93.7772 64.7C93.882 65.3 93.6725 65.9 93.2533 66.3C92.7294 66.8 92.1006 67 91.5767 67Z" fill="#37454E"/>
<path d="M91.5767 66.3C91.3672 66.3 91.1576 66.3 90.948 66.2L79.4214 61.2L67.8948 66.2C67.6853 66.3 67.4757 66.3 67.2661 66.3C66.8469 66.3 66.5326 66.1 66.2182 65.8C65.9039 65.5 65.7991 65.1 65.9039 64.8L67.3709 52.8L58.7783 43.9C58.464 43.5 58.3592 43 58.464 42.6C58.6736 42.1 58.9879 41.8 59.5118 41.7L71.8767 39.3L78.0592 28.8C78.2688 28.4 78.7927 28.1 79.3166 28.1C79.8406 28.1 80.2597 28.4 80.5741 28.8L86.7565 39.3L99.1214 41.7C99.6453 41.8 100.064 42.1 100.169 42.6C100.274 43.1 100.169 43.6 99.8549 43.9L91.2624 52.8L92.7294 64.8C92.7294 65.2 92.6246 65.6 92.415 65.8C92.3102 66.1 91.8911 66.3 91.5767 66.3Z" fill="url(#paint38_linear_43_831)"/>
<path d="M69.1523 52.2999C69.0475 51.9999 68.9427 51.6999 68.6284 51.4999L60.6646 43.1999L72.1911 40.9999C72.5055 40.8999 72.8199 40.7999 73.0294 40.5999C73.239 40.3999 79.4215 48.8999 79.4215 48.8999C79.4215 48.8999 69.1523 52.4999 69.1523 52.2999Z" fill="url(#paint39_linear_43_831)"/>
<path d="M60.6646 43.1999L72.1911 40.9999C72.5055 40.8999 72.8199 40.7999 73.0294 40.5999C73.239 40.3999 79.4215 48.8999 79.4215 48.8999L60.6646 43.1999Z" fill="url(#paint40_linear_43_831)"/>
<path d="M79.4214 59.4C79.1071 59.4 78.7927 59.5 78.4783 59.6L67.79 64.3L69.1523 53.1C69.1523 52.8 69.1523 52.5 69.0475 52.3C68.9427 52 79.4214 49 79.4214 49C79.4214 49 79.7358 59.4 79.4214 59.4Z" fill="url(#paint41_linear_43_831)"/>
<path d="M67.79 64.3L69.1523 53.1C69.1523 52.8 69.1523 52.5 69.0475 52.3C68.9427 52 79.4214 49 79.4214 49L67.79 64.3Z" fill="url(#paint42_linear_43_831)"/>
<path d="M80.3645 59.6C80.0502 59.5 79.7358 59.4 79.4215 59.4C79.1071 59.4 79.4215 48.9 79.4215 48.9C79.4215 48.9 89.9002 51.9 89.7954 52.2C89.6906 52.5 89.6906 52.8 89.6906 53.1L91.0528 64.3L80.3645 59.6Z" fill="url(#paint43_linear_43_831)"/>
<path d="M79.4214 48.9C79.4214 48.9 89.9001 51.9 89.7953 52.2C89.6905 52.5 89.6905 52.8 89.6905 53.1L91.0528 64.3L79.4214 48.9Z" fill="url(#paint44_linear_43_831)"/>
<path d="M79.4214 48.8999C79.4214 48.8999 85.6038 40.3999 85.8134 40.5999C86.023 40.7999 86.3373 40.8999 86.6517 40.9999L98.1783 43.1999L90.2145 51.4999C90.0049 51.6999 89.7953 51.9999 89.7953 52.2999C89.6905 52.4999 79.4214 48.8999 79.4214 48.8999Z" fill="url(#paint45_linear_43_831)"/>
<path d="M79.4214 48.8999C79.4214 48.8999 85.6038 40.3999 85.8134 40.5999C86.023 40.7999 86.3373 40.8999 86.6517 40.9999L98.1783 43.1999L79.4214 48.8999Z" fill="url(#paint46_linear_43_831)"/>
<path d="M79.4214 48.9C79.4214 48.9 72.8198 40.8 73.0294 40.6C73.239 40.4 73.4486 40.2 73.6582 39.9L79.4214 30.1L85.1847 39.9C85.2895 40.2 85.4991 40.4 85.8135 40.6C86.1278 40.8 79.4214 48.9 79.4214 48.9Z" fill="url(#paint47_linear_43_831)"/>
<path d="M79.4214 48.9C79.4214 48.9 72.8198 40.8 73.0294 40.6C73.239 40.4 73.4486 40.2 73.6582 39.9L79.4214 30.1V48.9Z" fill="url(#paint48_linear_43_831)"/>
<path d="M79.4215 30.2L79.3167 48.8L60.6646 43.2L79.3167 49L67.7901 64.3L79.4215 49.0999L91.0528 64.3L79.631 49L98.2832 43.2L79.5263 48.8L79.4215 30.2Z" fill="url(#paint49_linear_43_831)"/>
<g style="mix-blend-mode:screen">
<path d="M118.612 26L81.4123 5.49998C80.2597 4.79998 78.7927 4.79998 77.5352 5.49998L40.3358 26C39.1831 26.7 38.4496 27.9 38.4496 29.2V70.2C38.4496 71.5 39.1831 72.7 40.3358 73.4L77.5352 93.9C78.6879 94.6 80.1549 94.6 81.4123 93.9L118.612 73.4C119.764 72.7 120.498 71.5 120.498 70.2V29.2C120.498 27.8 119.764 26.6 118.612 26Z" fill="url(#paint50_linear_43_831)"/>
</g>
<defs>
<filter id="filter0_f_43_831" x="17" y="6" width="126" height="126" filterUnits="userSpaceOnUse" color-interpolation-filters="sRGB">
<feFlood flood-opacity="0" result="BackgroundImageFix"/>
<feBlend mode="normal" in="SourceGraphic" in2="BackgroundImageFix" result="shape"/>
<feGaussianBlur stdDeviation="12" result="effect1_foregroundBlur_43_831"/>
</filter>
<radialGradient id="paint0_radial_43_831" cx="0" cy="0" r="1" gradientUnits="userSpaceOnUse" gradientTransform="translate(79 79) rotate(90) scale(79)">
<stop stop-color="white"/>
<stop offset="1" stop-color="white" stop-opacity="0"/>
</radialGradient>
<linearGradient id="paint1_linear_43_831" x1="26.768" y1="17.5535" x2="41.4387" y2="28.3613" gradientUnits="userSpaceOnUse">
<stop stop-color="#FFF200"/>
<stop offset="0.7389" stop-color="#FF9900"/>
<stop offset="0.824" stop-color="#FC8D00"/>
<stop offset="0.9759" stop-color="#F36F00"/>
<stop offset="1" stop-color="#F26900"/>
</linearGradient>
<linearGradient id="paint2_linear_43_831" x1="27.2708" y1="16.2519" x2="47.5863" y2="23.4238" gradientUnits="userSpaceOnUse">
<stop stop-color="#FFFF56"/>
<stop offset="0.1288" stop-color="#FFF200"/>
<stop offset="0.3904" stop-color="#FFEF00"/>
<stop offset="0.5577" stop-color="#FFE700"/>
<stop offset="0.6985" stop-color="#FFD800"/>
<stop offset="0.8246" stop-color="#FFC300"/>
<stop offset="0.9398" stop-color="#FFA800"/>
<stop offset="0.9937" stop-color="#FF9900"/>
</linearGradient>
<linearGradient id="paint3_linear_43_831" x1="29.0288" y1="19.0703" x2="42.2321" y2="28.7969" gradientUnits="userSpaceOnUse">
<stop stop-color="#FFC400"/>
<stop offset="0.7068" stop-color="#FF7700"/>
</linearGradient>
<linearGradient id="paint4_linear_43_831" x1="25.0642" y1="26.6221" x2="39.1559" y2="45.1746" gradientUnits="userSpaceOnUse">
<stop stop-color="#FFF200"/>
<stop offset="0.7389" stop-color="#FF9900"/>
<stop offset="0.824" stop-color="#FC8D00"/>
<stop offset="0.9759" stop-color="#F36F00"/>
<stop offset="1" stop-color="#F26900"/>
</linearGradient>
<linearGradient id="paint5_linear_43_831" x1="28.4882" y1="23.8392" x2="35.9259" y2="33.6314" gradientUnits="userSpaceOnUse">
<stop stop-color="#FFFF56"/>
<stop offset="0.1288" stop-color="#FFF200"/>
<stop offset="0.3904" stop-color="#FFEF00"/>
<stop offset="0.5577" stop-color="#FFE700"/>
<stop offset="0.6985" stop-color="#FFD800"/>
<stop offset="0.8246" stop-color="#FFC300"/>
<stop offset="0.9398" stop-color="#FFA800"/>
<stop offset="0.9937" stop-color="#FF9900"/>
</linearGradient>
<linearGradient id="paint6_linear_43_831" x1="25.854" y1="32.8343" x2="39.2167" y2="45.5073" gradientUnits="userSpaceOnUse">
<stop stop-color="#FFC400"/>
<stop offset="0.7068" stop-color="#FF7700"/>
</linearGradient>
<linearGradient id="paint7_linear_43_831" x1="20.318" y1="39.938" x2="40.4522" y2="59.9872" gradientUnits="userSpaceOnUse">
<stop offset="0.084759" stop-color="#FFF200"/>
<stop offset="0.7389" stop-color="#FF9900"/>
<stop offset="0.824" stop-color="#FC8D00"/>
<stop offset="0.9759" stop-color="#F36F00"/>
<stop offset="1" stop-color="#F26900"/>
</linearGradient>
<linearGradient id="paint8_linear_43_831" x1="28.9645" y1="33.8319" x2="34.0841" y2="45.5771" gradientUnits="userSpaceOnUse">
<stop stop-color="#FFFF56"/>
<stop offset="0.2459" stop-color="#FFF200"/>
<stop offset="0.4721" stop-color="#FFEF00"/>
<stop offset="0.6167" stop-color="#FFE700"/>
<stop offset="0.7385" stop-color="#FFD800"/>
<stop offset="0.8475" stop-color="#FFC300"/>
<stop offset="0.9471" stop-color="#FFA800"/>
<stop offset="0.9937" stop-color="#FF9900"/>
</linearGradient>
<linearGradient id="paint9_linear_43_831" x1="29.7479" y1="38.6852" x2="35.9312" y2="50.9182" gradientUnits="userSpaceOnUse">
<stop stop-color="#FFC400"/>
<stop offset="0.7068" stop-color="#FF7700"/>
</linearGradient>
<linearGradient id="paint10_linear_43_831" x1="51.4396" y1="8.68329" x2="55.5299" y2="15.3166" gradientUnits="userSpaceOnUse">
<stop stop-color="#FFF200"/>
<stop offset="0.7389" stop-color="#FF9900"/>
<stop offset="0.824" stop-color="#FC8D00"/>
<stop offset="0.9759" stop-color="#F36F00"/>
<stop offset="1" stop-color="#F26900"/>
</linearGradient>
<linearGradient id="paint11_linear_43_831" x1="51.4397" y1="8.68322" x2="55.53" y2="15.3167" gradientUnits="userSpaceOnUse">
<stop stop-color="#FFFF56"/>
<stop offset="0.1288" stop-color="#FFF200"/>
<stop offset="0.3904" stop-color="#FFEF00"/>
<stop offset="0.5577" stop-color="#FFE700"/>
<stop offset="0.6985" stop-color="#FFD800"/>
<stop offset="0.8246" stop-color="#FFC300"/>
<stop offset="0.9398" stop-color="#FFA800"/>
<stop offset="0.9937" stop-color="#FF9900"/>
</linearGradient>
<linearGradient id="paint12_linear_43_831" x1="132.075" y1="17.5535" x2="117.404" y2="28.3613" gradientUnits="userSpaceOnUse">
<stop stop-color="#FFF200"/>
<stop offset="0.7389" stop-color="#FF9900"/>
<stop offset="0.824" stop-color="#FC8D00"/>
<stop offset="0.9759" stop-color="#F36F00"/>
<stop offset="1" stop-color="#F26900"/>
</linearGradient>
<linearGradient id="paint13_linear_43_831" x1="131.572" y1="16.2519" x2="111.257" y2="23.4238" gradientUnits="userSpaceOnUse">
<stop stop-color="#FFFF56"/>
<stop offset="0.1288" stop-color="#FFF200"/>
<stop offset="0.3904" stop-color="#FFEF00"/>
<stop offset="0.5577" stop-color="#FFE700"/>
<stop offset="0.6985" stop-color="#FFD800"/>
<stop offset="0.8246" stop-color="#FFC300"/>
<stop offset="0.9398" stop-color="#FFA800"/>
<stop offset="0.9937" stop-color="#FF9900"/>
</linearGradient>
<linearGradient id="paint14_linear_43_831" x1="129.814" y1="19.0703" x2="116.611" y2="28.7969" gradientUnits="userSpaceOnUse">
<stop stop-color="#FFC400"/>
<stop offset="0.7068" stop-color="#FF7700"/>
</linearGradient>
<linearGradient id="paint15_linear_43_831" x1="133.779" y1="26.6221" x2="119.687" y2="45.1746" gradientUnits="userSpaceOnUse">
<stop stop-color="#FFF200"/>
<stop offset="0.7389" stop-color="#FF9900"/>
<stop offset="0.824" stop-color="#FC8D00"/>
<stop offset="0.9759" stop-color="#F36F00"/>
<stop offset="1" stop-color="#F26900"/>
</linearGradient>
<linearGradient id="paint16_linear_43_831" x1="130.355" y1="23.8392" x2="122.917" y2="33.6314" gradientUnits="userSpaceOnUse">
<stop stop-color="#FFFF56"/>
<stop offset="0.1288" stop-color="#FFF200"/>
<stop offset="0.3904" stop-color="#FFEF00"/>
<stop offset="0.5577" stop-color="#FFE700"/>
<stop offset="0.6985" stop-color="#FFD800"/>
<stop offset="0.8246" stop-color="#FFC300"/>
<stop offset="0.9398" stop-color="#FFA800"/>
<stop offset="0.9937" stop-color="#FF9900"/>
</linearGradient>
<linearGradient id="paint17_linear_43_831" x1="132.989" y1="32.8343" x2="119.626" y2="45.5073" gradientUnits="userSpaceOnUse">
<stop stop-color="#FFC400"/>
<stop offset="0.7068" stop-color="#FF7700"/>
</linearGradient>
<linearGradient id="paint18_linear_43_831" x1="138.525" y1="39.938" x2="118.391" y2="59.9872" gradientUnits="userSpaceOnUse">
<stop offset="0.084759" stop-color="#FFF200"/>
<stop offset="0.7389" stop-color="#FF9900"/>
<stop offset="0.824" stop-color="#FC8D00"/>
<stop offset="0.9759" stop-color="#F36F00"/>
<stop offset="1" stop-color="#F26900"/>
</linearGradient>
<linearGradient id="paint19_linear_43_831" x1="129.878" y1="33.8319" x2="124.759" y2="45.5771" gradientUnits="userSpaceOnUse">
<stop stop-color="#FFFF56"/>
<stop offset="0.2459" stop-color="#FFF200"/>
<stop offset="0.4721" stop-color="#FFEF00"/>
<stop offset="0.6167" stop-color="#FFE700"/>
<stop offset="0.7385" stop-color="#FFD800"/>
<stop offset="0.8475" stop-color="#FFC300"/>
<stop offset="0.9471" stop-color="#FFA800"/>
<stop offset="0.9937" stop-color="#FF9900"/>
</linearGradient>
<linearGradient id="paint20_linear_43_831" x1="129.095" y1="38.6852" x2="122.912" y2="50.9182" gradientUnits="userSpaceOnUse">
<stop stop-color="#FFC400"/>
<stop offset="0.7068" stop-color="#FF7700"/>
</linearGradient>
<linearGradient id="paint21_linear_43_831" x1="107.403" y1="8.68329" x2="103.313" y2="15.3166" gradientUnits="userSpaceOnUse">
<stop stop-color="#FFF200"/>
<stop offset="0.7389" stop-color="#FF9900"/>
<stop offset="0.824" stop-color="#FC8D00"/>
<stop offset="0.9759" stop-color="#F36F00"/>
<stop offset="1" stop-color="#F26900"/>
</linearGradient>
<linearGradient id="paint22_linear_43_831" x1="107.403" y1="8.68322" x2="103.313" y2="15.3167" gradientUnits="userSpaceOnUse">
<stop stop-color="#FFFF56"/>
<stop offset="0.1288" stop-color="#FFF200"/>
<stop offset="0.3904" stop-color="#FFEF00"/>
<stop offset="0.5577" stop-color="#FFE700"/>
<stop offset="0.6985" stop-color="#FFD800"/>
<stop offset="0.8246" stop-color="#FFC300"/>
<stop offset="0.9398" stop-color="#FFA800"/>
<stop offset="0.9937" stop-color="#FF9900"/>
</linearGradient>
<linearGradient id="paint23_linear_43_831" x1="72.4402" y1="5.5886" x2="85.4162" y2="95.5061" gradientUnits="userSpaceOnUse">
<stop stop-color="#FFF985"/>
<stop offset="0.5031" stop-color="#EF8818"/>
<stop offset="1" stop-color="#D85F1B"/>
</linearGradient>
<linearGradient id="paint24_linear_43_831" x1="72.5303" y1="6.15698" x2="85.339" y2="94.9144" gradientUnits="userSpaceOnUse">
<stop stop-color="#FFDE59"/>
<stop offset="0.1629" stop-color="#FFBA45"/>
<stop offset="0.7062" stop-color="#F29218"/>
<stop offset="1" stop-color="#FF8400"/>
</linearGradient>
<linearGradient id="paint25_linear_43_831" x1="73.0098" y1="9.18357" x2="85.0616" y2="92.6965" gradientUnits="userSpaceOnUse">
<stop stop-color="#BBC9CA"/>
<stop offset="0.7062" stop-color="#6C8093"/>
<stop offset="1" stop-color="#79859B"/>
</linearGradient>
<linearGradient id="paint26_linear_43_831" x1="73.3634" y1="11.4155" x2="84.7505" y2="90.3216" gradientUnits="userSpaceOnUse">
<stop stop-color="#C3D0D1"/>
<stop offset="1" stop-color="#9DB5C3"/>
</linearGradient>
<linearGradient id="paint27_linear_43_831" x1="73.4519" y1="11.9736" x2="84.6728" y2="89.7281" gradientUnits="userSpaceOnUse">
<stop stop-color="#768499"/>
<stop offset="0.7047" stop-color="#677D90"/>
<stop offset="1" stop-color="#728297"/>
</linearGradient>
<linearGradient id="paint28_linear_43_831" x1="42.4909" y1="29.7635" x2="43.655" y2="69.8137" gradientUnits="userSpaceOnUse">
<stop stop-color="#4E6B81"/>
<stop offset="0.703" stop-color="#708893"/>
<stop offset="1" stop-color="#869DB1"/>
</linearGradient>
<linearGradient id="paint29_linear_43_831" x1="58.7226" y1="67.7617" x2="62.4324" y2="93.4684" gradientUnits="userSpaceOnUse">
<stop stop-color="#818DB2"/>
<stop offset="1" stop-color="#91A7B6"/>
</linearGradient>
<linearGradient id="paint30_linear_43_831" x1="78.9845" y1="89.6279" x2="114.776" y2="68.4767" gradientUnits="userSpaceOnUse">
<stop stop-color="#B6C4C6"/>
<stop offset="0.3571" stop-color="#8AA0B6"/>
<stop offset="1" stop-color="#7F91AB"/>
</linearGradient>
<linearGradient id="paint31_linear_43_831" x1="112.856" y1="31.0063" x2="118.47" y2="69.9087" gradientUnits="userSpaceOnUse">
<stop stop-color="#577088"/>
<stop offset="0.7653" stop-color="#697E91"/>
<stop offset="1" stop-color="#9FACCE"/>
</linearGradient>
<linearGradient id="paint32_linear_43_831" x1="96.1731" y1="6.6199" x2="99.8828" y2="32.3266" gradientUnits="userSpaceOnUse">
<stop stop-color="#3D5971"/>
<stop offset="1" stop-color="#708893"/>
</linearGradient>
<linearGradient id="paint33_linear_43_831" x1="41.6409" y1="19.2751" x2="79.4713" y2="19.2751" gradientUnits="userSpaceOnUse">
<stop stop-color="#7995A0"/>
<stop offset="1" stop-color="#466479"/>
</linearGradient>
<linearGradient id="paint34_linear_43_831" x1="74.9987" y1="17.4877" x2="83.1588" y2="82.6369" gradientUnits="userSpaceOnUse">
<stop stop-color="#E2F1F2"/>
<stop offset="0.7267" stop-color="#6C8093"/>
<stop offset="0.8873" stop-color="#75879E"/>
<stop offset="1" stop-color="#7E8EA9"/>
</linearGradient>
<linearGradient id="paint35_linear_43_831" x1="78.9057" y1="62.5321" x2="81.4949" y2="83.2047" gradientUnits="userSpaceOnUse">
<stop stop-color="#5E7B9A"/>
<stop offset="1" stop-color="#466479"/>
</linearGradient>
<linearGradient id="paint36_linear_43_831" x1="72.6634" y1="13.5604" x2="84.9189" y2="85.4163" gradientUnits="userSpaceOnUse">
<stop stop-color="#405463"/>
<stop offset="0.6692" stop-color="#465771"/>
<stop offset="1" stop-color="#465D6B"/>
</linearGradient>
<linearGradient id="paint37_linear_43_831" x1="77.1218" y1="16.355" x2="79.7271" y2="37.1552" gradientUnits="userSpaceOnUse">
<stop stop-color="white"/>
<stop offset="1" stop-color="#B6C1C4"/>
</linearGradient>
<linearGradient id="paint38_linear_43_831" x1="58.5081" y1="47.2097" x2="100.393" y2="47.2097" gradientUnits="userSpaceOnUse">
<stop stop-color="#465D6B"/>
<stop offset="0.3308" stop-color="#465771"/>
<stop offset="1" stop-color="#405463"/>
</linearGradient>
<linearGradient id="paint39_linear_43_831" x1="60.6577" y1="46.4413" x2="79.4509" y2="46.4413" gradientUnits="userSpaceOnUse">
<stop stop-color="#6C8093"/>
<stop offset="1" stop-color="#CAE1E4"/>
</linearGradient>
<linearGradient id="paint40_linear_43_831" x1="62.0638" y1="40.851" x2="81.0683" y2="46.617" gradientUnits="userSpaceOnUse">
<stop stop-color="#B4C8CD"/>
<stop offset="0.2125" stop-color="#BECFD3"/>
<stop offset="0.5675" stop-color="#D7E2E5"/>
<stop offset="1" stop-color="white"/>
</linearGradient>
<linearGradient id="paint41_linear_43_831" x1="67.0333" y1="63.3573" x2="78.3596" y2="50.4291" gradientUnits="userSpaceOnUse">
<stop stop-color="#678B9A"/>
<stop offset="1" stop-color="#47687D"/>
</linearGradient>
<linearGradient id="paint42_linear_43_831" x1="74.2045" y1="50.7983" x2="69.3025" y2="64.77" gradientUnits="userSpaceOnUse">
<stop stop-color="#718DA0"/>
<stop offset="1" stop-color="#C2DADF"/>
</linearGradient>
<linearGradient id="paint43_linear_43_831" x1="79.8841" y1="51.4538" x2="91.0782" y2="62.7204" gradientUnits="userSpaceOnUse">
<stop stop-color="#7194A9"/>
<stop offset="1" stop-color="#537083"/>
</linearGradient>
<linearGradient id="paint44_linear_43_831" x1="83.5221" y1="48.8338" x2="92.0687" y2="63.6212" gradientUnits="userSpaceOnUse">
<stop stop-color="#658698"/>
<stop offset="0.3008" stop-color="#68899B"/>
<stop offset="0.5223" stop-color="#7191A4"/>
<stop offset="0.7182" stop-color="#819FB4"/>
<stop offset="0.8984" stop-color="#98B3CB"/>
<stop offset="1" stop-color="#A8C2DB"/>
</linearGradient>
<linearGradient id="paint45_linear_43_831" x1="78.8929" y1="48.6107" x2="99.43" y2="43.0643" gradientUnits="userSpaceOnUse">
<stop stop-color="#3C6078"/>
<stop offset="1" stop-color="#678B9A"/>
</linearGradient>
<linearGradient id="paint46_linear_43_831" x1="81.0186" y1="45.1084" x2="96.5759" y2="41.5663" gradientUnits="userSpaceOnUse">
<stop stop-color="#D3E7E9"/>
<stop offset="1" stop-color="#6C849B"/>
</linearGradient>
<linearGradient id="paint47_linear_43_831" x1="78.1713" y1="30.757" x2="80.1139" y2="47.2451" gradientUnits="userSpaceOnUse">
<stop stop-color="#6C8093"/>
<stop offset="1" stop-color="#A2BAC3"/>
</linearGradient>
<linearGradient id="paint48_linear_43_831" x1="77.6512" y1="29.0593" x2="76.0982" y2="48.1802" gradientUnits="userSpaceOnUse">
<stop offset="0.2087" stop-color="white"/>
<stop offset="1" stop-color="#809EAF"/>
</linearGradient>
<linearGradient id="paint49_linear_43_831" x1="77.433" y1="36.7664" x2="84.3201" y2="60.8123" gradientUnits="userSpaceOnUse">
<stop stop-color="#C3D0D1"/>
<stop offset="1" stop-color="#9DB5C3"/>
</linearGradient>
<linearGradient id="paint50_linear_43_831" x1="72.7102" y1="7.29318" x2="77.8631" y2="42.9997" gradientUnits="userSpaceOnUse">
<stop stop-color="#52C9FF"/>
<stop offset="0.1695" stop-color="#409CC6"/>
<stop offset="0.3964" stop-color="#296581"/>
<stop offset="0.6013" stop-color="#183A49"/>
<stop offset="0.7765" stop-color="#0B1A21"/>
<stop offset="0.9151" stop-color="#030709"/>
<stop offset="1"/>
</linearGradient>
</defs>
</svg>
